<svg width="19" height="13" viewBox="0 0 19 13" fill="none" xmlns="http://www.w3.org/2000/svg">
<path d="M9.50002 3.90906C8.07069 3.90906 6.90912 5.07063 6.90912 6.49996C6.90912 7.92929 8.07069 9.09086 9.50002 9.09086C10.9294 9.09086 12.0909 7.92929 12.0909 6.49996C12.0909 5.07063 10.9293 3.90906 9.50002 3.90906Z" fill="#C4C4C4"/>
<path d="M9.50002 0.0227051C5.18182 0.0227051 1.49411 2.70859 0 6.49998C1.49411 10.2913 5.18182 12.9773 9.50002 12.9773C13.8225 12.9773 17.5059 10.2913 19 6.49998C17.5059 2.70859 13.8225 0.0227051 9.50002 0.0227051ZM9.50002 10.8181C7.11638 10.8181 5.18182 8.88358 5.18182 6.49994C5.18182 4.1163 7.11638 2.18178 9.50002 2.18178C11.8837 2.18178 13.8182 4.11635 13.8182 6.49998C13.8182 8.88362 11.8837 10.8181 9.50002 10.8181Z" fill="#C4C4C4"/>
</svg>
