<svg width="16" height="16" viewBox="0 0 16 16" fill="none" xmlns="http://www.w3.org/2000/svg">
<rect width="16" height="16" fill="white"/>
<path d="M6.2627 13.3904H9.65085C8.72356 14.4016 7.95587 14.9999 7.95587 14.9999C7.95587 14.9999 7.18999 14.4016 6.2627 13.3904Z" fill="#3C4852"/>
<path d="M6.16494 4.84766C5.92776 4.84818 5.69536 4.91187 5.49344 5.03171C5.29152 5.15156 5.12796 5.32286 5.02086 5.52666C4.91376 5.73048 4.86729 5.95885 4.88659 6.18652C4.90589 6.4142 4.99022 6.63228 5.13024 6.81666C5.27025 7.00103 5.46051 7.14451 5.67994 7.23121C5.89937 7.31791 6.13942 7.34446 6.37355 7.3079C6.60767 7.27135 6.82673 7.17313 7.00649 7.02412C7.18625 6.8751 7.31969 6.68109 7.39207 6.46355C7.39171 6.42217 7.36893 5.40374 6.16494 4.84766ZM6.17008 6.60894C6.06228 6.60894 5.95689 6.57816 5.86727 6.52047C5.77763 6.46279 5.70777 6.3808 5.66651 6.28488C5.62525 6.18896 5.61446 6.08341 5.6355 5.98158C5.65653 5.87974 5.70844 5.78621 5.78467 5.71279C5.86089 5.63937 5.95802 5.58937 6.06375 5.56912C6.16948 5.54886 6.27907 5.55925 6.37867 5.59899C6.47827 5.63872 6.5634 5.70601 6.62329 5.79233C6.68318 5.87867 6.71515 5.98016 6.71515 6.08399C6.71515 6.22322 6.65773 6.35674 6.55551 6.45518C6.45329 6.55363 6.31465 6.60894 6.17008 6.60894Z" fill="#3C4852"/>
<path d="M8.52148 6.45541C8.59237 6.67389 8.7247 6.86914 8.90375 7.01947C9.08281 7.1698 9.30159 7.26932 9.53578 7.30699C9.76999 7.34465 10.0104 7.31898 10.2304 7.23281C10.4504 7.14665 10.6413 7.00339 10.7819 6.81893C10.9225 6.63446 11.0073 6.41602 11.0268 6.18789C11.0464 5.95976 11 5.73086 10.8928 5.52661C10.7856 5.32237 10.6217 5.15078 10.4194 5.03094C10.2172 4.91108 9.98436 4.84763 9.74694 4.84766C8.59486 5.38039 8.52478 6.33762 8.52148 6.45541ZM9.74511 5.55974C9.85282 5.55966 9.95815 5.59041 10.0477 5.64806C10.1373 5.70572 10.2072 5.78769 10.2484 5.88363C10.2897 5.97957 10.3005 6.08516 10.2795 6.18702C10.2585 6.28888 10.2066 6.38245 10.1305 6.45589C10.0543 6.52932 9.95725 6.57933 9.8516 6.59958C9.74595 6.61982 9.63644 6.6094 9.53693 6.56962C9.43743 6.52984 9.3524 6.4625 9.2926 6.37612C9.2328 6.28974 9.20091 6.1882 9.20099 6.08434C9.20107 5.94536 9.25834 5.81209 9.3602 5.71375C9.46206 5.6154 9.60021 5.56001 9.74437 5.55974H9.74511Z" fill="#3C4852"/>
<path d="M12.9135 6.93686C12.9135 9.0913 11.7479 11.0637 10.5472 12.5239H5.36744C4.16563 11.0637 3 9.0913 3 6.93686C2.99931 6.16705 3.1873 5.40825 3.54827 4.72388C3.83852 4.92342 4.15514 5.0836 4.48947 5.20003C4.36571 5.44902 4.28435 5.71607 4.2486 5.99064C3.98287 8.15829 5.74722 8.39314 7.95858 8.39314C10.17 8.39314 11.9336 8.15829 11.6678 5.99064C11.6322 5.71544 11.5505 5.44785 11.4259 5.19861C11.7597 5.08218 12.0761 4.92277 12.3667 4.7246C12.7272 5.4088 12.9147 6.16738 12.9135 6.93686Z" fill="#3C4852"/>
<path d="M3.50361 11.5333H12.4103C12.5437 11.5333 12.6717 11.5855 12.7661 11.6783C12.8605 11.7712 12.9135 11.8971 12.9135 12.0284C12.9136 12.0934 12.9006 12.1578 12.8753 12.2179C12.85 12.278 12.813 12.3327 12.7662 12.3787C12.7195 12.4247 12.664 12.4612 12.6029 12.4861C12.5418 12.511 12.4764 12.5238 12.4103 12.5238H3.50361C3.43747 12.5238 3.37199 12.511 3.31089 12.4861C3.24979 12.4612 3.19427 12.4247 3.1475 12.3787C3.10074 12.3327 3.06364 12.2781 3.03833 12.218C3.01303 12.1579 3 12.0934 3 12.0284C3 11.9633 3.01303 11.8989 3.03834 11.8388C3.06366 11.7788 3.10076 11.7242 3.14753 11.6782C3.19429 11.6322 3.24982 11.5958 3.31091 11.5709C3.37201 11.546 3.43749 11.5333 3.50361 11.5333Z" fill="#3C4852"/>
<path d="M12.9135 2.24792C12.548 2.60209 12.1843 2.72733 11.7901 2.72733C10.8412 2.72733 9.71481 2 7.9573 2C6.1998 2 5.07344 2.72733 4.12342 2.72733C3.72923 2.72733 3.3659 2.60245 3 2.24792C3 3.47948 3.80271 4.39156 5.49041 4.70483H5.48563C5.72517 4.7586 5.95802 4.83843 6.17996 4.9429C7.38421 5.51687 7.40698 6.56807 7.40735 6.61079V6.61334L7.954 7.44764L8.50506 6.61662C8.50506 6.61662 8.50506 6.61151 8.50506 6.60348C8.50909 6.4819 8.57853 5.49387 9.73208 4.944C9.95385 4.83982 10.1864 4.76011 10.4257 4.70629H10.4227C12.1112 4.39229 12.9135 3.48022 12.9135 2.24792Z" fill="#3C4852"/>
</svg>
