<svg width="17" height="17" viewBox="0 0 17 17" fill="none" xmlns="http://www.w3.org/2000/svg">
<path d="M11.5287 10.0012L9.15839 8.22346V4.60227C9.15839 4.23816 8.86408 3.94385 8.49997 3.94385C8.13587 3.94385 7.84155 4.23816 7.84155 4.60227V8.55271C7.84155 8.76009 7.939 8.95566 8.10492 9.07944L10.7385 11.0547C10.857 11.1435 10.9953 11.1863 11.1329 11.1863C11.3337 11.1863 11.5313 11.0961 11.6603 10.9223C11.879 10.6319 11.8197 10.2191 11.5287 10.0012Z" fill="#66B87A"/>
<path d="M8.5 0C3.81281 0 0 3.81281 0 8.5C0 13.1872 3.81281 17 8.5 17C13.1872 17 17 13.1872 17 8.5C17 3.81281 13.1872 0 8.5 0ZM8.5 15.6832C4.5397 15.6832 1.3168 12.4603 1.3168 8.5C1.3168 4.5397 4.5397 1.3168 8.5 1.3168C12.461 1.3168 15.6832 4.5397 15.6832 8.5C15.6832 12.4603 12.4603 15.6832 8.5 15.6832Z" fill="#66B87A"/>
</svg>
