<svg width="24" height="24" viewBox="0 0 24 24" fill="none" xmlns="http://www.w3.org/2000/svg">
<path d="M19.3125 16.4531C16.684 16.4531 14.625 15.0118 14.625 13.1719C14.625 11.3319 16.684 9.89062 19.3125 9.89062C21.941 9.89062 24 11.3319 24 13.1719C24 15.0118 21.941 16.4531 19.3125 16.4531ZM19.3125 11.7656C18.4962 11.7656 17.7109 11.9639 17.1578 12.3096C16.7397 12.5708 16.5 12.8851 16.5 13.1719C16.5 13.4586 16.7397 13.7729 17.1578 14.0342C17.7109 14.3799 18.4962 14.5781 19.3125 14.5781C20.1288 14.5781 20.9141 14.3799 21.4672 14.0342C21.8853 13.7729 22.125 13.4586 22.125 13.1719C22.125 12.8851 21.8853 12.5708 21.4672 12.3096C20.9141 11.9639 20.1288 11.7656 19.3125 11.7656ZM12.9844 23.0625C12.9844 22.5447 12.5647 22.125 12.0469 22.125H5.625C3.55725 22.125 1.875 20.4427 1.875 18.375V14.7998C1.875 12.982 2.69414 11.2944 4.12233 10.1699L7.47061 7.53347C7.84955 7.23506 7.9403 6.69778 7.68023 6.29152L5.34844 2.64806C5.20359 2.42175 5.28792 2.2147 5.33091 2.13619C5.37389 2.05762 5.50284 1.875 5.77153 1.875H17.4024C17.6702 1.875 17.7993 2.05678 17.8424 2.13492C17.8854 2.21306 17.9701 2.41927 17.827 2.64567L15.52 6.29602C15.2656 6.69848 15.3533 7.22775 15.724 7.52662L17.0834 8.62289C17.4864 8.94792 18.0766 8.88469 18.4017 8.48161C18.7267 8.07858 18.6634 7.48837 18.2604 7.16334L17.5514 6.59152L19.412 3.64739C19.8749 2.91511 19.9027 1.98881 19.4846 1.23009C19.0666 0.471375 18.2687 0 17.4024 0H5.77153C4.90242 0 4.10334 0.473625 3.68606 1.23605C3.26883 1.99847 3.30066 2.92678 3.76917 3.65883L5.64272 6.58622L2.96241 8.69672C2.04459 9.41939 1.28986 10.3569 0.779766 11.4078C0.269625 12.4587 0 13.6317 0 14.7998V18.375C0 21.4766 2.52338 24 5.625 24H12.0469C12.5647 24 12.9844 23.5803 12.9844 23.0625Z" fill="#FFCC80"/>
<path d="M19.2656 24C17.6531 24 16.126 23.5372 14.9657 22.6968C14.5464 22.3931 14.4527 21.8069 14.7564 21.3876C15.0601 20.9683 15.6463 20.8745 16.0656 21.1782C17.8002 22.4346 20.7311 22.4346 22.4657 21.1782C22.885 20.8745 23.4712 20.9682 23.7749 21.3876C24.0786 21.8069 23.9849 22.393 23.5656 22.6968C22.4052 23.5372 20.8781 24 19.2656 24ZM23.5655 18.8999C23.9849 18.5962 24.0786 18.01 23.7749 17.5907C23.4712 17.1713 22.8849 17.0776 22.4657 17.3813C20.731 18.6377 17.8002 18.6377 16.0655 17.3813C15.6462 17.0776 15.06 17.1713 14.7563 17.5907C14.4526 18.01 14.5464 18.5962 14.9657 18.8999C16.126 19.7403 17.6531 20.2031 19.2656 20.2031C20.8781 20.2031 22.4052 19.7403 23.5655 18.8999ZM13.7812 6.79688C13.7812 6.27909 13.3615 5.85938 12.8438 5.85938H10.3594C9.84159 5.85938 9.42188 6.27909 9.42188 6.79688C9.42188 7.31466 9.84159 7.73438 10.3594 7.73438H12.8438C13.3615 7.73438 13.7812 7.31466 13.7812 6.79688Z" fill="#FFCC80"/>
</svg>
