<svg width="25" height="25" viewBox="0 0 25 25" fill="none" xmlns="http://www.w3.org/2000/svg">
<path d="M14.6013 25H5.86108C2.63022 25 0.00170898 22.3715 0.00170898 19.1406V5.85938C0.00170898 2.62852 2.63022 0 5.86108 0H14.7966C15.336 0 15.7732 0.437207 15.7732 0.976562C15.7732 1.51592 15.336 1.95312 14.7966 1.95312H5.86108C3.70718 1.95312 1.95483 3.70547 1.95483 5.85938V19.1406C1.95483 21.2945 3.70718 23.0469 5.86108 23.0469H14.6013C16.7552 23.0469 18.5076 21.2945 18.5076 19.1406V13.2812C18.5076 12.7419 18.9448 12.3047 19.4841 12.3047C20.0235 12.3047 20.4607 12.7419 20.4607 13.2812V19.1406C20.4607 22.3715 17.8322 25 14.6013 25ZM14.5974 11.5533L17.3642 11.0003C18.7363 10.726 19.9845 10.0581 20.9738 9.0687L23.9577 6.08486C25.3475 4.69512 25.3475 2.43374 23.9577 1.04399C22.5679 -0.345801 20.3066 -0.345801 18.9168 1.04399L15.933 4.02783C14.9436 5.01719 14.2757 6.26538 14.0014 7.6375L13.4483 10.4043C13.3844 10.7245 13.4846 11.0554 13.7154 11.2862C13.9004 11.4712 14.1496 11.5723 14.406 11.5723C14.4696 11.5723 14.5337 11.5661 14.5974 11.5533ZM22.5767 2.4251C22.881 2.72944 23.0486 3.13408 23.0486 3.56445C23.0486 3.99482 22.881 4.39951 22.5767 4.70381L19.5928 7.68765C18.877 8.40342 17.9741 8.88662 16.9814 9.08501L15.6507 9.35098L15.9167 8.02031C16.1151 7.02764 16.5983 6.12461 17.3141 5.40889L20.2979 2.42505C20.6022 2.1207 21.0069 1.95308 21.4373 1.95308C21.8676 1.95308 22.2723 2.12075 22.5767 2.4251Z" fill="#FFCC80"/>
<path d="M15.5769 17.1875H4.93237C4.39302 17.1875 3.95581 16.7503 3.95581 16.2109C3.95581 15.6716 4.39302 15.2344 4.93237 15.2344H15.5769C16.1163 15.2344 16.5535 15.6716 16.5535 16.2109C16.5535 16.7503 16.1163 17.1875 15.5769 17.1875ZM10.3035 18.8965C9.6293 18.8965 9.08276 19.443 9.08276 20.1172C9.08276 20.7914 9.6293 21.3379 10.3035 21.3379C10.9776 21.3379 11.5242 20.7914 11.5242 20.1172C11.5242 19.443 10.9776 18.8965 10.3035 18.8965Z" fill="#FFCC80"/>
</svg>
