<svg width="27" height="27" viewBox="0 0 27 27" fill="none" xmlns="http://www.w3.org/2000/svg">
<path d="M15.2033 27H11.7967C10.6297 27 9.65185 26.1484 9.49416 24.9813L9.27337 23.6881L8.16938 24.4766C7.75932 24.7605 7.28618 24.9498 6.81309 24.9498C6.21376 24.9498 5.58292 24.6974 5.17292 24.2558L2.77573 21.8587C1.95562 21.1016 1.86101 19.7769 2.55495 18.8306L3.31197 17.7266L1.95568 17.5058C0.820114 17.3481 0 16.3703 0 15.2033V11.8283C0 10.6612 0.851629 9.68337 2.01871 9.52567L3.31191 9.30489L2.52337 8.2009C1.82944 7.31769 1.92404 5.99298 2.74416 5.17286L5.14135 2.77567C5.89837 1.95556 7.22315 1.86095 8.16938 2.55489L9.27337 3.31191L9.49416 1.95562C9.65185 0.820114 10.6297 0 11.7967 0H15.2033C16.3703 0 17.3481 0.851629 17.5058 2.01871L17.7266 3.28039L18.799 2.49186C19.6822 1.79792 21.007 1.89253 21.8271 2.71264L24.2243 5.10983C25.0444 5.86686 25.139 7.19163 24.4451 8.13787L23.688 9.24186L25.0443 9.46264C26.1798 9.62034 26.9999 10.5981 26.9999 11.7652V15.1717C26.9999 16.3388 26.1483 17.3166 24.9812 17.4743L23.7195 17.6951L24.5397 18.7991C25.2336 19.7138 25.139 21.007 24.3189 21.8271L21.8586 24.2243C21.417 24.6659 20.8177 24.9183 20.2184 24.9183C19.6822 24.9183 19.2091 24.7606 18.799 24.4451L17.7266 23.6881L17.5058 25.0444C17.3481 26.1799 16.3703 27 15.2033 27ZM9.9673 21.1016C10.0935 21.1016 10.2197 21.1331 10.3143 21.1647C10.6297 21.2909 10.8189 21.5748 10.882 21.8902L11.3552 24.6974C11.3867 24.9498 11.5444 25.1075 11.7652 25.1075H15.1717C15.3925 25.1075 15.5502 24.9498 15.5818 24.7605L16.0549 21.8902C16.118 21.5748 16.3073 21.2908 16.6227 21.1647C16.9381 21.0385 17.2535 21.0701 17.5374 21.2593L19.8715 22.8995C19.9977 22.9941 20.0608 23.0257 20.1869 23.0257C20.313 23.0257 20.4077 22.9942 20.5023 22.8995L22.8995 20.5023C23.0257 20.3761 23.0572 20.0922 22.931 19.9345L21.2277 17.6004C21.0385 17.3481 20.9754 17.0011 21.1016 16.6857C21.2277 16.3703 21.5116 16.1495 21.827 16.118L24.6343 15.6448C24.8866 15.6133 25.0443 15.4556 25.0443 15.2348V11.7967C25.0443 11.5759 24.8866 11.4182 24.6974 11.3866C24.6974 11.3866 24.6974 11.3866 24.6658 11.3866L21.8271 10.9135C21.5116 10.8504 21.2277 10.6611 21.1016 10.3457C20.9754 10.0303 21.007 9.71488 21.1962 9.43101L22.8364 7.09691C22.8364 7.09691 22.8364 7.06539 22.8679 7.06539C22.9941 6.9077 22.9941 6.65533 22.8364 6.52915L20.4076 4.10039C20.2815 3.97421 19.9976 3.94269 19.8399 4.06887L17.5689 5.74062C17.3165 5.92989 16.9695 5.9614 16.6542 5.83522C16.3388 5.70904 16.1179 5.42516 16.0864 5.10977L15.6133 2.30253C15.5817 2.05016 15.424 1.89247 15.2032 1.89247H11.7651C11.5443 1.89247 11.3866 2.05016 11.3551 2.23943L10.8819 5.10977C10.8188 5.42516 10.6295 5.7091 10.3142 5.83522C9.99876 5.9614 9.68331 5.92983 9.39943 5.74062L7.06533 4.10045C7.06533 4.10045 7.03382 4.10045 7.03382 4.06893C6.87612 3.94275 6.62376 3.94275 6.49758 4.10045L4.06881 6.52921C3.94263 6.6554 3.91112 6.93927 4.0373 7.09697L5.74055 9.46264C5.92983 9.715 5.96134 10.062 5.83516 10.3774C5.70898 10.6928 5.4251 10.882 5.10971 10.9451L2.30246 11.4183C2.0501 11.4498 1.89241 11.6075 1.89241 11.8283V15.2348C1.89241 15.4556 2.0501 15.6133 2.23937 15.6449L5.10971 16.118C5.4251 16.1811 5.70904 16.3704 5.83516 16.6858C5.96134 17.0012 5.92977 17.3166 5.74055 17.6005L4.10039 19.9346C4.10039 19.9346 4.10039 19.9661 4.06887 19.9661C3.94269 20.1238 3.94269 20.3762 4.10039 20.5024L6.52915 22.9311C6.59224 22.9942 6.74994 23.0573 6.84455 23.0573C6.93915 23.0573 7.00224 23.0258 7.09691 22.9627L9.46258 21.291C9.58882 21.1647 9.77803 21.1016 9.9673 21.1016Z" fill="#FFCC80"/>
<path d="M13.4685 19.1145C10.3774 19.1145 7.854 16.5911 7.854 13.5C7.854 10.4089 10.3774 7.8855 13.4685 7.8855C16.5596 7.8855 19.083 10.4089 19.083 13.5C19.083 16.5911 16.5596 19.1145 13.4685 19.1145ZM13.4685 9.77803C11.4183 9.77803 9.74653 11.4498 9.74653 13.5C9.74653 15.5502 11.4183 17.222 13.4685 17.222C15.5187 17.222 17.1905 15.5502 17.1905 13.5C17.1905 11.4498 15.5187 9.77803 13.4685 9.77803Z" fill="#FFCC80"/>
</svg>
