<svg width="26" height="26" viewBox="0 0 26 26" fill="none" xmlns="http://www.w3.org/2000/svg">
<path d="M22.9531 18.1289C22.3922 18.1289 21.9375 17.6742 21.9375 17.1133V15.6914C21.9375 15.1305 22.3922 14.6758 22.9531 14.6758C23.5141 14.6758 23.9688 15.1305 23.9688 15.6914V17.1133C23.9688 17.6742 23.5141 18.1289 22.9531 18.1289ZM4.0625 17.1133V9.64844C4.0625 7.40838 5.88494 5.58594 8.125 5.58594H10.0039C10.5648 5.58594 11.0195 5.13124 11.0195 4.57031C11.0195 4.00938 10.5648 3.55469 10.0039 3.55469H8.125C4.76491 3.55469 2.03125 6.28834 2.03125 9.64844V17.1133C2.03125 17.6742 2.48595 18.1289 3.04688 18.1289C3.6078 18.1289 4.0625 17.6742 4.0625 17.1133ZM26 22.9531C26 21.2731 24.6332 19.9062 22.9531 19.9062H3.04688C1.36683 19.9062 0 21.2731 0 22.9531C0 24.6332 1.36683 26 3.04688 26H22.9531C24.6332 26 26 24.6332 26 22.9531ZM22.9531 21.9375C23.5131 21.9375 23.9688 22.3931 23.9688 22.9531C23.9688 23.5131 23.5131 23.9688 22.9531 23.9688H3.04688C2.48686 23.9688 2.03125 23.5131 2.03125 22.9531C2.03125 22.3931 2.48686 21.9375 3.04688 21.9375H22.9531Z" fill="#FFCC80"/>
<path d="M13.5838 13.4062C13.4529 13.4062 13.321 13.381 13.1953 13.3289C12.8158 13.1717 12.5684 12.8013 12.5684 12.3905L12.5686 6.76361C12.5527 4.96803 13.2433 3.273 14.5134 1.99063C15.7849 0.706977 17.4747 0 19.2715 0C21.0806 0 22.7728 0.702508 24.0363 1.97818C25.3034 3.25757 25.9917 4.95889 25.9743 6.76873C25.9572 8.55192 25.2481 10.2227 23.9776 11.4731C22.711 12.7198 21.0317 13.4062 19.2489 13.4062C19.2468 13.4062 19.2445 13.4062 19.2424 13.4062C18.194 13.4062 17.1916 13.172 16.2636 12.71C15.6396 12.3994 14.8883 12.5227 14.394 13.017L14.3021 13.1088C14.1079 13.3031 13.8481 13.4062 13.5838 13.4062ZM15.5425 10.5085C16.0946 10.5085 16.6511 10.6339 17.1689 10.8917C17.8131 11.2124 18.511 11.3751 19.2434 11.3751C19.2447 11.375 19.2464 11.3751 19.2478 11.3751C21.8131 11.3752 23.9186 9.30048 23.9431 6.74928C23.9553 5.48564 23.4758 4.29894 22.593 3.40762C21.714 2.52002 20.5344 2.03125 19.2715 2.03125C18.0209 2.03125 16.8437 2.52449 15.9567 3.42007C15.0697 4.31559 14.5878 5.49788 14.5998 6.74923C14.5998 6.75248 14.5999 6.75578 14.5999 6.75904L14.5997 10.6323C14.907 10.5502 15.224 10.5085 15.5425 10.5085Z" fill="#FFCC80"/>
</svg>
