<svg width="123" height="115" viewBox="0 0 123 115" fill="none" xmlns="http://www.w3.org/2000/svg">
<g clip-path="url(#clip0_22_130)">
<path d="M58.1321 113.994C61.0101 112.802 63.7777 111.361 66.4031 109.687L76.9788 107.9L85.6288 106.363C86.9074 106.131 88.0426 105.406 88.7873 104.345C89.532 103.283 89.8259 101.972 89.6051 100.695L77.0963 29.5032C76.9567 28.7072 76.8869 27.9007 76.8878 27.0927V11.538C76.9034 10.3444 76.4708 9.18814 75.6748 8.29629C74.992 7.54867 74.0781 7.04998 73.0783 6.87948L71.8805 2.34567C71.2626 0.229893 69.428 -0.227265 67.1498 0.0901009L4.42738 7.55577C3.23765 7.60729 2.11363 8.11391 1.28905 8.97027C0.464463 9.82664 0.00277895 10.9669 0 12.1538V110.386C0.00100383 111.605 0.487349 112.774 1.35226 113.636C2.21717 114.499 3.38995 114.983 4.61312 114.984L53.1323 114.962C54.8461 114.966 56.5444 114.638 58.1321 113.994V113.994ZM57.3436 111.013C58.054 109.598 58.4005 108.028 58.3519 106.446C58.2465 104.446 57.5792 102.516 56.4263 100.877C61.9558 100.159 67.5447 100.009 73.1048 100.431C68.5296 105.868 61.6384 109.283 57.3436 111.013V111.013ZM2.65339 110.401V12.1689C2.65035 11.6525 2.85224 11.1557 3.21507 10.787C3.5779 10.4183 4.07225 10.2075 4.59037 10.2005L72.2709 9.44485C72.5301 9.43959 72.7877 9.48676 73.0281 9.58352C73.2685 9.68028 73.4867 9.82461 73.6696 10.0078C73.8538 10.1898 73.9998 10.4064 74.0994 10.645C74.199 10.8837 74.25 11.1397 74.2496 11.3982V97.873C67.3894 97.2557 60.4787 97.4956 53.6782 98.587C53.4309 98.6265 53.1998 98.7347 53.0115 98.8992C52.8231 99.0637 52.6852 99.2778 52.6135 99.517C52.5419 99.7562 52.5394 100.011 52.6063 100.251C52.6733 100.492 52.807 100.708 52.9921 100.877C53.0186 100.899 55.6 103.272 55.7023 106.544C55.763 108.509 54.9442 110.454 53.2195 112.34H4.61312C4.09628 112.339 3.60068 112.135 3.2338 111.772C2.86693 111.409 2.65838 110.917 2.65339 110.401V110.401Z" fill="#3C4852"/>
<path d="M102.812 82.1186C105.347 81.8579 107.091 79.4247 106.731 76.9085L97.8156 14.6593C97.5066 12.5058 96.6637 10.4632 95.3631 8.71624L93.0281 5.58414C92.8849 5.39428 92.6932 5.24622 92.473 5.15544C92.2528 5.06466 92.0122 5.03449 91.7763 5.06808C91.5404 5.10167 91.3179 5.19778 91.132 5.34638C90.9462 5.49498 90.8037 5.69062 90.7196 5.91284L89.3588 9.57011C88.5999 11.6095 88.3628 13.8053 88.6689 15.959L97.5881 78.2082C97.7625 79.4285 99.2484 82.4813 102.812 82.1186ZM91.8454 10.4882L92.3571 9.11673L93.2479 10.2917C94.2837 11.6851 94.9558 13.3132 95.2039 15.0296L103.395 72.2198C102.136 72.6166 100.818 72.7955 99.4986 72.7487L91.311 15.585C91.064 13.8681 91.2477 12.117 91.8454 10.4882V10.4882Z" fill="#FFCC80"/>
<path d="M117.617 12.2904H114.365C112.938 12.2924 111.569 12.8588 110.56 13.8653C109.551 14.8718 108.984 16.2363 108.983 17.6592V21.1578C108.98 21.1716 108.98 21.1856 108.983 21.1993C108.983 21.1993 108.983 21.222 108.983 21.2333V35.6282C108.982 35.802 109.016 35.9742 109.082 36.1348C109.149 36.2955 109.247 36.4414 109.37 36.5643C109.493 36.6872 109.64 36.7846 109.801 36.8509C109.962 36.9172 110.135 36.951 110.309 36.9505H121.681C122.033 36.9505 122.37 36.8112 122.619 36.5632C122.868 36.3152 123.008 35.9789 123.008 35.6282V21.2296C123.008 21.2296 123.008 21.2069 123.008 21.1956C123.008 21.1842 123.008 21.1691 123.008 21.154V17.6592C123.007 16.235 122.438 14.8694 121.428 13.8627C120.417 12.8559 119.046 12.2904 117.617 12.2904V12.2904ZM120.347 34.302H111.628V22.8088C113.066 23.0833 114.527 23.2212 115.991 23.2207C117.453 23.2206 118.911 23.0827 120.347 22.8088V34.302Z" fill="#FFCC80"/>
<path d="M66.9604 32.8701C67.2275 32.8709 67.4887 32.7926 67.7111 32.6453C67.9336 32.4979 68.1071 32.2881 68.2098 32.0424C68.3125 31.7967 68.3398 31.5262 68.2882 31.265C68.2365 31.0038 68.1083 30.7638 67.9197 30.5753C67.7312 30.3869 67.4907 30.2584 67.2289 30.2062C66.967 30.154 66.6955 30.1804 66.4487 30.2821C66.2019 30.3838 65.9909 30.5562 65.8424 30.7774C65.694 30.9987 65.6147 31.2589 65.6147 31.5251C65.6147 31.8811 65.7564 32.2227 66.0086 32.4748C66.2609 32.727 66.6032 32.8691 66.9604 32.8701V32.8701Z" fill="#FFCC80"/>
<path d="M21.8754 43.5699L16.2995 48.848L14.8363 47.4614C14.7101 47.3416 14.5615 47.2477 14.3989 47.1851C14.2363 47.1226 14.063 47.0925 13.8887 47.0968C13.7145 47.101 13.5428 47.1393 13.3835 47.2097C13.2241 47.28 13.0802 47.381 12.96 47.5067C12.8398 47.6325 12.7456 47.7807 12.6828 47.9427C12.6201 48.1048 12.5899 48.2776 12.5941 48.4512C12.5984 48.6249 12.6369 48.796 12.7074 48.9549C12.778 49.1137 12.8793 49.2571 13.0055 49.3769L15.3822 51.6439C15.6291 51.8763 15.956 52.0058 16.2957 52.0058C16.6354 52.0058 16.9622 51.8763 17.2092 51.6439L23.7025 45.4892C23.8289 45.3696 23.9305 45.2264 24.0014 45.0677C24.0723 44.909 24.1111 44.7379 24.1157 44.5643C24.1203 44.3906 24.0905 44.2178 24.028 44.0556C23.9656 43.8934 23.8717 43.745 23.7517 43.619C23.6318 43.493 23.4881 43.3918 23.3289 43.3211C23.1696 43.2504 22.998 43.2117 22.8238 43.2071C22.6495 43.2026 22.4761 43.2323 22.3134 43.2945C22.1507 43.3567 22.0018 43.4503 21.8754 43.5699V43.5699Z" fill="#FFCC80"/>
<path d="M56.4375 47.8316C56.4375 48.1823 56.5773 48.5187 56.8261 48.7667C57.0749 49.0147 57.4123 49.154 57.7642 49.154H63.2226C63.5745 49.154 63.9119 49.0147 64.1607 48.7667C64.4095 48.5187 64.5493 48.1823 64.5493 47.8316C64.5493 47.4809 64.4095 47.1446 64.1607 46.8966C63.9119 46.6486 63.5745 46.5093 63.2226 46.5093H57.7642C57.4123 46.5093 57.0749 46.6486 56.8261 46.8966C56.5773 47.1446 56.4375 47.4809 56.4375 47.8316V47.8316Z" fill="#3C4852"/>
<path d="M32.7578 49.154H49.5766C49.9284 49.154 50.2659 49.0147 50.5147 48.7667C50.7635 48.5187 50.9033 48.1823 50.9033 47.8316C50.9033 47.4809 50.7635 47.1446 50.5147 46.8966C50.2659 46.6486 49.9284 46.5093 49.5766 46.5093H32.7578C32.406 46.5093 32.0685 46.6486 31.8197 46.8966C31.5709 47.1446 31.4312 47.4809 31.4312 47.8316C31.4312 48.1823 31.5709 48.5187 31.8197 48.7667C32.0685 49.0147 32.406 49.154 32.7578 49.154Z" fill="#3C4852"/>
<path d="M21.8752 58.4181L16.2992 63.6962L14.8361 62.3096C14.5807 62.0661 14.2388 61.9337 13.8855 61.9415C13.5322 61.9493 13.1965 62.0967 12.9522 62.3512C12.7079 62.6057 12.575 62.9465 12.5828 63.2987C12.5907 63.6508 12.7385 63.9854 12.9939 64.2289L15.3705 66.4958C15.6175 66.7283 15.9444 66.8578 16.2841 66.8578C16.6238 66.8578 16.9506 66.7283 17.1976 66.4958L23.7022 60.3374C23.8286 60.2178 23.9302 60.0746 24.0011 59.9159C24.072 59.7572 24.1109 59.5861 24.1154 59.4125C24.12 59.2388 24.0902 59.066 24.0278 58.9038C23.9653 58.7416 23.8714 58.5932 23.7515 58.4672C23.6315 58.3412 23.4878 58.24 23.3286 58.1693C23.1694 58.0986 22.9978 58.0599 22.8235 58.0553C22.6493 58.0508 22.4759 58.0805 22.3131 58.1427C22.1504 58.2049 22.0016 58.2985 21.8752 58.4181V58.4181Z" fill="#FFCC80"/>
<path d="M32.7579 64.0023H63.2226C63.5745 64.0023 63.9119 63.863 64.1607 63.615C64.4095 63.367 64.5493 63.0306 64.5493 62.6799C64.5493 62.3292 64.4095 61.9928 64.1607 61.7449C63.9119 61.4969 63.5745 61.3575 63.2226 61.3575H32.7579C32.406 61.3575 32.0685 61.4969 31.8197 61.7449C31.5709 61.9928 31.4312 62.3292 31.4312 62.6799C31.4312 63.0306 31.5709 63.367 31.8197 63.615C32.0685 63.863 32.406 64.0023 32.7579 64.0023Z" fill="#3C4852"/>
<path d="M21.8754 73.2663L16.2995 78.5444L14.8363 77.1578C14.7101 77.038 14.5615 76.9441 14.3989 76.8816C14.2363 76.819 14.063 76.7889 13.8887 76.7932C13.7145 76.7974 13.5428 76.8357 13.3835 76.9061C13.2241 76.9764 13.0802 77.0774 12.96 77.2032C12.8398 77.3289 12.7456 77.4771 12.6828 77.6391C12.6201 77.8012 12.5899 77.974 12.5941 78.1476C12.5984 78.3213 12.6369 78.4924 12.7074 78.6513C12.778 78.8101 12.8793 78.9535 13.0055 79.0733L15.3822 81.3403C15.6291 81.5727 15.956 81.7023 16.2957 81.7023C16.6354 81.7023 16.9622 81.5727 17.2092 81.3403L23.7025 75.1856C23.8289 75.066 23.9305 74.9228 24.0014 74.7641C24.0723 74.6054 24.1111 74.4344 24.1157 74.2607C24.1203 74.087 24.0905 73.9142 24.028 73.752C23.9656 73.5898 23.8717 73.4414 23.7517 73.3154C23.6318 73.1894 23.4881 73.0882 23.3289 73.0175C23.1696 72.9468 22.998 72.9081 22.8238 72.9035C22.6495 72.899 22.4761 72.9287 22.3134 72.9909C22.1507 73.0532 22.0018 73.1467 21.8754 73.2663Z" fill="#FFCC80"/>
<path d="M64.5493 77.528C64.5493 77.1773 64.4095 76.841 64.1607 76.593C63.9119 76.345 63.5745 76.2057 63.2226 76.2057H46.1651C45.8132 76.2057 45.4758 76.345 45.227 76.593C44.9782 76.841 44.8384 77.1773 44.8384 77.528C44.8384 77.8788 44.9782 78.2151 45.227 78.4631C45.4758 78.7111 45.8132 78.8504 46.1651 78.8504H63.2226C63.5745 78.8504 63.9119 78.7111 64.1607 78.4631C64.4095 78.2151 64.5493 77.8788 64.5493 77.528Z" fill="#3C4852"/>
<path d="M37.6934 76.2057H32.7657C32.4138 76.2057 32.0763 76.345 31.8275 76.593C31.5787 76.841 31.439 77.1773 31.439 77.528C31.439 77.8788 31.5787 78.2151 31.8275 78.4631C32.0763 78.7111 32.4138 78.8504 32.7657 78.8504H37.6934C38.0453 78.8504 38.3827 78.7111 38.6315 78.4631C38.8803 78.2151 39.0201 77.8788 39.0201 77.528C39.0201 77.1773 38.8803 76.841 38.6315 76.593C38.3827 76.345 38.0453 76.2057 37.6934 76.2057V76.2057Z" fill="#3C4852"/>
<path d="M13.8467 15.6341C13.7234 15.5079 13.5761 15.4077 13.4133 15.3392C13.2506 15.2708 13.0757 15.2355 12.8991 15.2355C12.7224 15.2355 12.5476 15.2708 12.3848 15.3392C12.222 15.4077 12.0747 15.5079 11.9514 15.6341L8.71807 18.8908C8.46674 19.1389 8.32455 19.4762 8.32277 19.8287C8.32099 20.1812 8.45978 20.52 8.7086 20.7705C8.95741 21.021 9.29588 21.1627 9.64954 21.1645C10.0032 21.1663 10.3431 21.0279 10.5944 20.7799L13.8543 17.5307C13.9815 17.4072 14.0825 17.2595 14.1512 17.0963C14.2199 16.9331 14.255 16.7578 14.2542 16.5808C14.2535 16.4038 14.2171 16.2288 14.1471 16.0661C14.0771 15.9035 13.9749 15.7565 13.8467 15.6341V15.6341Z" fill="#3C4852"/>
<path d="M47.9467 32.889C48.298 32.9002 48.6394 32.772 48.8959 32.5326C49.1525 32.2932 49.3032 31.962 49.3151 31.6119C49.4132 30.0002 49.644 28.3991 50.005 26.825H55.3118C55.6636 26.825 56.0011 26.6857 56.2499 26.4377C56.4987 26.1897 56.6385 25.8534 56.6385 25.5026C56.6385 25.1519 56.4987 24.8156 56.2499 24.5676C56.0011 24.3196 55.6636 24.1803 55.3118 24.1803H50.71C51.288 22.2894 52.0937 20.4753 53.1094 18.7775C53.279 18.4949 53.5218 18.2631 53.8124 18.1064C54.103 17.9497 54.4305 17.874 54.7606 17.8871C55.0907 17.9003 55.4111 18.0018 55.6882 18.1811C55.9653 18.3604 56.1888 18.6108 56.3352 18.906C58.2464 22.9215 59.388 27.2577 59.7012 31.6913C59.7325 32.02 59.8859 32.3251 60.1314 32.5467C60.3769 32.7684 60.6967 32.8904 61.0279 32.889H61.1379C61.4884 32.8601 61.8132 32.694 62.0412 32.4271C62.2692 32.1602 62.3819 31.8141 62.3546 31.4646C62.013 26.7 60.7815 22.0409 58.7233 17.7272C58.3691 17.0046 57.8259 16.3906 57.151 15.95C56.476 15.5094 55.6943 15.2584 54.8882 15.2236C54.0821 15.1888 53.2816 15.3714 52.5709 15.7522C51.8602 16.1329 51.2658 16.6978 50.8503 17.3871C46.9612 23.7722 46.6807 31.2152 46.6807 31.5288C46.6713 31.8755 46.7986 32.2121 47.0353 32.4663C47.272 32.7206 47.5991 32.8723 47.9467 32.889V32.889Z" fill="#FFCC80"/>
</g>
<defs>
<clipPath id="clip0_22_130">
<rect width="123" height="115" fill="white"/>
</clipPath>
</defs>
</svg>
