<svg width="96" height="97" viewBox="0 0 96 97" fill="none" xmlns="http://www.w3.org/2000/svg">
<g clip-path="url(#clip0_22_164)">
<path d="M92.0665 6.26891H81.6791C81.4104 6.2683 81.1444 6.32315 80.8977 6.43004C80.651 6.53694 80.4288 6.69359 80.245 6.89026C80.0613 7.08693 79.9198 7.31942 79.8294 7.57326C79.739 7.82711 79.7016 8.0969 79.7196 8.36585C79.7567 8.87682 79.987 9.35428 80.3634 9.7006C80.7398 10.0469 81.2339 10.2359 81.7447 10.229H82.5751C82.8342 10.2332 83.0836 10.3291 83.2792 10.4997C83.4747 10.6703 83.6039 10.9047 83.644 11.1616C83.6841 11.4184 83.6324 11.6812 83.4982 11.9036C83.3639 12.126 83.1556 12.2937 82.9101 12.3771C82.3284 12.5393 81.7189 12.5764 81.1219 12.4857C80.5248 12.3951 79.9536 12.1788 79.4457 11.8512C78.9378 11.5235 78.5048 11.0918 78.1749 10.5845C77.8451 10.0771 77.626 9.5055 77.5319 8.9072C77.4378 8.3089 77.4709 7.6974 77.6291 7.11284C77.7872 6.52828 78.0668 5.98387 78.4495 5.51532C78.8322 5.04678 79.3093 4.6647 79.8496 4.39415C80.3899 4.12359 80.9811 3.97069 81.5844 3.94547C82.0805 3.95549 82.563 3.78246 82.9404 3.45921C83.3177 3.13596 83.5636 2.68499 83.6313 2.19193C83.662 1.91629 83.6345 1.63725 83.5504 1.37302C83.4663 1.10879 83.3277 0.865311 83.1434 0.65847C82.9592 0.45163 82.7336 0.286077 82.4813 0.172616C82.229 0.0591552 81.9556 0.000337074 81.6791 0C80.2068 8.76093e-05 78.7617 0.397666 77.4954 1.15101C76.2291 1.90436 75.1883 2.9857 74.4822 4.28156C74.1415 4.88856 73.6449 5.39299 73.0442 5.74246C72.4434 6.09194 71.7603 6.27371 71.0658 6.26891H59.2944C58.7864 6.26144 58.2944 6.44718 57.9174 6.78876C57.5403 7.13034 57.3062 7.60244 57.2621 8.11012C57.242 8.38121 57.278 8.65353 57.3678 8.91C57.4576 9.16648 57.5993 9.40156 57.784 9.60052C57.9686 9.79947 58.1923 9.95799 58.441 10.0661C58.6896 10.1743 58.9578 10.2297 59.2288 10.229H60.1248C60.374 10.2452 60.6102 10.346 60.7947 10.5148C60.9792 10.6836 61.101 10.9103 61.14 11.1577C61.179 11.4051 61.1329 11.6584 61.0093 11.876C60.8857 12.0937 60.6919 12.2626 60.4599 12.3552C59.9479 12.5089 59.4115 12.5634 58.8792 12.5159C57.7954 12.4111 56.7921 11.8963 56.0733 11.0761C55.3544 10.2559 54.9739 9.19194 55.0091 8.10043C55.0444 7.00892 55.4927 5.97185 56.263 5.20005C57.0333 4.42825 58.0678 3.97965 59.156 3.94547C59.6496 3.95189 60.1286 3.77722 60.5029 3.4543C60.8771 3.13138 61.1209 2.68246 61.1883 2.19193C61.219 1.91629 61.1915 1.63725 61.1074 1.37302C61.0234 1.10879 60.8847 0.865311 60.7005 0.65847C60.5163 0.45163 60.2906 0.286077 60.0383 0.172616C59.786 0.0591552 59.5126 0.000337074 59.2361 0C57.7629 0.000330458 56.3169 0.397939 55.0495 1.15119C53.782 1.90445 52.7398 2.98564 52.0319 4.28156C51.693 4.8885 51.1979 5.39307 50.5982 5.74264C49.9986 6.0922 49.3164 6.27395 48.6229 6.26891H36.8441C36.3361 6.26144 35.8441 6.44718 35.4671 6.78876C35.0901 7.13034 34.8559 7.60244 34.8118 8.11012C34.7907 8.38083 34.8257 8.653 34.9147 8.90946C35.0036 9.16592 35.1446 9.4011 35.3287 9.60018C35.5128 9.79926 35.736 9.95792 35.9843 10.0661C36.2326 10.1744 36.5006 10.2298 36.7713 10.229H37.6673C37.9264 10.2332 38.1758 10.3291 38.3714 10.4997C38.5669 10.6703 38.6961 10.9047 38.7362 11.1616C38.7763 11.4184 38.7246 11.6812 38.5904 11.9036C38.4561 12.126 38.2478 12.2937 38.0023 12.3771C37.4192 12.5404 36.8081 12.5779 36.2094 12.487C35.6107 12.3961 35.0381 12.1789 34.5292 11.8498C34.0204 11.5207 33.5868 11.0871 33.2573 10.5776C32.9277 10.0681 32.7096 9.49434 32.6173 8.89411C32.525 8.29389 32.5606 7.68085 32.7218 7.09544C32.883 6.51004 33.1661 5.96556 33.5524 5.49794C33.9388 5.03031 34.4196 4.65016 34.9631 4.38255C35.5067 4.11495 36.1006 3.96598 36.7057 3.94547C37.1973 3.94988 37.6736 3.77415 38.0451 3.45127C38.4166 3.1284 38.6578 2.68058 38.7235 2.19193C38.7542 1.91629 38.7266 1.63725 38.6426 1.37302C38.5585 1.10879 38.4199 0.865311 38.2356 0.65847C38.0514 0.45163 37.8258 0.286077 37.5735 0.172616C37.3211 0.0591552 37.0478 0.000337074 36.7713 0C35.2993 0.00163956 33.8548 0.399868 32.5888 1.15305C31.3227 1.90624 30.2817 2.98673 29.5744 4.28156C29.2343 4.88907 28.7379 5.39393 28.137 5.74348C27.5361 6.09304 26.8527 6.27448 26.158 6.26891H14.3866C13.8831 6.26714 13.3974 6.45561 13.0262 6.7968C12.655 7.13799 12.4255 7.60688 12.3834 8.11012C12.3624 8.379 12.3968 8.64933 12.4844 8.9043C12.5721 9.15926 12.7111 9.39341 12.8929 9.59216C13.0746 9.79091 13.2952 9.95002 13.5409 10.0596C13.7866 10.1691 14.0522 10.2268 14.321 10.229H15.217C15.482 10.2235 15.7399 10.3148 15.9428 10.4858C16.1457 10.6569 16.2796 10.8961 16.3197 11.1589C16.3598 11.4217 16.3033 11.6901 16.1608 11.9142C16.0182 12.1383 15.7993 12.3028 15.5448 12.3771C15.0328 12.5308 14.4964 12.5853 13.9641 12.5378C13.4016 12.5191 12.8483 12.3895 12.3358 12.1563C11.8233 11.9231 11.3616 11.5909 10.977 11.1787C10.2004 10.3463 9.78529 9.23858 9.82296 8.09916C9.86063 6.95975 10.348 5.88201 11.1779 5.10304C12.0078 4.32407 13.1122 3.90768 14.2482 3.94547C14.7406 3.9501 15.2178 3.77462 15.5905 3.45187C15.9632 3.12911 16.2059 2.6812 16.2732 2.19193C16.3039 1.91629 16.2764 1.63725 16.1923 1.37302C16.1083 1.10879 15.9696 0.865311 15.7854 0.65847C15.6012 0.45163 15.3755 0.286077 15.1232 0.172616C14.8709 0.0591552 14.5975 0.000337074 14.321 0C12.4849 0.00289396 10.7024 0.62149 9.25713 1.75741C7.81183 2.89333 6.78667 4.48134 6.3447 6.26891H3.93359C3.41553 6.26793 2.9024 6.36981 2.42378 6.56866C1.94515 6.76751 1.51049 7.0594 1.14484 7.42751C0.779198 7.79563 0.489798 8.23268 0.293321 8.71349C0.0968446 9.1943 -0.0028235 9.70936 6.08592e-05 10.229V93.0545C6.08592e-05 94.1009 0.414485 95.1045 1.15217 95.8444C1.88985 96.5843 2.89035 97 3.93359 97H92.0738C93.1171 97 94.1176 96.5843 94.8552 95.8444C95.5929 95.1045 96.0073 94.1009 96.0073 93.0545V10.229C96.0102 9.70875 95.9103 9.19309 95.7134 8.7118C95.5165 8.2305 95.2264 7.79312 94.86 7.42491C94.4936 7.0567 94.0581 6.76496 93.5786 6.56655C93.0991 6.36813 92.5852 6.26697 92.0665 6.26891ZM92.0665 81.2254C92.0665 84.3627 90.824 87.3715 88.6124 89.5899C86.4007 91.8083 83.401 93.0545 80.2732 93.0545H15.7269C12.5991 93.0545 9.59945 91.8083 7.38777 89.5899C5.1761 87.3715 3.93359 84.3627 3.93359 81.2254V37.9934C3.93938 34.8599 5.18444 31.8568 7.39549 29.6431C9.60654 27.4295 12.6029 26.1862 15.7269 26.1862H80.2732C83.3972 26.1862 86.3936 27.4295 88.6046 29.6431C90.8157 31.8568 92.0607 34.8599 92.0665 37.9934V81.2254ZM81.4606 22.2407H14.5687C13.1732 22.2455 11.7905 21.9739 10.4999 21.4413C9.20931 20.9088 8.03629 20.1258 7.04816 19.1374C6.06002 18.149 5.27622 16.9746 4.74174 15.6815C4.20726 14.3885 3.93262 13.0023 3.93359 11.6026C3.93403 11.2773 4.04775 10.9624 4.2551 10.7123C4.46244 10.4621 4.75038 10.2925 5.06916 10.2327C5.38795 10.173 5.71754 10.2267 6.00098 10.3848C6.28442 10.5429 6.50391 10.7953 6.6215 11.0984C7.1676 12.5808 8.12744 13.8742 9.38645 14.8243C10.6455 15.7745 12.1504 16.3411 13.7218 16.4566C15.2931 16.5722 16.8644 16.2318 18.2481 15.476C19.6318 14.7202 20.7694 13.581 21.5252 12.1944C21.8664 11.591 22.3626 11.0905 22.9622 10.7448C23.5618 10.3991 24.2428 10.221 24.9343 10.229H26.158C26.8527 10.2234 27.5361 10.4049 28.137 10.7544C28.7379 11.104 29.2343 11.6088 29.5744 12.2163C30.2816 13.5118 31.3233 14.5927 32.5901 15.3456C33.857 16.0985 35.3024 16.4958 36.7749 16.4958C38.2475 16.4958 39.6929 16.0985 40.9598 15.3456C42.2266 14.5927 43.2682 13.5118 43.9755 12.2163C44.3144 11.6094 44.8095 11.1048 45.4092 10.7553C46.0088 10.4057 46.691 10.2239 47.3845 10.229H48.6156C49.3091 10.2239 49.9913 10.4057 50.5909 10.7553C51.1906 11.1048 51.6857 11.6094 52.0246 12.2163C52.7319 13.5118 53.7735 14.5927 55.0404 15.3456C56.3072 16.0985 57.7527 16.4958 59.2252 16.4958C60.6977 16.4958 62.1432 16.0985 63.41 15.3456C64.6769 14.5927 65.7185 13.5118 66.4257 12.2163C66.7659 11.6088 67.2623 11.104 67.8632 10.7544C68.4641 10.4049 69.1475 10.2234 69.8421 10.229H71.0658C71.7603 10.2242 72.4434 10.406 73.0442 10.7554C73.6449 11.1049 74.1415 11.6093 74.4822 12.2163C75.2367 13.6035 76.3736 14.7433 77.7568 15.4995C79.1401 16.2558 80.7112 16.5965 82.2823 16.4809C83.8535 16.3653 85.3582 15.7983 86.6167 14.8477C87.8751 13.8971 88.8339 12.6031 89.3786 11.1204C89.4962 10.8172 89.7157 10.5648 89.9991 10.4067C90.2826 10.2487 90.6122 10.1949 90.931 10.2547C91.2497 10.3145 91.5377 10.4841 91.745 10.7342C91.9524 10.9843 92.0661 11.2992 92.0665 11.6245C92.0627 14.4427 90.9433 17.1441 88.9545 19.1348C86.9657 21.1255 84.2703 22.2427 81.4606 22.2407Z" fill="#3C4852"/>
<path d="M81.0089 33.3392H14.9912C13.9524 33.3392 12.956 33.7521 12.2201 34.4875C11.4842 35.2229 11.0688 36.2208 11.0649 37.2627V81.9342C11.064 82.4519 11.1648 82.9648 11.3617 83.4435C11.5586 83.9221 11.8477 84.3571 12.2123 84.7236C12.577 85.09 13.0102 85.3808 13.487 85.5792C13.9638 85.7775 14.475 85.8796 14.9912 85.8796H81.0089C81.5252 85.8796 82.0363 85.7775 82.5131 85.5792C82.99 85.3808 83.4231 85.09 83.7878 84.7236C84.1525 84.3571 84.4415 83.9221 84.6384 83.4435C84.8353 82.9648 84.9362 82.4519 84.9352 81.9342V37.2627C84.9313 36.2208 84.516 35.2229 83.7801 34.4875C83.0442 33.7521 82.0477 33.3392 81.0089 33.3392ZM28.5619 78.0179C28.5619 79.0624 28.1482 80.0641 27.4119 80.8026C26.6756 81.5412 25.6769 81.9561 24.6356 81.9561H18.9393C18.4231 81.957 17.9117 81.8559 17.4345 81.6584C16.9574 81.4609 16.5237 81.171 16.1583 80.8052C15.793 80.4394 15.5031 80.005 15.3053 79.5267C15.1076 79.0484 15.0058 78.5357 15.0058 78.0179V73.6341C15.0058 73.1163 15.1076 72.6036 15.3053 72.1253C15.5031 71.647 15.793 71.2126 16.1583 70.8468C16.5237 70.481 16.9574 70.1911 17.4345 69.9936C17.9117 69.7961 18.4231 69.6949 18.9393 69.6959H24.6211C25.6624 69.6959 26.661 70.1108 27.3973 70.8494C28.1336 71.5879 28.5473 72.5896 28.5473 73.6341L28.5619 78.0179ZM28.5619 61.8123C28.5628 62.3313 28.4615 62.8454 28.2637 63.325C28.0659 63.8046 27.7756 64.2402 27.4093 64.6069C27.0431 64.9735 26.6082 65.264 26.1297 65.4615C25.6512 65.659 25.1385 65.7597 24.6211 65.7577H18.9393C18.4231 65.7587 17.9117 65.6576 17.4345 65.4601C16.9574 65.2626 16.5237 64.9727 16.1583 64.6069C15.793 64.2411 15.5031 63.8066 15.3053 63.3283C15.1076 62.8501 15.0058 62.3374 15.0058 61.8196V57.4357C15.0048 56.9173 15.1059 56.4039 15.3032 55.9247C15.5006 55.4456 15.7903 55.0103 16.1557 54.6437C16.5212 54.2772 16.9552 53.9866 17.4329 53.7886C17.9105 53.5907 18.4225 53.4893 18.9393 53.4903H24.6211C25.6624 53.4903 26.661 53.9052 27.3973 54.6437C28.1336 55.3823 28.5473 56.384 28.5473 57.4284L28.5619 61.8123ZM28.5619 45.6066C28.5619 46.6511 28.1482 47.6528 27.4119 48.3913C26.6756 49.1299 25.6769 49.5448 24.6356 49.5448H18.9393C18.4231 49.5458 17.9117 49.4446 17.4345 49.2471C16.9574 49.0497 16.5237 48.7597 16.1583 48.3939C15.793 48.0281 15.5031 47.5937 15.3053 47.1154C15.1076 46.6371 15.0058 46.1244 15.0058 45.6066V41.2228C15.0029 40.7032 15.1025 40.1881 15.299 39.7073C15.4955 39.2265 15.7849 38.7894 16.1505 38.4213C16.5162 38.0532 16.9509 37.7613 17.4295 37.5625C17.9081 37.3636 18.4212 37.2617 18.9393 37.2627H24.6211C25.6624 37.2627 26.661 37.6776 27.3973 38.4162C28.1336 39.1547 28.5473 40.1564 28.5473 41.2009L28.5619 45.6066ZM46.0442 78.0179C46.0442 78.5357 45.9424 79.0484 45.7447 79.5267C45.5469 80.005 45.257 80.4394 44.8917 80.8052C44.5263 81.171 44.0926 81.4609 43.6154 81.6584C43.1383 81.8559 42.6269 81.957 42.1107 81.9561H36.4217C35.9054 81.957 35.3941 81.8559 34.9169 81.6584C34.4397 81.4609 34.006 81.171 33.6407 80.8052C33.2753 80.4394 32.9855 80.005 32.7877 79.5267C32.5899 79.0484 32.4881 78.5357 32.4881 78.0179V73.6341C32.4881 73.1163 32.5899 72.6036 32.7877 72.1253C32.9855 71.647 33.2753 71.2126 33.6407 70.8468C34.006 70.481 34.4397 70.1911 34.9169 69.9936C35.3941 69.7961 35.9054 69.6949 36.4217 69.6959H42.1034C42.6196 69.6949 43.131 69.7961 43.6082 69.9936C44.0854 70.1911 44.519 70.481 44.8844 70.8468C45.2498 71.2126 45.5396 71.647 45.7374 72.1253C45.9352 72.6036 46.0369 73.1163 46.0369 73.6341L46.0442 78.0179ZM46.0442 61.8123C46.0452 62.3313 45.9439 62.8454 45.7461 63.325C45.5483 63.8046 45.2579 64.2402 44.8917 64.6069C44.5255 64.9735 44.0906 65.264 43.6121 65.4615C43.1336 65.659 42.6209 65.7597 42.1034 65.7577H36.4217C35.9054 65.7587 35.3941 65.6576 34.9169 65.4601C34.4397 65.2626 34.006 64.9727 33.6407 64.6069C33.2753 64.2411 32.9855 63.8066 32.7877 63.3283C32.5899 62.8501 32.4881 62.3374 32.4881 61.8196V57.4357C32.4872 56.9173 32.5882 56.4039 32.7856 55.9247C32.9829 55.4456 33.2726 55.0103 33.6381 54.6437C34.0035 54.2772 34.4375 53.9866 34.9152 53.7886C35.3929 53.5907 35.9048 53.4893 36.4217 53.4903H42.1034C42.6196 53.4893 43.131 53.5905 43.6082 53.7879C44.0854 53.9854 44.519 54.2754 44.8844 54.6411C45.2498 55.0069 45.5396 55.4414 45.7374 55.9197C45.9352 56.398 46.0369 56.9106 46.0369 57.4284L46.0442 61.8123ZM46.0442 45.6066C46.0442 46.1244 45.9424 46.6371 45.7447 47.1154C45.5469 47.5937 45.257 48.0281 44.8917 48.3939C44.5263 48.7597 44.0926 49.0497 43.6154 49.2471C43.1383 49.4446 42.6269 49.5458 42.1107 49.5448H36.4217C35.9054 49.5458 35.3941 49.4446 34.9169 49.2471C34.4397 49.0497 34.006 48.7597 33.6407 48.3939C33.2753 48.0281 32.9855 47.5937 32.7877 47.1154C32.5899 46.6371 32.4881 46.1244 32.4881 45.6066V41.2228C32.4852 40.7032 32.5849 40.1881 32.7814 39.7073C32.9779 39.2265 33.2673 38.7894 33.6329 38.4213C33.9986 38.0532 34.4332 37.7613 34.9118 37.5625C35.3905 37.3636 35.9036 37.2617 36.4217 37.2627H42.1034C42.6196 37.2618 43.131 37.3629 43.6082 37.5604C44.0854 37.7579 44.519 38.0478 44.8844 38.4136C45.2498 38.7794 45.5396 39.2138 45.7374 39.6921C45.9352 40.1704 46.0369 40.6831 46.0369 41.2009L46.0442 45.6066ZM63.5266 78.0179C63.5266 78.5357 63.4248 79.0484 63.227 79.5267C63.0293 80.005 62.7394 80.4394 62.374 80.8052C62.0087 81.171 61.575 81.4609 61.0978 81.6584C60.6206 81.8559 60.1093 81.957 59.5931 81.9561H53.904C53.3878 81.957 52.8765 81.8559 52.3993 81.6584C51.9221 81.4609 51.4884 81.171 51.123 80.8052C50.7577 80.4394 50.4678 80.005 50.27 79.5267C50.0723 79.0484 49.9705 78.5357 49.9705 78.0179V73.6341C49.9705 73.1163 50.0723 72.6036 50.27 72.1253C50.4678 71.647 50.7577 71.2126 51.123 70.8468C51.4884 70.481 51.9221 70.1911 52.3993 69.9936C52.8765 69.7961 53.3878 69.6949 53.904 69.6959H59.5858C60.102 69.6949 60.6133 69.7961 61.0905 69.9936C61.5677 70.1911 62.0014 70.481 62.3668 70.8468C62.7321 71.2126 63.022 71.647 63.2197 72.1253C63.4175 72.6036 63.5193 73.1163 63.5193 73.6341L63.5266 78.0179ZM63.5266 61.8123C63.5276 62.3313 63.4262 62.8454 63.2284 63.325C63.0306 63.8046 62.7403 64.2402 62.3741 64.6069C62.0078 64.9735 61.573 65.264 61.0945 65.4615C60.6159 65.659 60.1032 65.7597 59.5858 65.7577H53.904C53.3878 65.7587 52.8765 65.6576 52.3993 65.4601C51.9221 65.2626 51.4884 64.9727 51.123 64.6069C50.7577 64.2411 50.4678 63.8066 50.27 63.3283C50.0723 62.8501 49.9705 62.3374 49.9705 61.8196V57.4357C49.9695 56.9173 50.0706 56.4039 50.2679 55.9247C50.4653 55.4456 50.755 55.0103 51.1204 54.6437C51.4859 54.2772 51.9199 53.9866 52.3976 53.7886C52.8753 53.5907 53.3872 53.4893 53.904 53.4903H59.5858C60.102 53.4893 60.6133 53.5905 61.0905 53.7879C61.5677 53.9854 62.0014 54.2754 62.3668 54.6411C62.7321 55.0069 63.022 55.4414 63.2197 55.9197C63.4175 56.398 63.5193 56.9106 63.5193 57.4284L63.5266 61.8123ZM63.5266 45.6066C63.5266 46.1244 63.4248 46.6371 63.227 47.1154C63.0293 47.5937 62.7394 48.0281 62.374 48.3939C62.0087 48.7597 61.575 49.0497 61.0978 49.2471C60.6206 49.4446 60.1093 49.5458 59.5931 49.5448H53.904C53.3878 49.5458 52.8765 49.4446 52.3993 49.2471C51.9221 49.0497 51.4884 48.7597 51.123 48.3939C50.7577 48.0281 50.4678 47.5937 50.27 47.1154C50.0723 46.6371 49.9705 46.1244 49.9705 45.6066V41.2228C49.9676 40.7032 50.0673 40.1881 50.2637 39.7073C50.4602 39.2265 50.7496 38.7894 51.1153 38.4213C51.4809 38.0532 51.9156 37.7613 52.3942 37.5625C52.8728 37.3636 53.386 37.2617 53.904 37.2627H59.5858C60.102 37.2618 60.6133 37.3629 61.0905 37.5604C61.5677 37.7579 62.0014 38.0478 62.3668 38.4136C62.7321 38.7794 63.022 39.2138 63.2197 39.6921C63.4175 40.1704 63.5193 40.6831 63.5193 41.2009L63.5266 45.6066ZM81.0089 78.0179C81.0089 78.5357 80.9072 79.0484 80.7094 79.5267C80.5116 80.005 80.2218 80.4394 79.8564 80.8052C79.4911 81.171 79.0574 81.4609 78.5802 81.6584C78.103 81.8559 77.5916 81.957 77.0754 81.9561H71.3864C70.3451 81.9561 69.3464 81.5412 68.6101 80.8026C67.8738 80.0641 67.4601 79.0624 67.4601 78.0179V73.6341C67.4601 72.5896 67.8738 71.5879 68.6101 70.8494C69.3464 70.1108 70.3451 69.6959 71.3864 69.6959H77.0827C77.5989 69.6949 78.1103 69.7961 78.5874 69.9936C79.0646 70.1911 79.4983 70.481 79.8637 70.8468C80.229 71.2126 80.5189 71.647 80.7167 72.1253C80.9144 72.6036 81.0162 73.1163 81.0162 73.6341L81.0089 78.0179ZM81.0089 61.8123C81.0089 62.3301 80.9072 62.8428 80.7094 63.321C80.5116 63.7993 80.2218 64.2338 79.8564 64.5996C79.4911 64.9654 79.0574 65.2553 78.5802 65.4528C78.103 65.6502 77.5916 65.7514 77.0754 65.7504H71.3864C70.8702 65.7514 70.3588 65.6502 69.8816 65.4528C69.4044 65.2553 68.9707 64.9654 68.6054 64.5996C68.24 64.2338 67.9502 63.7993 67.7524 63.321C67.5546 62.8428 67.4528 62.3301 67.4528 61.8123V57.4284C67.4528 56.9106 67.5546 56.398 67.7524 55.9197C67.9502 55.4414 68.24 55.0069 68.6054 54.6411C68.9707 54.2754 69.4044 53.9854 69.8816 53.7879C70.3588 53.5905 70.8702 53.4893 71.3864 53.4903H77.0827C77.5989 53.4893 78.1103 53.5905 78.5874 53.7879C79.0646 53.9854 79.4983 54.2754 79.8637 54.6411C80.229 55.0069 80.5189 55.4414 80.7167 55.9197C80.9144 56.398 81.0162 56.9106 81.0162 57.4284L81.0089 61.8123ZM81.0089 45.6066C81.0089 46.1244 80.9072 46.6371 80.7094 47.1154C80.5116 47.5937 80.2218 48.0281 79.8564 48.3939C79.4911 48.7597 79.0574 49.0497 78.5802 49.2471C78.103 49.4446 77.5916 49.5458 77.0754 49.5448H71.3864C70.3451 49.5448 69.3464 49.1299 68.6101 48.3913C67.8738 47.6528 67.4601 46.6511 67.4601 45.6066V41.2228C67.4572 40.7038 67.5567 40.1893 67.7527 39.709C67.9487 39.2287 68.2375 38.7919 68.6023 38.4239C68.9672 38.0559 69.401 37.7639 69.8788 37.5646C70.3566 37.3653 70.8689 37.2627 71.3864 37.2627H77.0827C77.5989 37.2618 78.1103 37.3629 78.5874 37.5604C79.0646 37.7579 79.4983 38.0478 79.8637 38.4136C80.229 38.7794 80.5189 39.2138 80.7167 39.6921C80.9144 40.1704 81.0162 40.6831 81.0162 41.2009L81.0089 45.6066Z" fill="#FFCC80"/>
</g>
<defs>
<clipPath id="clip0_22_164">
<rect width="96" height="97" fill="white"/>
</clipPath>
</defs>
</svg>
