<svg width="90" height="124" viewBox="0 0 90 124" fill="none" xmlns="http://www.w3.org/2000/svg">
<path d="M38.1823 27.8413H40.7198C41.1251 27.8479 41.5115 28.0129 41.7957 28.3007C42.08 28.5885 42.2393 28.9761 42.2393 29.3798C42.2393 29.7835 42.08 30.171 41.7957 30.4589C41.5115 30.7467 41.1251 30.9117 40.7198 30.9183H38.0935C37.8066 30.9187 37.5261 30.8347 37.2869 30.6769C37.0478 30.519 36.8609 30.2943 36.7495 30.031C36.5987 29.6761 36.3125 29.3953 35.9539 29.2505C35.5952 29.1057 35.1935 29.1088 34.8371 29.259C34.4808 29.4092 34.1989 29.6942 34.0535 30.0514C33.9081 30.4086 33.9112 30.8087 34.062 31.1637C34.3896 31.9368 34.9348 32.5991 35.6317 33.0706C36.3287 33.542 37.1478 33.8027 37.9901 33.821V34.3541C37.9901 34.7395 38.1438 35.1091 38.4175 35.3817C38.6911 35.6542 39.0622 35.8073 39.4492 35.8073C39.8361 35.8073 40.2072 35.6542 40.4809 35.3817C40.7545 35.1091 40.9082 34.7395 40.9082 34.3541V33.8143C42.0699 33.7597 43.1643 33.2553 43.9581 32.4087C44.7519 31.562 45.1822 30.4401 45.1574 29.2819C45.1326 28.1238 44.6547 27.0211 43.8254 26.2089C42.9961 25.3967 41.8811 24.9393 40.7181 24.934H38.1806C37.9756 24.9374 37.772 24.9001 37.5817 24.8243C37.3913 24.7484 37.218 24.6356 37.0718 24.4924C36.9257 24.3492 36.8096 24.1785 36.7304 23.9902C36.6511 23.8019 36.6103 23.5997 36.6103 23.3955C36.6103 23.1913 36.6511 22.9892 36.7304 22.8008C36.8096 22.6125 36.9257 22.4418 37.0718 22.2986C37.218 22.1554 37.3913 22.0426 37.5817 21.9668C37.772 21.8909 37.9756 21.8536 38.1806 21.857H40.8069C41.1083 21.8571 41.4023 21.9501 41.6485 22.1231C41.8948 22.2961 42.0813 22.5408 42.1826 22.8236C42.2465 23.0035 42.3455 23.1691 42.4738 23.311C42.602 23.4528 42.7571 23.5681 42.9301 23.6502C43.1031 23.7324 43.2906 23.7798 43.482 23.7898C43.6734 23.7998 43.8649 23.7721 44.0455 23.7084C44.2262 23.6446 44.3925 23.5461 44.5349 23.4183C44.6773 23.2906 44.7931 23.1361 44.8755 22.9638C44.958 22.7915 45.0056 22.6047 45.0157 22.4141C45.0257 22.2235 44.9979 22.0328 44.9339 21.8528C44.6364 21.0213 44.0927 20.2992 43.3747 19.7818C42.6566 19.2644 41.7979 18.9761 40.9119 18.9547V18.4224C40.9119 18.037 40.7582 17.6674 40.4846 17.3949C40.211 17.1223 39.8399 16.9692 39.4529 16.9692C39.0659 16.9692 38.6948 17.1223 38.4212 17.3949C38.1476 17.6674 37.9939 18.037 37.9939 18.4224V18.9622C36.8321 19.0168 35.7377 19.5212 34.9439 20.3679C34.1501 21.2146 33.7198 22.3367 33.7447 23.4948C33.7695 24.653 34.2476 25.7557 35.0769 26.5678C35.9063 27.38 37.0213 27.8374 38.1844 27.8425L38.1823 27.8413Z" fill="#FFCC80"/>
<path d="M30.0215 45.3768H48.8848C49.2717 45.3768 49.6428 45.2237 49.9165 44.9512C50.1901 44.6786 50.3438 44.309 50.3438 43.9236C50.3438 43.5382 50.1901 43.1686 49.9165 42.896C49.6428 42.6235 49.2717 42.4704 48.8848 42.4704H30.0215C29.6346 42.4704 29.2635 42.6235 28.9898 42.896C28.7162 43.1686 28.5625 43.5382 28.5625 43.9236C28.5625 44.309 28.7162 44.6786 28.9898 44.9512C29.2635 45.2237 29.6346 45.3768 30.0215 45.3768Z" fill="#FFCC80"/>
<path d="M57.5389 52.4132H29.6226C29.2356 52.4132 28.8645 52.5663 28.5909 52.8388C28.3173 53.1114 28.1636 53.481 28.1636 53.8664C28.1636 54.2518 28.3173 54.6215 28.5909 54.894C28.8645 55.1665 29.2356 55.3196 29.6226 55.3196H57.5389C57.9259 55.3196 58.297 55.1665 58.5706 54.894C58.8442 54.6215 58.998 54.2518 58.998 53.8664C58.998 53.481 58.8442 53.1114 58.5706 52.8388C58.297 52.5663 57.9259 52.4132 57.5389 52.4132Z" fill="#FFCC80"/>
<path d="M57.5388 61.2366H21.3384C20.9515 61.2366 20.5804 61.3897 20.3067 61.6623C20.0331 61.9348 19.8794 62.3044 19.8794 62.6898C19.8794 63.0752 20.0331 63.4449 20.3067 63.7174C20.5804 63.9899 20.9515 64.143 21.3384 64.143H57.5388C57.9257 64.143 58.2968 63.9899 58.5704 63.7174C58.8441 63.4449 58.9978 63.0752 58.9978 62.6898C58.9978 62.3044 58.8441 61.9348 58.5704 61.6623C58.2968 61.3897 57.9257 61.2366 57.5388 61.2366Z" fill="#FFCC80"/>
<path d="M57.5388 70.0601H21.3384C20.9515 70.0601 20.5804 70.2132 20.3067 70.4857C20.0331 70.7582 19.8794 71.1279 19.8794 71.5133C19.8794 71.8987 20.0331 72.2683 20.3067 72.5408C20.5804 72.8134 20.9515 72.9665 21.3384 72.9665H57.5388C57.9257 72.9665 58.2968 72.8134 58.5704 72.5408C58.8441 72.2683 58.9978 71.8987 58.9978 71.5133C58.9978 71.1279 58.8441 70.7582 58.5704 70.4857C58.2968 70.2132 57.9257 70.0601 57.5388 70.0601Z" fill="#FFCC80"/>
<path d="M21.3385 45.3768C21.7254 45.3768 22.0966 45.2237 22.3702 44.9512C22.6438 44.6786 22.7975 44.309 22.7975 43.9236C22.7975 43.5382 22.6438 43.1686 22.3702 42.896C22.0966 42.6235 21.7254 42.4704 21.3385 42.4704H20.5635C20.1766 42.4704 19.8055 42.6235 19.5318 42.896C19.2582 43.1686 19.1045 43.5382 19.1045 43.9236C19.1045 44.309 19.2582 44.6786 19.5318 44.9512C19.8055 45.2237 20.1766 45.3768 20.5635 45.3768H21.3385Z" fill="#FFCC80"/>
<path d="M57.5391 45.3768H58.3141C58.701 45.3768 59.0721 45.2237 59.3458 44.9512C59.6194 44.6786 59.7731 44.309 59.7731 43.9236C59.7731 43.5382 59.6194 43.1686 59.3458 42.896C59.0721 42.6235 58.701 42.4704 58.3141 42.4704H57.5391C57.1522 42.4704 56.781 42.6235 56.5074 42.896C56.2338 43.1686 56.0801 43.5382 56.0801 43.9236C56.0801 44.309 56.2338 44.6786 56.5074 44.9512C56.781 45.2237 57.1522 45.3768 57.5391 45.3768Z" fill="#FFCC80"/>
<path d="M1.45695 102.416H51.5685C51.7821 102.931 52.0435 103.426 52.3493 103.894C52.6982 104.423 53.1036 104.914 53.5582 105.357C49.628 111.081 47.3469 117.849 47.2477 118.149C47.1658 118.395 47.1513 118.658 47.2057 118.911C47.2602 119.165 47.3815 119.399 47.5572 119.589C47.7329 119.78 47.9567 119.921 48.2052 119.997C48.4538 120.073 48.7182 120.081 48.971 120.021C50.3905 119.673 51.8331 119.426 53.2877 119.282L55.41 123.229C55.5346 123.461 55.72 123.655 55.9465 123.79C56.173 123.925 56.432 123.997 56.696 123.997C56.7377 123.997 56.7794 123.997 56.8231 123.991C57.1077 123.966 57.3787 123.859 57.6026 123.682C57.8264 123.505 57.9933 123.267 58.0825 122.997C59.4426 118.833 61.3481 114.865 63.7498 111.197C65.1867 112.135 66.8674 112.635 68.5855 112.635C70.3036 112.635 71.9842 112.135 73.4211 111.197C75.8244 114.866 77.7307 118.834 79.0905 123C79.1797 123.27 79.3466 123.509 79.5704 123.685C79.7943 123.862 80.0653 123.969 80.3499 123.994C80.3915 123.998 80.4332 124 80.4774 124C80.7414 124 81.0003 123.928 81.2267 123.793C81.4531 123.658 81.6385 123.464 81.763 123.233L83.8857 119.285C85.3403 119.43 86.7829 119.676 88.2024 120.024C88.4553 120.084 88.7196 120.076 88.9682 120C89.2168 119.924 89.4405 119.784 89.6162 119.593C89.7919 119.402 89.9133 119.168 89.9677 118.915C90.0221 118.662 90.0076 118.398 89.9257 118.153C89.8257 117.852 87.5496 111.094 83.6223 105.37C85.2139 103.798 86.1497 101.684 86.2417 99.4537C86.3338 97.223 85.5754 95.0402 84.1188 93.3433C85.2524 92.0365 85.9773 90.4278 86.204 88.7156C86.4307 87.0034 86.1493 85.2625 85.3945 83.7077C84.6396 82.1529 83.4444 80.8521 81.9562 79.9658C80.468 79.0795 78.7519 78.6464 77.0195 78.7199V1.4532C77.0195 1.06779 76.8658 0.69816 76.5922 0.425632C76.3186 0.153104 75.9474 0 75.5605 0H22.1561C22.1502 0 22.144 0 22.1381 0C22.0542 0.000593664 21.9705 0.00851246 21.888 0.0236661C21.8747 0.0261573 21.8622 0.0307238 21.8484 0.0336302C21.7802 0.0482507 21.7132 0.0678184 21.6479 0.0921745C21.6241 0.100894 21.6012 0.110859 21.5783 0.120823C21.5219 0.144926 21.4672 0.172664 21.4145 0.203862C21.3936 0.215903 21.3728 0.227114 21.3528 0.2404C21.2818 0.286153 21.2151 0.338121 21.1535 0.395686L0.45397 19.9101C0.44855 19.9151 0.444382 19.9213 0.438963 19.9267C0.421871 19.9433 0.40728 19.9616 0.391023 19.979C0.351038 20.0212 0.313594 20.0657 0.278885 20.1123C0.271382 20.1227 0.262211 20.1326 0.254707 20.1434C0.247204 20.1542 0.235114 20.1771 0.224693 20.1941C0.193675 20.2444 0.16583 20.2965 0.141319 20.3502C0.134233 20.3652 0.124228 20.3784 0.117975 20.3917C0.111722 20.405 0.111305 20.4117 0.107136 20.4212C0.0755622 20.4987 0.0506009 20.5787 0.0325171 20.6604C0.0291822 20.677 0.0283484 20.6936 0.0254303 20.7098C0.0127921 20.7812 0.00554609 20.8536 0.00375322 20.9261C0.00375322 20.939 1.49107e-06 20.9506 1.49107e-06 20.9639V100.961C-0.000272423 101.151 0.0371955 101.34 0.110266 101.517C0.183336 101.693 0.290578 101.854 0.425868 101.989C0.561159 102.124 0.721848 102.231 0.898762 102.304C1.07568 102.378 1.26535 102.416 1.45695 102.416ZM65.8304 19.0224C63.8899 18.7122 62.0971 17.8 60.7074 16.4159C59.3177 15.0317 58.4019 13.2461 58.0904 11.3134H65.8304V19.0224ZM55.1465 11.3125C55.4773 14.0202 56.7093 16.5395 58.6458 18.4681C60.5824 20.3968 63.1118 21.6236 65.8304 21.9529V74.4101C63.633 75.1288 61.8018 76.6696 60.7234 78.7075C59.1851 78.5495 57.632 78.7941 56.2177 79.4171C54.8034 80.04 53.5767 81.0197 52.659 82.2593C51.7412 83.499 51.164 84.9557 50.9846 86.4856C50.8051 88.0154 51.0295 89.5654 51.6356 90.9824H21.4074C21.0766 88.2749 19.8447 85.7558 17.9083 83.8272C15.9719 81.8986 13.4427 80.6716 10.7243 80.3421V27.8413H22.1561C22.543 27.8413 22.9141 27.6882 23.1878 27.4156C23.4614 27.1431 23.6151 26.7735 23.6151 26.3881V11.3125H55.1465ZM10.7243 83.2734C12.6648 83.5836 14.4576 84.4958 15.8473 85.8799C17.237 87.2641 18.1528 89.0497 18.4643 90.9824H10.7243V83.2734ZM20.697 4.8292V19.5128H5.1208L5.97162 18.7106L20.697 4.8292ZM2.91599 99.5094V27.8413H7.80625V92.4356C7.80625 92.8211 7.95997 93.1907 8.23359 93.4632C8.50722 93.7357 8.87833 93.8888 9.26529 93.8888H52.554C51.374 95.5189 50.791 97.5029 50.9024 99.5094H2.91599ZM82.3833 84.2965C83.2045 85.5325 83.5296 87.0306 83.2945 88.4942C83.0593 89.9577 82.281 91.2799 81.1136 92.199C80.9425 92.3346 80.8042 92.5069 80.7089 92.7029C80.6136 92.899 80.5638 93.1139 80.5632 93.3317C80.5625 93.5495 80.6111 93.7647 80.7052 93.9613C80.7993 94.158 80.9366 94.331 81.1069 94.4676C82.1641 95.3166 82.8987 96.4996 83.1892 97.8209C83.4798 99.1421 83.3089 100.523 82.7047 101.734C82.1006 102.945 81.0995 103.915 79.8669 104.483C78.6343 105.051 77.2441 105.182 75.9261 104.856C75.5751 104.77 75.2044 104.816 74.8858 104.987C74.5673 105.157 74.3236 105.439 74.2019 105.778C73.7878 106.936 73.0231 107.937 72.0133 108.644C71.0035 109.351 69.7983 109.728 68.5642 109.723C67.3301 109.719 66.1279 109.333 65.1233 108.619C64.1188 107.905 63.3616 106.898 62.9561 105.737C62.8362 105.394 62.5923 105.109 62.2721 104.937C61.952 104.765 61.5788 104.718 61.2257 104.805C59.9046 105.135 58.5101 105.004 57.274 104.434C56.038 103.865 55.0348 102.891 54.4313 101.675C53.8277 100.459 53.6602 99.0743 53.9564 97.7504C54.2527 96.4265 54.995 95.2434 56.0599 94.3979C56.231 94.2622 56.3693 94.09 56.4645 93.8939C56.5598 93.6979 56.6096 93.483 56.6102 93.2651C56.6109 93.0473 56.5624 92.8321 56.4682 92.6355C56.3741 92.4389 56.2368 92.2659 56.0665 92.1292C55.0089 91.2804 54.2739 90.0974 53.9831 88.776C53.6923 87.4545 53.8631 86.0738 54.4673 84.8622C55.0716 83.6506 56.0729 82.6807 57.3058 82.1131C58.5387 81.5454 59.9292 81.414 61.2473 81.7405C61.5983 81.8268 61.969 81.7802 62.2874 81.6099C62.6059 81.4395 62.8495 81.1574 62.9711 80.8183C63.3851 79.6603 64.1498 78.6588 65.1597 77.952C66.1696 77.2453 67.3748 76.8682 68.609 76.8727C69.8432 76.8773 71.0456 77.2633 72.0501 77.9775C73.0547 78.6916 73.8119 79.6988 74.2173 80.8599C74.3372 81.202 74.5811 81.4871 74.9011 81.6594C75.2212 81.8317 75.5943 81.8787 75.9473 81.7912C77.1485 81.4933 78.4129 81.5743 79.5658 82.0231C80.7188 82.4719 81.7033 83.2663 82.3833 84.2965ZM74.1014 75.8866C72.5767 74.6793 70.6951 74.0059 68.7476 73.9704V9.85935C68.7476 9.47393 68.5939 9.10431 68.3203 8.83178C68.0467 8.55925 67.6755 8.40615 67.2886 8.40615H23.6151V2.9064H74.1014V75.8866Z" fill="#3C4852"/>
<path d="M68.5869 83.8655C66.7136 83.8654 64.8824 84.4186 63.3248 85.4551C61.7672 86.4916 60.5532 87.9648 59.8363 89.6886C59.1194 91.4123 58.9318 93.309 59.2972 95.1389C59.6626 96.9688 60.5646 98.6497 61.8891 99.9691C63.2137 101.288 64.9013 102.187 66.7386 102.551C68.5758 102.915 70.4802 102.728 72.2108 102.014C73.9415 101.3 75.4207 100.091 76.4614 98.5398C77.5022 96.9884 78.0577 95.1646 78.0577 93.2988C78.0548 90.7979 77.0561 88.4002 75.2806 86.6317C73.5051 84.8633 71.0978 83.8684 68.5869 83.8655ZM68.5869 99.8258C67.2908 99.8259 66.0237 99.4431 64.946 98.726C63.8683 98.0089 63.0283 96.9895 62.5323 95.7969C62.0362 94.6042 61.9064 93.2919 62.1592 92.0257C62.412 90.7596 63.0361 89.5966 63.9525 88.6837C64.869 87.7709 66.0366 87.1492 67.3078 86.8973C68.579 86.6454 69.8967 86.7747 71.0941 87.2687C72.2916 87.7627 73.3151 88.5992 74.0352 89.6726C74.7552 90.746 75.1396 92.0079 75.1396 93.2988C75.1376 95.0292 74.4466 96.6882 73.2182 97.9118C71.9897 99.1354 70.3242 99.8237 68.5869 99.8258Z" fill="#FFCC80"/>
</svg>
