<svg width="19" height="15" viewBox="0 0 19 15" fill="none" xmlns="http://www.w3.org/2000/svg">
<path d="M17.4167 0.375H1.58335C0.710088 0.375 0 1.08509 0 1.95835V13.0417C0 13.9149 0.710088 14.625 1.58335 14.625H17.4167C18.2899 14.625 19 13.9149 19 13.0417V1.95835C19 1.08509 18.2899 0.375 17.4167 0.375ZM1.58335 1.16665H17.4167C17.475 1.16665 17.5264 1.18792 17.5812 1.19994C16.2104 2.4545 11.6651 6.61268 10.0745 8.0458C9.94999 8.15791 9.74938 8.29165 9.50004 8.29165C9.2507 8.29165 9.05009 8.15791 8.92521 8.04543C7.33474 6.61253 2.78918 2.45413 1.41862 1.20002C1.47346 1.18799 1.52497 1.16665 1.58335 1.16665ZM0.791654 13.0417V1.95835C0.791654 1.88079 0.815033 1.81043 0.835963 1.73955C1.88512 2.69979 5.05663 5.60115 7.11309 7.4712C5.06331 9.23193 1.89098 12.2396 0.833477 13.248C0.814811 13.1807 0.791654 13.1148 0.791654 13.0417ZM17.4167 13.8333H1.58335C1.52011 13.8333 1.46389 13.8113 1.40485 13.7972C2.49761 12.7555 5.69013 9.73053 7.70387 8.0078C7.96638 8.24593 8.20618 8.46306 8.39522 8.63339C8.72148 8.92797 9.10338 9.08335 9.5 9.08335C9.89662 9.08335 10.2785 8.92793 10.6044 8.63377C10.7935 8.46336 11.0335 8.24605 11.2961 8.0078C13.31 9.73035 16.5021 12.7551 17.5951 13.7972C17.5361 13.8113 17.48 13.8333 17.4167 13.8333ZM18.2083 13.0417C18.2083 13.1148 18.1852 13.1807 18.1666 13.248C17.1086 12.2391 13.9367 9.23175 11.8869 7.47124C13.9435 5.60119 17.1145 2.70009 18.164 1.73947C18.185 1.81035 18.2083 1.88075 18.2083 1.95831V13.0417Z" fill="#ABAAAC"/>
</svg>
