<svg width="51" height="51" viewBox="0 0 51 51" fill="none" xmlns="http://www.w3.org/2000/svg">
<path d="M40.8031 0.189209H10C4.47715 0.189209 0 4.66636 0 10.1892V40.9923C0 46.5151 4.47715 50.9923 10 50.9923H40.8031C46.3259 50.9923 50.8031 46.5151 50.8031 40.9923V10.1892C50.8031 4.66636 46.3259 0.189209 40.8031 0.189209Z" fill="#3B5998"/>
<path fill-rule="evenodd" clip-rule="evenodd" d="M28.3411 20.2506L28.7097 17.9112C27.7653 17.8469 26.8175 17.854 25.8742 17.9325C25.2164 18.0201 24.615 18.3505 24.1883 18.8588C23.7855 19.4038 23.5861 20.0726 23.6247 20.7491V23.8115L21.2617 23.7938V26.165L23.6247 26.1733V33.2621L26.0029 33.2561V26.1673H28.8078L29.174 23.7961H26.0029C26.0029 23.7961 26.0029 21.0965 26.0029 20.8318C26.0134 20.7403 26.0428 20.6519 26.0892 20.5724C26.1356 20.4928 26.1982 20.4237 26.2727 20.3696C26.3473 20.3155 26.4322 20.2775 26.5223 20.258C26.6123 20.2385 26.7055 20.238 26.7957 20.2564C27.3179 20.2494 28.3411 20.2506 28.3411 20.2506Z" fill="white"/>
<path d="M30.7181 16.7297H20.0849C18.1274 16.7297 16.5405 18.3166 16.5405 20.2741V30.9073C16.5405 32.8649 18.1274 34.4517 20.0849 34.4517H30.7181C32.6756 34.4517 34.2625 32.8649 34.2625 30.9073V20.2741C34.2625 18.3166 32.6756 16.7297 30.7181 16.7297Z" fill="white"/>
<path fill-rule="evenodd" clip-rule="evenodd" d="M29.5227 22.6135L29.8913 20.2742C28.947 20.2098 27.9992 20.2169 27.0559 20.2954C26.398 20.383 25.7966 20.7134 25.3699 21.2217C24.9672 21.7667 24.7677 22.4355 24.8063 23.1121V26.1744L22.4434 26.1567V28.5279L24.8063 28.5362V35.625L27.1846 35.6191V28.5303H29.9894L30.3557 26.159H27.1846C27.1846 26.159 27.1846 23.4594 27.1846 23.1947C27.195 23.1032 27.2244 23.0149 27.2708 22.9353C27.3173 22.8557 27.3798 22.7867 27.4544 22.7325C27.5289 22.6784 27.6139 22.6404 27.7039 22.6209C27.794 22.6014 27.8871 22.6009 27.9774 22.6194C28.4996 22.6123 29.5227 22.6135 29.5227 22.6135Z" fill="#3B5998"/>
</svg>
