<svg width="52" height="51" viewBox="0 0 52 51" fill="none" xmlns="http://www.w3.org/2000/svg">
<path d="M41.4017 0.0078125H10.5986C5.07579 0.0078125 0.598633 4.48496 0.598633 10.0078V40.8109C0.598633 46.3337 5.07578 50.8109 10.5986 50.8109H41.4017C46.9246 50.8109 51.4017 46.3337 51.4017 40.8109V10.0078C51.4017 4.48497 46.9246 0.0078125 41.4017 0.0078125Z" fill="#EDEDED"/>
<path fill-rule="evenodd" clip-rule="evenodd" d="M26.0001 16.5483C27.4093 16.5497 28.7978 16.8883 30.0495 17.5357C31.3012 18.1831 32.3798 19.1206 33.1953 20.27L30.3172 22.3257C29.8872 21.7157 29.3324 21.204 28.6898 20.8246C28.0471 20.4451 27.3311 20.2065 26.5892 20.1247C25.8474 20.0428 25.0967 20.1194 24.3867 20.3496C23.6767 20.5798 23.0238 20.9582 22.4711 21.4597L20.1294 18.7837C21.7457 17.3435 23.8352 16.5479 26.0001 16.5483Z" fill="#EA4335"/>
<path fill-rule="evenodd" clip-rule="evenodd" d="M30.7263 28.363H25.4097V24.8186H34.8614V28.363C34.2335 30.0097 33.1156 31.4241 31.6584 32.4154L27.899 30.3656C29.0317 30.0183 30.0228 29.3162 30.7263 28.363Z" fill="#4285F4"/>
<path fill-rule="evenodd" clip-rule="evenodd" d="M27.9367 30.3857L31.6406 32.406C29.9975 33.5938 28.0276 34.245 26.0003 34.2704C24.8347 34.2726 23.68 34.0441 22.6031 33.598C21.5262 33.1519 20.5482 32.497 19.7256 31.6711L22.2172 29.1464C22.7113 29.6478 23.3002 30.0457 23.9498 30.3169C24.5993 30.5882 25.2964 30.7272 26.0003 30.726C26.6602 30.7202 27.3145 30.6053 27.9367 30.3857Z" fill="#34A853"/>
<path fill-rule="evenodd" clip-rule="evenodd" d="M22.4712 21.4598C21.9316 21.9358 21.495 22.5171 21.1881 23.1679C20.8813 23.8188 20.7108 24.5255 20.687 25.2447C20.6633 25.9639 20.7867 26.6803 21.0498 27.35C21.313 28.0198 21.7102 28.6287 22.2172 29.1393L19.7255 31.6641C18.8713 30.8118 18.2014 29.7931 17.7573 28.6712C17.3132 27.5493 17.1044 26.348 17.1439 25.142C17.1833 23.9361 17.4701 22.751 17.9866 21.6605C18.503 20.57 19.238 19.5972 20.1461 18.8026L22.4712 21.4598Z" fill="#FBBC05"/>
</svg>
