<svg width="22" height="22" viewBox="0 0 22 22" fill="none" xmlns="http://www.w3.org/2000/svg">
<path d="M21 21H1L1.02071 20.6621C1.19849 17.7428 3.60962 16.8091 5.54691 16.0589C6.794 15.5757 7.87367 15.158 8.20081 14.3677C8.2528 13.7758 8.24883 13.3234 8.24443 12.802C8.24355 12.702 8.24267 12.6005 8.24223 12.496C7.77476 12.0884 7.25706 11.0309 7.10065 10.1454C6.7658 10.0152 6.31882 9.62983 6.18268 8.51635C6.11395 7.9544 6.31155 7.54557 6.54991 7.31177C6.45981 6.5928 6.25207 3.99908 7.66637 2.35596C8.44049 1.45611 9.56202 1 10.9999 1C12.4378 1 13.5593 1.45611 14.3334 2.35596C15.7477 3.99929 15.54 6.59302 15.4499 7.31177C15.6882 7.54557 15.8856 7.95462 15.8164 8.51656C15.6807 9.62961 15.2335 10.015 14.8985 10.1452C14.7436 11.0329 14.2393 12.0876 13.7842 12.4936C13.7838 12.6025 13.7829 12.7081 13.7818 12.8117C13.7769 13.3301 13.7728 13.7795 13.8247 14.3675C14.1517 15.1576 15.2269 15.5755 16.469 16.0583C18.399 16.8087 20.8006 17.7424 20.9789 20.6617L21 21ZM1.7001 20.3624H20.2997C19.9939 18.1146 18.0826 17.3717 16.2317 16.6519C14.8844 16.1281 13.6117 15.6334 13.2033 14.5522L13.1843 14.47C13.1253 13.8283 13.1297 13.3318 13.1348 12.8063C13.1361 12.6547 13.1376 12.4994 13.1376 12.335V12.1422L13.311 12.0526C13.5315 11.939 14.179 10.8537 14.2869 9.85583L14.3151 9.5934L14.5821 9.57171C14.7936 9.55457 15.0754 9.24833 15.1741 8.44087C15.2395 7.90755 14.9381 7.7193 14.935 7.71734L14.7493 7.60522L14.7848 7.3931C14.7896 7.36382 15.2635 4.4207 13.8382 2.76652C13.1927 2.01784 12.238 1.63786 11.0001 1.63786C9.76139 1.63786 8.80596 2.01806 8.16072 2.76804C6.73342 4.42677 7.21058 7.36339 7.21543 7.39289L7.25134 7.60457L7.06541 7.71691C7.06232 7.71886 6.76096 7.90755 6.82594 8.44044C6.92464 9.24768 7.20617 9.55414 7.41744 9.57127L7.68444 9.59296L7.71264 9.85539C7.81992 10.8455 8.48719 11.9344 8.71564 12.0522L8.88946 12.1416V12.3346C8.88946 12.4953 8.89078 12.6478 8.8921 12.7963C8.89673 13.3249 8.90091 13.8242 8.84187 14.4694L8.82271 14.5518C8.41406 15.6334 7.13656 16.1281 5.78394 16.6517C3.92553 17.372 2.00653 18.115 1.7001 20.3624Z" fill="#ABAAAC" stroke="#ABAAAC" stroke-width="0.5"/>
</svg>
