<svg width="20" height="20" viewBox="0 0 20 20" fill="none" xmlns="http://www.w3.org/2000/svg">
<path d="M16.3954 7.67444H3.60467C2.9635 7.67444 2.44189 8.19608 2.44189 8.83721V18.8372C2.44189 19.4784 2.96354 20 3.60467 20H16.3954C17.0365 20 17.5581 19.4783 17.5581 18.8372V8.83721C17.5581 8.19608 17.0365 7.67444 16.3954 7.67444ZM16.1628 18.6047H3.83725V9.06979H16.1628V18.6047H16.1628Z" fill="#ABAAAC"/>
<path d="M9.9999 0C6.85826 0 4.30225 2.57699 4.30225 5.74418V8.13953H5.6976V5.74418C5.6976 3.34629 7.6276 1.39535 9.99994 1.39535C12.3723 1.39535 14.3023 3.34629 14.3023 5.74418V8.13953H15.6976V5.74418C15.6976 2.57699 13.1418 0 9.9999 0Z" fill="#ABAAAC"/>
<path d="M9.88369 13.0232C9.49834 13.0232 9.18604 13.3355 9.18604 13.7209V15.3487C9.18604 15.7341 9.49838 16.0464 9.88369 16.0464C10.269 16.0464 10.5813 15.7341 10.5813 15.3487V13.7209C10.5814 13.3355 10.269 13.0232 9.88369 13.0232Z" fill="#ABAAAC"/>
</svg>
