<svg width="51" height="51" viewBox="0 0 51 51" fill="none" xmlns="http://www.w3.org/2000/svg">
<path d="M41.0004 0.189209H10.1973C4.67442 0.189209 0.197266 4.66636 0.197266 10.1892V40.9923C0.197266 46.5151 4.67442 50.9923 10.1973 50.9923H41.0004C46.5232 50.9923 51.0004 46.5151 51.0004 40.9923V10.1892C51.0004 4.66636 46.5232 0.189209 41.0004 0.189209Z" fill="#2AA1DA"/>
<path fill-rule="evenodd" clip-rule="evenodd" d="M30.8918 31.0256C30.8701 31.2607 30.7786 31.484 30.6288 31.6666C30.4791 31.8491 30.2781 31.9827 30.0518 32.0499C29.8255 32.1172 29.5842 32.1151 29.3591 32.0439C29.134 31.9727 28.9352 31.8357 28.7887 31.6505C27.5009 30.6262 25.4925 29.1518 25.4925 29.1518C25.4925 29.1518 24.0392 31.712 23.7793 31.9743C23.6935 32.0466 23.5937 32.1002 23.486 32.1316C23.3782 32.163 23.265 32.1716 23.1538 32.1568C23.0426 32.142 22.9357 32.1042 22.84 32.0457C22.7442 31.9872 22.6618 31.9093 22.5978 31.8171C22.5846 31.7768 22.5689 31.7374 22.5507 31.699L23.3658 27.6205L29.1787 21.9105L21.2509 26.4344C21.2509 26.4344 17.6711 25.364 17.1395 25.1549C17.0023 25.0799 16.8892 24.9677 16.8132 24.8311C16.7373 24.6946 16.7016 24.5393 16.7103 24.3832C16.7189 24.2272 16.7715 24.0768 16.8621 23.9495C16.9527 23.8222 17.0777 23.7231 17.2222 23.6638C17.9784 23.2787 31.3171 18.1842 31.766 18.053C32.215 17.9219 33.3965 17.5804 33.2665 18.73C33.1366 19.8796 31.0217 30.3947 30.8918 31.0256Z" fill="white"/>
</svg>
