<svg width="52" height="51" viewBox="0 0 52 51" fill="none" xmlns="http://www.w3.org/2000/svg">
<path d="M41.201 0.189209H10.3979C4.8751 0.189209 0.397949 4.66636 0.397949 10.1892V40.9923C0.397949 46.5151 4.8751 50.9923 10.3979 50.9923H41.201C46.7239 50.9923 51.201 46.5151 51.201 40.9923V10.1892C51.201 4.66636 46.7239 0.189209 41.201 0.189209Z" fill="#7B519D"/>
<path fill-rule="evenodd" clip-rule="evenodd" d="M22.1487 19.0018C22.5858 19.7106 23.5664 21.4202 23.7081 21.7321C23.8294 21.9389 23.8675 22.184 23.8149 22.4178C23.7622 22.6516 23.6227 22.8567 23.4246 22.9915C23.0392 23.2252 22.6789 23.498 22.3494 23.8056C22.184 24.1211 22.0305 25.3415 23.8499 27.1527C25.6694 28.9639 27.1344 29.3301 27.5124 28.9249C27.8905 28.5196 28.1151 28.0719 28.3514 27.8356C28.5238 27.6484 28.76 27.5324 29.0136 27.5106C29.2672 27.4887 29.5198 27.5625 29.7218 27.7174C30.723 28.2465 31.6899 28.8384 32.6164 29.4896C33.1954 29.9362 33.6324 30.2611 33.4198 30.8424C33.2244 31.4225 32.9015 31.9514 32.4747 32.3901C32.1268 32.7358 31.6987 32.9899 31.2286 33.1297C30.7585 33.2695 30.2611 33.2906 29.7809 33.1912C28.412 32.8551 27.1125 32.2821 25.9411 31.4981C24.698 30.6085 23.5427 29.6021 22.4912 28.4925C21.5297 27.5481 20.6485 26.5253 19.8565 25.4349C19.0784 24.1338 18.516 22.7154 18.1908 21.2347C18.082 20.8438 18.0714 20.4321 18.1601 20.0362C18.2487 19.6402 18.4337 19.2723 18.6987 18.9651C19.1715 18.4749 19.7738 18.1291 20.4355 17.968C20.8962 17.8475 21.4162 17.8475 22.1487 19.0018ZM25.7994 19.1896V17.9113C27.8361 17.9113 29.7894 18.7203 31.2296 20.1605C32.6698 21.6007 33.4789 23.5541 33.4789 25.5908H32.203C32.202 23.893 31.527 22.265 30.3262 21.0647C29.1254 19.8644 27.4972 19.1899 25.7994 19.1896ZM30.9151 25.5896H29.6391C29.6382 24.5716 29.2333 23.5957 28.5133 22.876C27.7934 22.1562 26.8173 21.7516 25.7994 21.751V20.4703C26.4715 20.4706 27.1369 20.6033 27.7578 20.8608C28.3786 21.1183 28.9427 21.4956 29.4177 21.971C29.8928 22.4465 30.2695 23.0109 30.5264 23.632C30.7833 24.2531 30.9154 24.9187 30.9151 25.5908V25.5896Z" fill="white"/>
</svg>
