<svg width="52" height="51" viewBox="0 0 52 51" fill="none" xmlns="http://www.w3.org/2000/svg">
<path d="M41.6024 0.0078125H10.7993C5.27647 0.0078125 0.799316 4.48496 0.799316 10.0078V40.8109C0.799316 46.3337 5.27647 50.8109 10.7993 50.8109H41.6024C47.1252 50.8109 51.6024 46.3337 51.6024 40.8109V10.0078C51.6024 4.48497 47.1253 0.0078125 41.6024 0.0078125Z" fill="#6695BD"/>
<path fill-rule="evenodd" clip-rule="evenodd" d="M27.9661 21.0025V24.8505C27.9619 24.9141 27.9729 24.9777 27.9982 25.0362C28.0235 25.0947 28.0623 25.1463 28.1115 25.1868C28.1607 25.2273 28.2187 25.2556 28.2809 25.2692C28.3432 25.2828 28.4078 25.2814 28.4694 25.2652C28.8238 25.2404 29.6248 21.9571 29.9805 21.2411C30.1692 20.8374 30.4724 20.4981 30.8524 20.2652C30.9721 20.1568 31.1249 20.0919 31.286 20.0809H34.6863C34.7781 20.0964 34.8644 20.1349 34.9372 20.193C35.0099 20.251 35.0666 20.3266 35.1021 20.4127C35.1375 20.4987 35.1505 20.5923 35.1398 20.6848C35.129 20.7772 35.0949 20.8654 35.0407 20.941C34.7749 21.5317 32.4946 25.2061 32.3765 25.355C32.2343 25.5471 32.1384 25.7695 32.0965 26.0048C32.143 26.2829 32.2713 26.5408 32.4651 26.7456C32.7014 27.0126 34.6106 29.1144 34.789 29.2916C34.9572 29.4847 35.0696 29.72 35.114 29.9722C35.0714 30.1871 34.952 30.3793 34.778 30.5126C34.604 30.6459 34.3875 30.7112 34.1688 30.6964C33.4292 30.6964 31.6097 30.6964 31.4018 30.6964C30.9862 30.551 30.6038 30.324 30.2771 30.0289C30.0112 29.7926 29.0259 28.6678 28.8782 28.5201C28.8282 28.46 28.7643 28.413 28.692 28.3832C28.6198 28.3533 28.5413 28.3415 28.4635 28.3488C28.2862 28.3488 27.9495 28.3665 27.9649 29.04C28.0071 29.5065 27.9092 29.9751 27.6837 30.3857C27.5684 30.4963 27.4316 30.5822 27.2819 30.638C27.1322 30.6939 26.9726 30.7186 26.813 30.7106C25.6045 30.7838 24.4026 30.484 23.3702 29.8517C21.5106 28.6974 19.3933 25.6126 18.408 23.6442C17.8203 22.667 17.4571 21.5713 17.3447 20.4365C17.4038 20.2286 17.4037 20.0821 17.6117 20.0821C17.8196 20.0821 20.4343 20.0821 20.6835 20.0821C20.8564 20.1673 21.0005 20.3012 21.0983 20.4672C21.1869 20.5854 21.8626 22.6081 22.0694 22.9637C22.2761 23.3193 23.2957 25.2676 23.8486 25.2676C24.0322 25.2315 24.1941 25.1243 24.299 24.9694C24.4039 24.8145 24.4433 24.6244 24.4087 24.4405C24.4087 23.9679 24.4087 22.1024 24.4087 21.8649C24.1839 21.3411 23.772 20.9198 23.2532 20.6835C23.3824 20.5119 23.5472 20.3703 23.7362 20.2683C23.9253 20.1663 24.1341 20.1064 24.3484 20.0927C25.0573 20.0632 26.8354 20.0632 27.2194 20.1211C27.4255 20.1613 27.6117 20.2705 27.7475 20.4307C27.8832 20.5909 27.9603 20.7926 27.9661 21.0025Z" fill="white"/>
</svg>
