<svg width="11" height="11" viewBox="0 0 11 11" fill="none" xmlns="http://www.w3.org/2000/svg">
<path d="M1.11042 10.982L3.74077 10.4562C5.04517 10.1955 6.23181 9.56051 7.17237 8.6199L10.0091 5.78321C11.3303 4.46201 11.3303 2.31215 10.0091 0.990942C8.6878 -0.330314 6.53804 -0.330314 5.21679 0.990942L2.3801 3.82763C1.43954 4.76819 0.804557 5.95483 0.543769 7.25928L0.0180138 9.88963C-0.0427965 10.194 0.0524573 10.5086 0.271932 10.7281C0.447771 10.9039 0.684654 11 0.928405 11C0.988937 11 1.04989 10.9941 1.11042 10.982ZM8.69616 2.30393C8.98549 2.59327 9.14486 2.97795 9.14486 3.3871C9.14486 3.79625 8.98549 4.18098 8.69616 4.47027L5.85947 7.30695C5.179 7.98743 4.32055 8.4468 3.37688 8.63541L2.11179 8.88826L2.36464 7.62321C2.55325 6.67949 3.01262 5.821 3.69309 5.14057L6.52978 2.30389C6.81912 2.01455 7.2038 1.85519 7.61295 1.85519C8.02209 1.85519 8.40682 2.0146 8.69616 2.30393Z" fill="#FFCC80"/>
</svg>
