<svg width="247" height="247" viewBox="0 0 247 247" fill="none" xmlns="http://www.w3.org/2000/svg">
<circle cx="123.5" cy="123.5" r="123.5" fill="#F8F8F8"/>
<path d="M118.652 143.113C118.194 142.956 117.727 142.793 117.261 142.623V135.112C118.359 135.418 118.993 135.942 119.04 135.982C119.819 136.677 121.026 136.624 121.744 135.87C122.462 135.115 122.413 133.94 121.634 133.245C121.534 133.155 119.914 131.744 117.261 131.309V129.858C117.261 128.832 116.402 128 115.343 128C114.284 128 113.426 128.832 113.426 129.858V131.446C113.215 131.494 113.002 131.547 112.785 131.61C110.252 132.349 108.359 134.448 107.846 137.087C107.377 139.499 108.179 141.828 109.939 143.165C110.83 143.843 111.932 144.464 113.426 145.116V154.789C112.188 154.676 111.351 154.347 109.968 153.47C109.082 152.909 107.893 153.149 107.313 154.008C106.733 154.866 106.982 156.018 107.868 156.58C110.038 157.955 111.54 158.393 113.426 158.516V160.142C113.426 161.168 114.284 162 115.343 162C116.402 162 117.261 161.168 117.261 160.142V158.35C120.975 157.544 123.36 154.518 123.878 151.533C124.537 147.731 122.486 144.426 118.652 143.113ZM112.305 140.242C111.686 139.771 111.415 138.803 111.615 137.775C111.785 136.898 112.349 135.858 113.425 135.346V140.958C113.009 140.727 112.63 140.488 112.305 140.242ZM120.096 150.917C119.853 152.312 118.891 153.79 117.261 154.466V146.577C117.299 146.59 117.335 146.603 117.373 146.616C120.411 147.657 120.225 150.171 120.096 150.917Z" fill="#3C4852"/>
<path d="M175 117.001C175 102.555 163.126 90.8017 148.532 90.8017C140.634 90.8017 133.534 94.2445 128.68 99.6923C129.658 98.2727 131.226 96.0181 133.741 92.4307C135.318 90.181 135.29 87.2933 133.669 85.0743C132.047 82.855 129.286 81.9232 126.633 82.7021C125.592 83.0071 124.484 82.6594 123.811 81.8157L121.416 78.8127C119.99 77.0252 117.853 76 115.552 76C113.252 76 111.115 77.0252 109.689 78.8127L107.294 81.8157C106.621 82.6594 105.513 83.0071 104.472 82.7021C101.82 81.9247 99.0577 82.855 97.4362 85.0745C95.8148 87.2935 95.7864 90.181 97.3638 92.4309C101.146 97.8256 102.79 100.212 103.5 101.264C102.791 102.288 102.376 103.525 102.376 104.857C102.376 105.6 102.507 106.314 102.744 106.978L85.7649 124.703C80.7577 129.931 78 136.777 78 143.981C78 159.431 90.6985 172 106.307 172H124.798C140.406 172 153.105 159.431 153.105 143.981C153.105 143.592 153.095 143.202 153.078 142.812C165.514 140.672 175 129.913 175 117.001ZM121.763 102.232C123.226 102.232 124.415 103.41 124.415 104.857C124.415 106.305 123.226 107.483 121.763 107.483H108.818C107.355 107.483 106.165 106.305 106.165 104.857C106.165 103.41 107.355 102.232 108.818 102.232H121.763ZM100.507 87.2723C100.764 86.9203 101.732 85.8096 103.396 86.2981C105.932 87.0422 108.629 86.1946 110.268 84.1397L112.663 81.1367C113.365 80.2559 114.419 79.7505 115.552 79.7505C116.686 79.7505 117.739 80.2557 118.442 81.1367L120.837 84.1397C122.476 86.1946 125.173 87.0418 127.709 86.2981C129.373 85.8104 130.341 86.9203 130.598 87.2721C130.855 87.6241 131.617 88.8816 130.628 90.2926C126.999 95.4686 125.316 97.9067 124.514 99.0937C123.789 98.753 122.989 98.5429 122.146 98.4938L124.511 91.886L118.31 98.4816H117.057L115.48 90.5097L113.903 98.4816H112.65L106.449 91.886L108.809 98.4818C107.985 98.4829 107.198 98.6393 106.473 98.9206C105.629 97.6747 103.937 95.2284 100.477 90.2928C99.4876 88.8818 100.25 87.6241 100.507 87.2723ZM149.316 143.981C149.316 157.363 138.317 168.25 124.798 168.25H106.307C92.7878 168.25 81.7891 157.363 81.7891 143.981C81.7891 137.741 84.1777 131.811 88.5148 127.283L105.048 110.023C105.553 110.385 106.112 110.676 106.712 110.882L101.889 124.358L112.554 111.233H113.231L115.553 122.973L117.875 111.233H118.027L122.076 116.216C122.068 116.477 122.063 116.738 122.063 117.001C122.063 131.447 133.937 143.2 148.531 143.2C148.789 143.2 149.045 143.196 149.301 143.188C149.31 143.453 149.316 143.717 149.316 143.981ZM148.532 139.449C136.026 139.449 125.852 129.379 125.852 117.001C125.852 104.623 136.026 94.5522 148.532 94.5522C161.037 94.5522 171.211 104.623 171.211 117.001C171.211 129.379 161.037 139.449 148.532 139.449Z" fill="#3C4852"/>
<path d="M156.715 109.48H156.516V107.343C156.516 102.743 152.92 99 148.5 99C144.08 99 140.484 102.743 140.484 107.343V109.48H140.286C138.471 109.48 137 111.012 137 112.9V126.58C137 128.469 138.471 130 140.286 130H156.714C158.529 130 160 128.469 160 126.58V112.9C160 111.012 158.529 109.48 156.715 109.48ZM150.564 120.487V124.321H146.483V120.487C145.913 119.924 145.556 119.13 145.556 118.248C145.556 116.542 146.885 115.159 148.524 115.159C150.163 115.159 151.491 116.542 151.491 118.248C151.491 119.13 151.134 119.924 150.564 120.487ZM144.194 109.48V107.343C144.194 104.872 146.126 102.861 148.5 102.861C150.874 102.861 152.806 104.872 152.806 107.343V109.48H144.194Z" fill="#FFCC80"/>
</svg>
