<svg width="36" height="36" viewBox="0 0 36 36" fill="none" xmlns="http://www.w3.org/2000/svg">
<path d="M36 18C36 27.941 27.941 36 18 36C8.06 36 0 27.941 0 18C0 8.06 8.06 0 18 0C27.941 0 36 8.06 36 18Z" fill="#FFCC80"/>
<path d="M11.5 19.9999C12.8807 19.9999 14 18.4328 14 16.4999C14 14.5669 12.8807 12.9999 11.5 12.9999C10.1193 12.9999 9 14.5669 9 16.4999C9 18.4328 10.1193 19.9999 11.5 19.9999Z" fill="#3C4852"/>
<path d="M28.457 17.7968C28.397 17.6618 26.9579 14.4999 23.9999 14.4999C21.0429 14.4999 19.6029 17.6618 19.5429 17.7968C19.451 18.0038 19.511 18.2459 19.688 18.3878C19.8629 18.5299 20.114 18.5348 20.2979 18.4019C20.3099 18.3929 21.56 17.4998 23.9999 17.4998C26.426 17.4998 27.674 18.3809 27.7019 18.4009C27.7899 18.4669 27.896 18.4999 27.9999 18.4999C28.1099 18.4999 28.2209 18.4628 28.3119 18.3908C28.4889 18.2489 28.55 18.0049 28.457 17.7968ZM5.99895 12.4579C5.79094 12.4579 5.57995 12.3929 5.39995 12.2579C4.95795 11.9269 4.86895 11.2999 5.19994 10.8579C8.46195 6.50788 12.816 6.45789 12.9999 6.45789C13.5519 6.45789 13.9999 6.90588 13.9999 7.45788C13.9999 8.00889 13.5549 8.45589 13.0039 8.45788C12.8479 8.45988 9.43495 8.54387 6.79894 12.0579C6.60394 12.3199 6.30295 12.4579 5.99895 12.4579ZM29.0009 14.5829C28.6959 14.5829 28.397 14.4449 28.1999 14.1829C25.6079 10.7259 21.239 11.5559 21.1959 11.5629C20.6489 11.6709 20.1279 11.3199 20.0189 10.7789C19.9109 10.2369 20.2619 9.71088 20.8029 9.60189C21.0339 9.55488 26.4599 8.52988 29.7989 12.9819C30.131 13.4239 30.041 14.0509 29.5989 14.3819C29.42 14.5189 29.21 14.5829 29.0009 14.5829ZM23.2539 23.5769C23.066 23.4668 22.8219 23.4899 22.6569 23.6369C22.6469 23.6449 21.644 24.4999 17.9999 24.4999C14.3589 24.4999 13.3539 23.6459 13.3539 23.6459C13.1949 23.4859 12.9499 23.4559 12.7539 23.5639C12.5589 23.6749 12.4609 23.9029 12.516 24.1208C12.5259 24.1649 13.6599 28.4999 17.9999 28.4999C22.34 28.4999 23.474 24.1649 23.4849 24.1208C23.5379 23.9078 23.441 23.6899 23.2539 23.5769Z" fill="#3C4852"/>
</svg>
