<svg width="26" height="26" viewBox="0 0 26 26" fill="none" xmlns="http://www.w3.org/2000/svg">
<path d="M12.9539 25.9999C16.4127 25.9999 19.6704 24.6684 22.1274 22.2502C24.5911 19.8253 25.9661 16.5854 25.9994 13.1274C26.033 9.61668 24.6983 6.31686 22.241 3.83569C19.7911 1.36219 16.5093 0 13 0C9.51577 0 6.23879 1.37125 3.7728 3.86113C1.30843 6.34926 -0.0310594 9.63741 0.000562161 13.1204L0 24.5945C0 25.1515 0.328934 25.6559 0.838603 25.8806C1.02074 25.9609 1.21363 25.9999 1.40519 25.9999C1.74959 25.9999 2.08948 25.8733 2.3537 25.6318C2.3537 25.6318 3.65953 24.2412 5.39646 24.2412C5.98793 24.2412 6.58248 24.3751 7.13431 24.6516C8.91953 25.5463 10.8736 25.9999 12.9411 25.9999H12.9539ZM5.39794 21.4295C4.51331 21.4295 3.63346 21.6047 2.81101 21.9463C2.81101 21.9463 2.81144 13.1048 2.81137 13.1003C2.78516 10.3705 3.83583 7.79176 5.76995 5.8391C7.70399 3.88629 10.2717 2.8108 13 2.8108C15.7534 2.8108 18.326 3.87722 20.2438 5.81366C22.1693 7.75775 23.2151 10.3455 23.1886 13.1004C23.1352 18.6646 18.5347 23.1896 12.9423 23.1891C11.3148 23.1891 9.78427 22.8358 8.39362 22.1388C7.44139 21.6615 6.41636 21.4295 5.39794 21.4295Z" fill="#FFCC80"/>
<path d="M20.2378 13.0701C20.2378 14.0403 19.4512 14.8269 18.481 14.8269C17.5108 14.8269 16.7243 14.0403 16.7243 13.0701C16.7243 12.0999 17.5108 11.3134 18.481 11.3134C19.4513 11.3134 20.2378 12.0999 20.2378 13.0701ZM14.6864 13.0701C14.6864 14.0403 13.8999 14.8269 12.9297 14.8269C11.9595 14.8269 11.1729 14.0403 11.1729 13.0701C11.1729 12.0999 11.9595 11.3134 12.9297 11.3134C13.9 11.3134 14.6864 12.0999 14.6864 13.0701ZM9.13509 13.0701C9.13509 14.0403 8.34855 14.8269 7.37833 14.8269C6.40812 14.8269 5.62158 14.0403 5.62158 13.0701C5.62158 12.0999 6.40812 11.3134 7.37833 11.3134C8.34862 11.3134 9.13509 12.0999 9.13509 13.0701Z" fill="#FFCC80"/>
</svg>
