<svg width="247" height="247" viewBox="0 0 247 247" fill="none" xmlns="http://www.w3.org/2000/svg">
<circle cx="123.5" cy="123.5" r="123.5" fill="#F8F8F8"/>
<g clip-path="url(#clip0_22_147)">
<path d="M161.466 139.976C163.704 133.39 164.84 126.519 164.84 119.529V95.9566C164.84 94.9892 164.145 94.1614 163.192 93.9943L163.062 93.9715C148.333 91.3889 134.401 86.1144 121.655 78.294C121.015 77.901 120.207 77.902 119.568 78.2962C106.91 86.0996 93.0663 91.3584 78.4203 93.9265L78.0347 93.9941C77.0818 94.1612 76.3867 94.989 76.3867 95.9566V119.529C76.3867 132.981 80.55 145.857 88.4265 156.763C96.303 167.669 107.216 175.669 119.987 179.899C120.19 179.966 120.402 180 120.613 180C120.825 180 121.037 179.966 121.241 179.898L121.267 179.89C125.955 178.335 130.443 176.24 134.631 173.658C138.555 177.575 143.968 180 149.937 180C161.889 180 171.613 170.276 171.613 158.324C171.613 150.605 167.557 143.817 161.466 139.976ZM120.613 175.905C96.5138 167.631 80.3711 145.059 80.3711 119.529V97.623C94.6499 94.9654 108.177 89.8232 120.616 82.3238C133.065 89.7945 146.591 94.9356 160.855 97.62V119.529C160.855 125.89 159.85 132.144 157.873 138.151C156.163 137.477 154.347 137.015 152.458 136.795C154.329 131.241 155.277 125.446 155.277 119.529V103.744C155.277 102.822 154.644 102.021 153.747 101.807C142.517 99.1271 131.698 94.9278 121.59 89.325C120.988 88.9913 120.256 88.9921 119.655 89.3266C109.548 94.9507 98.7237 99.154 87.4816 101.819C86.5833 102.032 85.949 102.835 85.949 103.758V119.529C85.949 130.409 89.166 140.903 95.2523 149.875C101.316 158.814 109.83 165.663 119.873 169.681C120.11 169.776 120.361 169.824 120.613 169.824C120.864 169.824 121.115 169.776 121.353 169.681C124.184 168.548 126.918 167.173 129.513 165.584C130.146 167.361 131.006 169.032 132.056 170.562C128.45 172.738 124.612 174.532 120.613 175.905ZM128.261 158.324C128.261 159.409 128.342 160.476 128.497 161.519C126.004 163.133 123.36 164.529 120.613 165.679C101.948 157.87 89.9336 139.843 89.9336 119.529V105.323C100.626 102.65 110.939 98.6243 120.626 93.3408C130.31 98.6028 140.615 102.624 151.293 105.307V119.529C151.293 125.434 150.275 131.208 148.266 136.711C137.091 137.567 128.261 146.933 128.261 158.324ZM149.937 176.016C140.182 176.016 132.245 168.079 132.245 158.324C132.245 148.568 140.182 140.632 149.937 140.632C159.692 140.632 167.629 148.568 167.629 158.324C167.629 168.079 159.692 176.016 149.937 176.016Z" fill="#3C4852"/>
<path d="M147.863 157.556L143.709 153.402L138.79 158.321L147.863 167.393L161.084 154.172L156.165 149.254L147.863 157.556Z" fill="#FFCC80"/>
</g>
<defs>
<clipPath id="clip0_22_147">
<rect width="102" height="102" fill="white" transform="translate(73 78)"/>
</clipPath>
</defs>
</svg>
