<svg width="23" height="23" viewBox="0 0 23 23" fill="none" xmlns="http://www.w3.org/2000/svg">
<path d="M11.5 23C8.42824 23 5.54035 21.8038 3.36824 19.6318C1.19622 17.4597 0 14.5718 0 11.5C0 8.42824 1.19622 5.54035 3.36824 3.36824C5.54035 1.19622 8.42824 0 11.5 0C14.5718 0 17.4597 1.19622 19.6318 3.36824C21.8038 5.54035 23 8.42824 23 11.5C23 14.5718 21.8038 17.4597 19.6318 19.6318C17.4597 21.8038 14.5718 23 11.5 23ZM11.5 1.79688C6.14967 1.79688 1.79688 6.14967 1.79688 11.5C1.79688 16.8503 6.14967 21.2031 11.5 21.2031C16.8503 21.2031 21.2031 16.8503 21.2031 11.5C21.2031 6.14967 16.8503 1.79688 11.5 1.79688ZM11.4551 12.3535C9.07714 12.3535 7.14258 10.419 7.14258 8.04102C7.14258 5.66308 9.07714 3.72852 11.4551 3.72852C13.833 3.72852 15.7676 5.66308 15.7676 8.04102C15.7676 10.419 13.833 12.3535 11.4551 12.3535ZM11.4551 5.52539C10.0679 5.52539 8.93945 6.65392 8.93945 8.04102C8.93945 9.42811 10.0679 10.5566 11.4551 10.5566C12.8422 10.5566 13.9707 9.42811 13.9707 8.04102C13.9707 6.65392 12.8422 5.52539 11.4551 5.52539Z" fill="#3C4852"/>
<path d="M16.5783 17.7891C16.3183 17.7891 16.0604 17.6768 15.8827 17.4599C14.955 16.3273 13.5845 15.6777 12.1227 15.6777H11.0567C9.59485 15.6777 8.22437 16.3273 7.29669 17.4599C6.98228 17.8437 6.41618 17.9001 6.03232 17.5856C5.64842 17.2712 5.59213 16.7052 5.90654 16.3213C7.17697 14.7704 9.05412 13.8809 11.0567 13.8809H12.1227C14.1253 13.8809 16.0024 14.7704 17.2728 16.3213C17.5872 16.7052 17.5309 17.2712 17.147 17.5857C16.9801 17.7224 16.7786 17.7891 16.5783 17.7891Z" fill="#3C4852"/>
</svg>
