<svg width="54" height="54" viewBox="0 0 54 54" fill="none" xmlns="http://www.w3.org/2000/svg">
<path d="M48.7636 52.9791H5.46295C3.74108 52.9791 2.27295 51.7375 1.99202 50.0383L0.723267 42.8608H53.5033L52.2345 50.0383C51.9491 51.733 50.4809 52.9791 48.7636 52.9791Z" fill="#161D21"/>
<path d="M49.8783 46.1278H4.34827C2.34545 46.1278 0.723267 44.5056 0.723267 42.5028V4.01437C0.723267 2.01156 2.34545 0.389374 4.34827 0.389374H49.8783C51.8811 0.389374 53.5033 2.01156 53.5033 4.01437V42.5073C53.5033 44.5056 51.8811 46.1278 49.8783 46.1278Z" fill="url(#paint0_linear_3:30)"/>
<path d="M16.8998 22.2481H6.91748C5.41764 22.2481 4.19873 21.0292 4.19873 19.5294V5.50516C4.19873 4.00531 5.41764 2.78641 6.91748 2.78641H16.8998C18.3997 2.78641 19.6186 4.00531 19.6186 5.50516V19.5294C19.6186 21.0292 18.3997 22.2481 16.8998 22.2481Z" fill="#E53A35"/>
<g opacity="0.2">
<path opacity="0.2" d="M49.7333 1.92999C51.0337 1.92999 52.0895 2.98577 52.0895 4.28624V42.4892C52.0895 42.5753 52.0805 42.675 52.0669 42.8064C52.0533 42.8925 52.0533 42.9831 52.0578 43.0692L50.8434 49.9386C50.6758 50.9581 49.8012 51.6967 48.7681 51.6967H5.46295C4.42983 51.6967 3.5553 50.9581 3.38311 49.925L2.16874 43.0692C2.17327 42.9831 2.16874 42.8925 2.15967 42.8064C2.14155 42.6795 2.13702 42.5798 2.13702 42.4892V4.28624C2.13702 2.98577 3.1928 1.92999 4.49327 1.92999H49.7333V1.92999ZM49.7333 0.516235H4.49327C2.41342 0.516235 0.723267 2.20186 0.723267 4.28624V42.4892C0.723267 42.6614 0.73686 42.8245 0.759517 42.9922H0.723267L1.99202 50.1697C2.27295 51.8644 3.74108 53.1105 5.46295 53.1105H48.7636C50.4855 53.1105 51.9536 51.8689 52.2345 50.1697L53.5033 42.9922H53.467C53.4897 42.829 53.5033 42.6614 53.5033 42.4892V4.28624C53.5033 2.20186 51.8131 0.516235 49.7333 0.516235Z" fill="#EEEEEE"/>
</g>
<path d="M4.07184 40.1919V29.2897C4.07184 27.7899 5.29074 26.571 6.79059 26.571H29.5239C31.0237 26.571 32.2426 27.7899 32.2426 29.2897V40.1874C32.2426 41.6872 31.0237 42.9061 29.5239 42.9061H6.79059C5.28621 42.9106 4.07184 41.6917 4.07184 40.1919Z" fill="#E53A35"/>
<path d="M35.8495 39.9517V29.5298C35.8495 28.03 37.0684 26.8111 38.5682 26.8111H47.309C48.8089 26.8111 50.0278 28.03 50.0278 29.5298V39.9517C50.0278 41.4516 48.8089 42.6705 47.309 42.6705H38.5682C37.0684 42.6705 35.8495 41.4561 35.8495 39.9517Z" fill="#E53A35"/>
<path d="M47.744 22.4792H25.4367C23.9369 22.4792 22.718 21.2603 22.718 19.7605V5.50516C22.718 4.00531 23.9369 2.78641 25.4367 2.78641H47.744C49.2439 2.78641 50.4628 4.00531 50.4628 5.50516V19.765C50.4628 21.2648 49.2439 22.4792 47.744 22.4792Z" fill="#E53A35"/>
<path d="M42.1253 28.1569H41.6948V28.601H42.1253V28.1569Z" fill="#A16541"/>
<path d="M33.7832 44.8409H2.04181L2.45868 36.798C2.84837 31.732 7.17118 27.6131 12.2145 26.9833C13.814 26.7839 15.699 26.6616 17.9148 26.6616C20.1306 26.6616 22.0156 26.7839 23.6151 26.9833C28.6538 27.6131 32.9812 31.732 33.3709 36.798L33.7832 44.8409Z" fill="url(#paint1_radial_3:30)"/>
<path d="M32.7954 45.1944C33.8715 45.1944 34.7439 44.322 34.7439 43.2459C34.7439 42.1698 33.8715 41.2975 32.7954 41.2975C31.7193 41.2975 30.847 42.1698 30.847 43.2459C30.847 44.322 31.7193 45.1944 32.7954 45.1944Z" fill="url(#paint2_radial_3:30)"/>
<path d="M33.3709 38.2797C33.8829 37.9263 34.2182 37.3417 34.2182 36.6711C34.2182 36.082 33.9554 35.5564 33.5385 35.1984C33.2395 34.9447 33.1307 34.5323 33.1987 34.1472C33.2168 34.0384 33.2259 33.9297 33.2259 33.8164C33.2259 32.738 32.3514 31.868 31.2775 31.868C31.2684 31.868 31.2639 31.868 31.2548 31.8725C31.2729 31.7592 31.291 31.6459 31.291 31.5281C31.291 30.4497 30.4165 29.5797 29.3426 29.5797C29.3426 28.5013 28.4681 27.6313 27.3942 27.6313C27.3126 27.6313 27.2356 27.6358 27.1585 27.6448C26.7734 27.6947 26.4064 27.4998 26.1617 27.2008C25.8082 26.7658 25.269 26.4848 24.6618 26.4848C24.3854 26.4848 24.1271 26.5438 23.8915 26.648C23.6015 26.7794 23.2481 26.725 23.0125 26.512C22.6681 26.2039 22.2195 26.0136 21.7165 26.0136C21.3812 26.0136 21.0685 26.0997 20.7967 26.2492C20.5112 26.4078 20.1396 26.3716 19.9085 26.1405C19.5596 25.7916 19.0793 25.5741 18.5446 25.5741C18.1504 25.5741 17.7879 25.6919 17.4798 25.8958C17.1853 26.0906 16.8182 26.0906 16.5237 25.8958C16.2201 25.6919 15.8531 25.5741 15.4589 25.5741C14.8879 25.5741 14.3759 25.8188 14.0225 26.2084C13.7778 26.4803 13.379 26.5619 13.0301 26.4531C12.8534 26.3988 12.6631 26.367 12.4637 26.367C12.0151 26.367 11.6028 26.5211 11.2765 26.7748C10.9231 27.0513 10.4835 27.2008 10.044 27.1056C9.91714 27.0784 9.78121 27.0648 9.64527 27.0648C8.69371 27.0648 7.90527 27.7445 7.73308 28.6463C7.65152 28.6372 7.56996 28.6236 7.48839 28.6236C6.47339 28.6236 5.65324 29.3984 5.55808 30.3863C5.55355 30.3863 5.54449 30.3863 5.53996 30.3863C4.46152 30.3863 3.59152 31.2608 3.59152 32.3347C3.59152 32.3528 3.59152 32.3664 3.59152 32.3845C3.60058 32.738 3.42839 33.0597 3.13386 33.2545C2.60824 33.6034 2.25933 34.197 2.25933 34.8722C2.25933 35.2573 2.37714 35.6153 2.56746 35.9189C2.24121 36.2678 2.0373 36.7345 2.0373 37.2511C2.0373 37.822 2.28652 38.3341 2.68074 38.692C2.28652 39.05 2.03277 39.562 2.03277 40.1375C2.03277 40.7764 2.34543 41.3383 2.82121 41.6963C2.25933 42.1177 1.92402 42.8291 2.06449 43.613C2.20043 44.3742 2.80308 44.9995 3.56433 45.1581C4.82402 45.4209 5.92964 44.4648 5.92964 43.2505C5.92964 42.6116 5.61699 42.0497 5.14121 41.6917C5.61699 41.3383 5.92964 40.7719 5.92964 40.133C5.92964 39.562 5.68042 39.05 5.28621 38.692C5.68042 38.3341 5.93417 37.822 5.93417 37.2466C5.93417 36.8614 5.81636 36.5034 5.62605 36.1998C5.9523 35.8509 6.15621 35.3842 6.15621 34.8677C6.15621 34.6366 6.11089 34.4145 6.03386 34.2106C6.80871 34.0067 7.38871 33.3406 7.47027 32.5205C7.4748 32.5205 7.48386 32.5205 7.48839 32.5205C8.43996 32.5205 9.22839 31.8408 9.40058 30.9391C9.48214 30.9481 9.56371 30.9617 9.64527 30.9617C10.3929 30.9617 11.0364 30.5358 11.3626 29.9195C11.6753 30.137 12.0559 30.2639 12.4637 30.2639C13.2793 30.2639 13.9726 29.7655 14.2671 29.0541C14.5979 29.3123 15.0103 29.4709 15.4589 29.4709C16.0887 29.4709 16.646 29.1673 16.9995 28.7006C17.3575 29.1628 17.9103 29.4709 18.5401 29.4709C19.111 29.4709 19.6185 29.2217 19.9765 28.832C20.2982 29.4709 20.9507 29.9105 21.712 29.9105C22.2014 29.9105 22.6454 29.7247 22.9853 29.4256C23.3251 29.9966 23.9414 30.3863 24.6573 30.3863C24.9745 30.3863 25.2735 30.3047 25.5364 30.1688C25.7856 30.9572 26.5151 31.5327 27.3851 31.5327C27.3851 32.6111 28.2596 33.4811 29.3335 33.4811C29.3426 33.4811 29.3471 33.4811 29.3562 33.4766C29.3381 33.5898 29.32 33.7031 29.32 33.8209C29.32 34.6638 29.8592 35.3752 30.6068 35.647C30.421 35.9461 30.3078 36.295 30.3078 36.6711C30.3078 37.5456 30.8878 38.2752 31.6762 38.5244C31.0781 38.9322 30.7201 39.6663 30.856 40.4728C30.9875 41.2431 31.5946 41.8775 32.3559 42.0361C33.6156 42.2989 34.7257 41.3428 34.7257 40.133C34.7439 39.2584 34.1639 38.5289 33.3709 38.2797Z" fill="url(#paint3_radial_3:30)"/>
<path d="M17.6384 32.8241C18.9347 32.8241 19.9856 31.9639 19.9856 30.9028C19.9856 29.8417 18.9347 28.9816 17.6384 28.9816C16.3421 28.9816 15.2912 29.8417 15.2912 30.9028C15.2912 31.9639 16.3421 32.8241 17.6384 32.8241Z" fill="#B0BEC5"/>
<path d="M17.6384 32.0175C18.9347 32.0175 19.9856 31.1573 19.9856 30.0963C19.9856 29.0352 18.9347 28.175 17.6384 28.175C16.3421 28.175 15.2912 29.0352 15.2912 30.0963C15.2912 31.1573 16.3421 32.0175 17.6384 32.0175Z" fill="url(#paint4_radial_3:30)"/>
<path opacity="0.2" d="M9.32038 38.7839C9.37875 38.4182 8.82106 38.0251 8.07474 37.906C7.32842 37.7869 6.67609 37.9868 6.61771 38.3526C6.55934 38.7183 7.11703 39.1114 7.86335 39.2305C8.60968 39.3496 9.26201 39.1497 9.32038 38.7839Z" fill="#B0BEC5"/>
<path opacity="0.2" d="M12.272 41.1591C12.3303 40.7934 11.9049 40.4214 11.3216 40.3284C10.7384 40.2353 10.2183 40.4563 10.16 40.8221C10.1016 41.1878 10.5271 41.5598 11.1103 41.6528C11.6935 41.7459 12.2136 41.5249 12.272 41.1591Z" fill="#B0BEC5"/>
<path opacity="0.2" d="M5.03071 37.5068C5.66525 37.0963 6.01655 36.5114 5.81536 36.2004C5.61417 35.8895 4.93668 35.9702 4.30214 36.3807C3.6676 36.7913 3.31629 37.3761 3.51748 37.6871C3.71867 37.9981 4.39616 37.9174 5.03071 37.5068Z" fill="#B0BEC5"/>
<path opacity="0.2" d="M5.63489 41.4915C5.79689 41.1584 5.46847 40.6648 4.90133 40.3889C4.3342 40.1131 3.74311 40.1595 3.58111 40.4926C3.41911 40.8257 3.74754 41.3193 4.31467 41.5951C4.88181 41.871 5.47289 41.8246 5.63489 41.4915Z" fill="#90A4AE"/>
<path opacity="0.2" d="M8.30494 43.3515C8.85057 43.0353 9.14231 42.5191 8.95657 42.1987C8.77082 41.8782 8.17793 41.8748 7.6323 42.1911C7.08667 42.5073 6.79492 43.0235 6.98067 43.344C7.16641 43.6644 7.75931 43.6678 8.30494 43.3515Z" fill="#90A4AE"/>
<path opacity="0.2" d="M30.885 39.9245C31.6314 39.8054 32.189 39.4123 32.1307 39.0466C32.0723 38.6808 31.42 38.4809 30.6737 38.6C29.9273 38.7191 29.3696 39.1122 29.428 39.4779C29.4864 39.8437 30.1387 40.0436 30.885 39.9245Z" fill="#B0BEC5"/>
<path opacity="0.2" d="M25.4297 41.6688C26.176 41.5496 26.7337 41.1566 26.6754 40.7908C26.617 40.4251 25.9647 40.2252 25.2183 40.3443C24.472 40.4634 23.9143 40.8564 23.9727 41.2222C24.0311 41.5879 24.6834 41.7879 25.4297 41.6688Z" fill="#B0BEC5"/>
<path opacity="0.2" d="M32.318 36.283C32.5192 35.972 32.1679 35.3871 31.5334 34.9766C30.8989 34.5661 30.2214 34.4854 30.0202 34.7963C29.819 35.1073 30.1703 35.6922 30.8048 36.1027C31.4394 36.5132 32.1169 36.594 32.318 36.283Z" fill="#B0BEC5"/>
<path opacity="0.2" d="M30.4164 43.3475C30.6021 43.0271 30.3104 42.5109 29.7648 42.1947C29.2191 41.8784 28.6262 41.8818 28.4405 42.2022C28.2548 42.5227 28.5465 43.0389 29.0921 43.3551C29.6378 43.6714 30.2307 43.668 30.4164 43.3475Z" fill="#90A4AE"/>
<path opacity="0.2" d="M16.6829 43.0085C16.7597 42.6462 16.3219 42.2464 15.705 42.1156C15.0882 41.9847 14.5258 42.1723 14.4489 42.5346C14.3721 42.8969 14.8098 43.2967 15.4267 43.4276C16.0436 43.5584 16.606 43.3708 16.6829 43.0085Z" fill="#B0BEC5"/>
<path opacity="0.2" d="M18.7909 40.6732C19.6329 40.6274 20.2993 40.2906 20.2792 39.9208C20.2592 39.551 19.5602 39.2882 18.7182 39.3339C17.8761 39.3796 17.2097 39.7165 17.2298 40.0863C17.2498 40.4561 17.9488 40.7189 18.7909 40.6732Z" fill="#B0BEC5"/>
<path opacity="0.2" d="M15.627 39.6512C16.205 39.399 16.5534 38.9193 16.4052 38.5798C16.2571 38.2404 15.6685 38.1697 15.0905 38.422C14.5125 38.6742 14.164 39.1539 14.3122 39.4933C14.4603 39.8328 15.049 39.9035 15.627 39.6512Z" fill="#B0BEC5"/>
<path opacity="0.2" d="M13.0457 37.6662C13.1827 37.3221 12.8188 36.854 12.2328 36.6208C11.6469 36.3875 11.0608 36.4774 10.9238 36.8215C10.7868 37.1656 11.1508 37.6337 11.7367 37.8669C12.3226 38.1002 12.9087 38.0103 13.0457 37.6662Z" fill="#B0BEC5"/>
<path opacity="0.2" d="M10.1944 34.9277C10.3053 34.3069 10.0997 33.7508 9.73509 33.6856C9.3705 33.6205 8.985 34.0709 8.87407 34.6917C8.76314 35.3125 8.96878 35.8686 9.33338 35.9338C9.69798 35.9989 10.0835 35.5485 10.1944 34.9277Z" fill="#D0D8DC"/>
<path opacity="0.2" d="M17.0882 35.8816C17.144 35.5155 16.6839 35.1416 16.0604 35.0465C15.437 34.9514 14.8863 35.1711 14.8304 35.5372C14.7746 35.9034 15.2347 36.2773 15.8582 36.3724C16.4816 36.4675 17.0323 36.2478 17.0882 35.8816Z" fill="#D0D8DC"/>
<path opacity="0.2" d="M27.7412 34.531C28.2797 34.2028 28.5599 33.6804 28.3672 33.3641C28.1745 33.0478 27.5817 33.0575 27.0432 33.3857C26.5047 33.7139 26.2244 34.2363 26.4171 34.5526C26.6099 34.8688 27.2026 34.8592 27.7412 34.531Z" fill="#B0BEC5"/>
<path opacity="0.2" d="M7.1022 33.9772C7.2392 33.6331 6.87527 33.165 6.28934 32.9317C5.70341 32.6985 5.11737 32.7883 4.98036 33.1324C4.84336 33.4766 5.20729 33.9446 5.79321 34.1779C6.37914 34.4112 6.96519 34.3213 7.1022 33.9772Z" fill="#B0BEC5"/>
<path opacity="0.2" d="M21.948 43.3653C22.5084 43.0761 22.8251 42.5749 22.6553 42.2457C22.4855 41.9166 21.8935 41.8841 21.333 42.1733C20.7726 42.4624 20.4559 42.9637 20.6257 43.2928C20.7955 43.622 21.3875 43.6544 21.948 43.3653Z" fill="#90A4AE"/>
<path opacity="0.2" d="M22.5629 35.9009C23.2823 35.6694 23.7735 35.1959 23.6601 34.8433C23.5466 34.4908 22.8715 34.3926 22.152 34.6241C21.4326 34.8556 20.9414 35.3291 21.0548 35.6816C21.1683 36.0342 21.8435 36.1323 22.5629 35.9009Z" fill="#D0D8DC"/>
<path opacity="0.2" d="M27.5618 30.8715C27.7375 30.5454 27.3406 29.9905 26.6753 29.6319C26.01 29.2734 25.3283 29.2471 25.1526 29.5731C24.9769 29.8991 25.3737 30.4541 26.039 30.8126C26.7043 31.1712 27.3861 31.1975 27.5618 30.8715Z" fill="#D0D8DC"/>
<path opacity="0.2" d="M8.64558 31.4208C9.08168 31.1187 9.26422 30.6269 9.05329 30.3225C8.84236 30.018 8.31784 30.0162 7.88174 30.3183C7.44563 30.6205 7.26309 31.1122 7.47402 31.4166C7.68495 31.7211 8.20948 31.723 8.64558 31.4208Z" fill="#D0D8DC"/>
<path opacity="0.2" d="M12.9961 34.5081C13.4322 34.206 13.6147 33.7142 13.4038 33.4098C13.1929 33.1053 12.6684 33.1034 12.2323 33.4056C11.7962 33.7077 11.6136 34.1995 11.8245 34.5039C12.0355 34.8084 12.56 34.8102 12.9961 34.5081Z" fill="#D0D8DC"/>
<path opacity="0.2" d="M24.0605 32.5678C24.4966 32.2656 24.6791 31.7739 24.4682 31.4694C24.2573 31.165 23.7328 31.1631 23.2967 31.4653C22.8606 31.7674 22.678 32.2591 22.8889 32.5636C23.0999 32.868 23.6244 32.8699 24.0605 32.5678Z" fill="#D0D8DC"/>
<path opacity="0.2" d="M23.2503 28.5279C23.387 28.1837 23.0982 27.7459 22.6052 27.55C22.1122 27.3541 21.6016 27.4744 21.4649 27.8186C21.3281 28.1628 21.617 28.6006 22.11 28.7964C22.603 28.9923 23.1136 28.8721 23.2503 28.5279Z" fill="#D0D8DC"/>
<path opacity="0.2" d="M11.8107 30.9723C12.314 30.8044 12.627 30.3835 12.5097 30.0321C12.3925 29.6808 11.8895 29.5321 11.3862 29.7C10.883 29.8679 10.57 30.2889 10.6872 30.6402C10.8045 30.9916 11.3075 31.1402 11.8107 30.9723Z" fill="#D0D8DC"/>
<path opacity="0.2" d="M14.5406 27.7866C14.5787 27.4182 14.1818 27.0753 13.6541 27.0206C13.1264 26.966 12.6676 27.2203 12.6295 27.5888C12.5914 27.9572 12.9882 28.3001 13.516 28.3548C14.0437 28.4094 14.5024 28.1551 14.5406 27.7866Z" fill="#D0D8DC"/>
<path opacity="0.2" d="M27.3196 38.008C28.0383 37.7743 28.5282 37.2993 28.4136 36.9471C28.2991 36.5949 27.6236 36.4988 26.9049 36.7325C26.1862 36.9661 25.6964 37.4411 25.8109 37.7933C25.9254 38.1456 26.6009 38.2417 27.3196 38.008Z" fill="#B0BEC5"/>
<path opacity="0.2" d="M23.9292 39.2707C24.101 38.9426 23.6976 38.3923 23.0282 38.0417C22.3587 37.691 21.6767 37.6727 21.5048 38.0007C21.333 38.3288 21.7364 38.8791 22.4058 39.2297C23.0753 39.5804 23.7573 39.5987 23.9292 39.2707Z" fill="#B0BEC5"/>
<path opacity="0.1" d="M14.7958 31.6235C15.5145 31.3898 16.0044 30.9149 15.8898 30.5626C15.7753 30.2104 15.0998 30.1143 14.3811 30.348C13.6624 30.5817 13.1725 31.0567 13.2871 31.4089C13.4016 31.7611 14.0771 31.8572 14.7958 31.6235Z" fill="#D0D8DC"/>
<path d="M18.6687 7.27233C19.0447 8.23749 19.0447 10.2992 19.0447 10.2992C19.0447 10.2992 15.2929 11.2825 11.8083 11.2825C8.39178 11.2825 4.59912 10.2992 4.59912 10.2992C4.59912 10.2992 4.59912 8.33718 4.94803 7.27233C5.64584 5.15171 7.81178 3.26218 11.8083 3.26218C15.8049 3.26218 17.853 5.18343 18.6687 7.27233Z" fill="url(#paint5_radial_3:30)"/>
<path d="M19.0431 10.0001C19.0431 12.2159 17.2306 13.7112 11.8067 13.7112C6.38281 13.7112 4.57031 12.2159 4.57031 10.0001C4.57031 7.78437 7.81016 5.98999 11.8067 5.98999C15.8033 5.98999 19.0431 7.78437 19.0431 10.0001Z" fill="url(#paint6_linear_3:30)"/>
<path d="M17.1536 9.07578L18.0417 8.73141L17.7109 7.78891L16.9905 8.8311L17.1536 9.07578Z" fill="#568B3E"/>
<path d="M16.3289 8.91718L16.424 8.11062L15.989 7.69827L15.8123 8.93077L16.3289 8.91718Z" fill="#568B3E"/>
<path d="M11.5937 8.30095L11.6934 7.48986L11.2584 7.07751L11.2448 7.6983L11.2358 8.31454L11.5937 8.30095Z" fill="#568B3E"/>
<path d="M10.1754 8.21032L10.5108 8.31454L10.5833 7.54876L10.0894 7.36298L10.1754 8.21032Z" fill="#568B3E"/>
<path d="M7.66969 8.56374L7.8011 7.91577L6.98547 7.69827L7.10329 8.84015L7.66969 8.56374Z" fill="#568B3E"/>
<path d="M16.8183 7.38109C16.3062 7.01859 15.8984 7.54875 16.0026 7.8025C16.0661 7.96109 16.2156 8.06078 16.1703 8.24656C16.125 8.43234 15.9755 8.45953 15.7081 8.44141C15.409 8.42328 15.2459 8.19219 15.2051 7.98828C15.0239 7.0775 14.462 6.87813 14.0406 7.08656C13.6962 7.25875 14.0769 7.585 13.7642 7.71188C13.4017 7.85688 13.1933 7.77078 13.0211 7.56688C12.8897 7.41281 13.0619 7.15453 12.8036 6.83734C12.3776 6.30719 11.3445 6.62891 11.2403 6.99594C11.1361 7.36297 11.4805 7.38109 11.494 7.69828C11.5076 8.01547 10.905 8.18766 10.6014 8.06078C9.97608 7.8025 10.6331 7.82969 10.5787 7.42641C10.5017 6.87359 9.71326 7.04578 9.53201 7.15453C9.0517 7.44 9.22842 7.68469 9.11061 7.86141C8.82967 8.26922 8.40826 8.04719 8.19076 7.92031C7.97326 7.79344 7.92795 7.25422 7.25733 7.45813C6.79967 7.59859 6.98998 7.92484 7.17576 8.12875C7.26186 8.22391 7.23014 8.37344 7.11233 8.42781C6.6728 8.62266 6.33295 8.32813 6.0928 8.19219C5.80733 8.03359 5.38592 8.05625 5.18655 8.26922C4.95092 8.5275 5.68498 8.6725 5.39498 8.93078C5.15483 9.14375 4.83311 8.8175 4.76967 8.72687C4.39811 8.22844 3.78186 9.30234 4.2803 9.42016C4.7742 9.53797 4.67905 9.9775 4.58842 10.127C4.40717 10.4306 4.05826 9.70563 4.17155 10.9381C4.24858 11.8036 4.86936 12.2658 5.32248 12.5694C5.92514 12.9772 17.0539 13.5708 18.5945 12.6373C18.9797 12.4017 20.04 10.9155 19.7636 10.3717C19.3512 9.57422 19.2969 10.5938 19.034 10.2947C18.4631 9.64219 19.3376 9.57422 19.1926 9.18453C19.0386 8.76312 18.9072 9.11203 18.7531 8.95344C18.5311 8.72234 18.6172 8.58641 18.7259 8.42781C18.8392 8.26016 18.2456 7.72094 17.8514 7.72094C17.4617 7.72094 17.9239 8.19672 17.6747 8.32359C17.4255 8.45047 17.2623 8.33719 16.995 8.07891C16.7276 7.83422 17.1219 7.59406 16.8183 7.38109Z" fill="url(#paint7_linear_3:30)"/>
<path d="M18.6687 12.7189C19.0447 13.6841 19.0447 15.7458 19.0447 15.7458C19.0447 15.7458 15.2929 16.7291 11.8083 16.7291C8.39178 16.7291 4.59912 15.7458 4.59912 15.7458C4.59912 15.7458 4.59912 13.7837 4.94803 12.7189C5.64584 10.5983 7.81178 8.70874 11.8083 8.70874C15.8049 8.70874 17.853 10.63 18.6687 12.7189Z" fill="url(#paint8_radial_3:30)"/>
<path d="M19.0431 15.4467C19.0431 17.6625 17.2306 19.1578 11.8067 19.1578C6.38281 19.1578 4.57031 17.6625 4.57031 15.4467C4.57031 13.2309 7.81016 11.4366 11.8067 11.4366C15.8033 11.4366 19.0431 13.2309 19.0431 15.4467Z" fill="url(#paint9_linear_3:30)"/>
<path d="M9.63441 9.9714C10.0083 9.90163 10.2817 9.68554 10.245 9.48874C10.2082 9.29194 9.87536 9.18896 9.50144 9.25872C9.12752 9.32849 8.85417 9.54458 8.89088 9.74138C8.9276 9.93818 9.26049 10.0412 9.63441 9.9714Z" fill="#FDD836"/>
<path d="M11.6488 9.59541C12.0281 9.56646 12.3232 9.38117 12.308 9.18155C12.2927 8.98192 11.9729 8.84357 11.5936 8.87251C11.2143 8.90146 10.9192 9.08675 10.9344 9.28637C10.9497 9.486 11.2695 9.62436 11.6488 9.59541Z" fill="#FDD836"/>
<path d="M11.0508 10.2977C11.43 10.2687 11.7252 10.0834 11.7099 9.88379C11.6947 9.68416 11.3749 9.54581 10.9956 9.57475C10.6163 9.6037 10.3212 9.78899 10.3364 9.98862C10.3517 10.1882 10.6715 10.3266 11.0508 10.2977Z" fill="#F9BF2C"/>
<path d="M13.7564 10.0961C13.7614 9.89592 13.4573 9.72584 13.077 9.71617C12.6967 9.70651 12.3843 9.86093 12.3793 10.0611C12.3742 10.2612 12.6783 10.4313 13.0586 10.441C13.4389 10.4506 13.7513 10.2962 13.7564 10.0961Z" fill="#F9BF2C"/>
<path d="M11.9419 10.7656C12.3218 10.7464 12.6215 10.5688 12.6114 10.3688C12.6014 10.1689 12.2852 10.0223 11.9053 10.0415C11.5254 10.0607 11.2256 10.2383 11.2357 10.4383C11.2458 10.6382 11.562 10.7847 11.9419 10.7656Z" fill="#FDD836"/>
<path d="M14.4932 9.47156C14.5221 9.27346 14.2404 9.06834 13.864 9.01341C13.4876 8.95849 13.1591 9.07455 13.1302 9.27265C13.1013 9.47075 13.3829 9.67588 13.7593 9.7308C14.1357 9.78573 14.4643 9.66966 14.4932 9.47156Z" fill="#FDD836"/>
<path d="M8.65276 10.7332C8.99876 10.5752 9.21181 10.2994 9.12863 10.1173C9.04545 9.93523 8.69752 9.91573 8.35152 10.0738C8.00552 10.2318 7.79247 10.5076 7.87566 10.6897C7.95884 10.8718 8.30676 10.8913 8.65276 10.7332Z" fill="#F9BF2C"/>
<path d="M13.1299 11.2916C13.5102 11.2916 13.8186 11.1293 13.8186 10.9291C13.8186 10.7289 13.5102 10.5666 13.1299 10.5666C12.7495 10.5666 12.4411 10.7289 12.4411 10.9291C12.4411 11.1293 12.7495 11.2916 13.1299 11.2916Z" fill="#F9BF2C"/>
<path d="M15.1856 10.17C15.1977 9.97015 14.8997 9.78946 14.52 9.76641C14.1403 9.74336 13.8227 9.88668 13.8105 10.0865C13.7984 10.2864 14.0964 10.4671 14.4761 10.4901C14.8558 10.5132 15.1734 10.3698 15.1856 10.17Z" fill="#F9BF2C"/>
<path d="M8.34211 11.6353C8.70256 11.5138 8.94293 11.2615 8.87899 11.0718C8.81504 10.8821 8.471 10.8268 8.11055 10.9483C7.75009 11.0698 7.50972 11.322 7.57367 11.5117C7.63761 11.7015 7.98166 11.7568 8.34211 11.6353Z" fill="#F9A823"/>
<path d="M15.4895 11.0414C15.5218 10.8438 15.2436 10.6339 14.8681 10.5727C14.4927 10.5114 14.1622 10.622 14.13 10.8196C14.0977 11.0172 14.3759 11.227 14.7514 11.2883C15.1268 11.3495 15.4573 11.239 15.4895 11.0414Z" fill="#F9A823"/>
<path d="M17.0591 11.704C17.1373 11.5197 16.9168 11.2498 16.5667 11.1012C16.2165 10.9526 15.8692 10.9816 15.791 11.1659C15.7128 11.3502 15.9333 11.6201 16.2835 11.7687C16.6337 11.9172 16.9809 11.8883 17.0591 11.704Z" fill="#F9A823"/>
<path d="M16.5615 10.5043C16.6214 10.3133 16.3756 10.0662 16.0126 9.95254C15.6496 9.83884 15.3068 9.90155 15.247 10.0926C15.1871 10.2837 15.4329 10.5307 15.7959 10.6444C16.1589 10.7581 16.5017 10.6954 16.5615 10.5043Z" fill="#F9A823"/>
<path d="M7.40546 10.7154C7.73286 10.5217 7.91562 10.225 7.81368 10.0527C7.71174 9.88034 7.36369 9.89767 7.03629 10.0914C6.70889 10.2851 6.52612 10.5818 6.62807 10.7541C6.73001 10.9264 7.07806 10.9091 7.40546 10.7154Z" fill="#F9A823"/>
<path d="M6.95856 11.7811C7.28596 11.5874 7.46872 11.2907 7.36678 11.1184C7.26484 10.9461 6.91679 10.9634 6.58939 11.1571C6.26199 11.3508 6.07922 11.6475 6.18117 11.8198C6.28311 11.9921 6.63116 11.9748 6.95856 11.7811Z" fill="#F9A823"/>
<path d="M18.0009 14.7534L17.9058 13.9423L18.3408 14.0329L18.2275 15.1431L18.0009 14.7534Z" fill="#568B3E"/>
<path d="M6.34656 14.6764L5.45844 14.3275L5.78922 13.3895L6.50969 14.4317L6.34656 14.6764Z" fill="#568B3E"/>
<path d="M7.17127 14.5178L7.07611 13.7067L7.50658 13.2943L7.68783 14.5314L7.17127 14.5178Z" fill="#568B3E"/>
<path d="M11.9019 13.897L11.8068 13.0904L12.2418 12.6781L12.2508 13.2944L12.2599 13.9106L11.9019 13.897Z" fill="#568B3E"/>
<path d="M13.3202 13.8064L12.9894 13.9106L12.9169 13.1448L13.4108 12.959L13.3202 13.8064Z" fill="#568B3E"/>
<path d="M15.8305 14.1598L15.6946 13.5164L16.5102 13.2943L16.3969 14.4362L15.8305 14.1598Z" fill="#568B3E"/>
<path d="M6.67889 12.9772C7.19092 12.6147 7.59874 13.1448 7.49452 13.3986C7.43108 13.5572 7.28155 13.6568 7.32686 13.8426C7.37217 14.0239 7.52171 14.0556 7.78905 14.0375C8.08811 14.0193 8.25124 13.7883 8.29202 13.5843C8.47327 12.6736 9.03514 12.4742 9.45655 12.6826C9.80092 12.8548 9.4203 13.1811 9.73296 13.3079C10.0955 13.4529 10.3039 13.3668 10.4761 13.1629C10.6075 13.0089 10.4353 12.7506 10.6936 12.4334C11.1195 11.9033 12.1526 12.225 12.2569 12.592C12.3611 12.959 12.0167 12.9772 12.0031 13.2943C11.9895 13.6115 12.5922 13.7837 12.8958 13.6568C13.5211 13.3986 12.864 13.4258 12.9184 13.0225C12.9955 12.4697 13.7839 12.6418 13.9651 12.7506C14.4455 13.0361 14.2687 13.2808 14.3865 13.4575C14.6675 13.8653 15.0889 13.6433 15.3064 13.5164C15.5239 13.3895 15.5692 12.8503 16.2398 13.0542C16.6975 13.1947 16.5072 13.5209 16.3214 13.7248C16.2353 13.82 16.267 13.9695 16.3848 14.0239C16.8244 14.2187 17.1642 13.9242 17.4044 13.7883C17.6898 13.6297 18.1112 13.6523 18.3106 13.8653C18.5462 14.1236 17.8122 14.2686 18.1022 14.5269C18.3423 14.7398 18.6641 14.4136 18.7275 14.3229C19.0991 13.8245 19.6564 14.7534 19.2169 15.0162C18.6595 15.3515 19.4344 15.3923 19.4344 15.5645C19.4389 17.0326 18.7773 17.7576 18.1747 18.1654C17.572 18.5733 6.44327 19.1668 4.90264 18.2334C4.24108 17.8301 3.8242 15.9587 4.25014 15.5872C4.67155 15.2156 4.16405 15.1748 4.30905 14.7806C4.46311 14.3592 4.59452 14.7081 4.74858 14.5495C4.97061 14.3184 4.88452 14.1825 4.77577 14.0239C4.66249 13.8562 5.25608 13.317 5.6503 13.317C6.03999 13.317 5.5778 13.7928 5.82702 13.9197C6.07624 14.0465 6.23936 13.9333 6.50671 13.675C6.76952 13.4303 6.37983 13.1901 6.67889 12.9772Z" fill="url(#paint10_linear_3:30)"/>
<path opacity="0.5" d="M18.1686 18.1745C17.5433 18.5778 6.77706 19.2665 4.89659 18.2425C4.10815 17.812 4.0719 15.9587 4.0719 15.9587L4.41174 15.3017C4.41174 15.3017 4.89206 16.3076 5.27721 16.4481C5.66237 16.5886 4.85127 14.1779 4.85127 14.1779C4.85127 14.1779 6.23331 16.1626 6.78159 16.217C7.32987 16.2714 7.22565 14.0375 7.22565 14.0375C7.22565 14.0375 8.03221 17.0734 8.50346 17.1006C8.97924 17.1278 8.88409 13.7837 9.2783 13.4393C9.66799 13.095 10.4202 17.5764 10.896 17.8029C11.3717 18.025 11.2449 13.9151 11.7116 13.4393C12.2463 12.9001 11.8249 16.9556 12.6677 17.1821C13.4924 17.4087 13.3111 13.9287 14.2446 13.7112C14.7475 13.5934 14.0361 17.0689 14.7475 17.1821C15.9619 17.377 16.2021 14.4045 16.8591 14.1961C17.276 14.0646 16.8319 16.942 17.1083 17.155C17.4708 17.4314 19.4283 15.714 19.4283 15.714C19.4283 15.714 19.4736 17.3317 18.1686 18.1745Z" fill="url(#paint11_linear_3:30)"/>
<path d="M18.6687 18.6684C19.0447 19.6336 19.0447 21.6953 19.0447 21.6953C19.0447 21.6953 15.2929 22.6786 11.8083 22.6786C8.39178 22.6786 4.59912 21.6953 4.59912 21.6953C4.59912 21.6953 4.59912 19.7333 4.94803 18.6684C5.64584 16.5478 7.81178 14.6583 11.8083 14.6583C15.8049 14.6583 17.853 16.5795 18.6687 18.6684Z" fill="url(#paint12_radial_3:30)"/>
<path d="M19.0431 21.3917C19.0431 23.6075 17.0177 22.7783 11.5938 22.7783C6.16984 22.7783 4.57031 23.6075 4.57031 21.3917C4.57031 19.1759 7.81016 17.3815 11.8067 17.3815C15.8033 17.3815 19.0431 19.1804 19.0431 21.3917Z" fill="url(#paint13_linear_3:30)"/>
<path d="M17.1536 20.4764L18.0417 20.132L17.7109 19.194L16.9905 20.2317L17.1536 20.4764Z" fill="#568B3E"/>
<path d="M16.3289 20.3223L16.424 19.5113L15.989 19.0989L15.8123 20.3314L16.3289 20.3223Z" fill="#568B3E"/>
<path d="M11.5937 19.7015L11.6934 18.895L11.2584 18.4826L11.2448 19.0989L11.2358 19.7151L11.5937 19.7015Z" fill="#568B3E"/>
<path d="M10.1754 19.6109L10.5108 19.7151L10.5833 18.9494L10.0894 18.7636L10.1754 19.6109Z" fill="#568B3E"/>
<path d="M7.66969 19.9644L7.8011 19.3164L6.98547 19.0989L7.10329 20.2408L7.66969 19.9644Z" fill="#568B3E"/>
<path d="M16.8183 18.7817C16.3063 18.4192 15.8985 18.9494 16.0027 19.2031C16.0661 19.3617 16.2156 19.4614 16.1703 19.6472C16.125 19.8284 15.9755 19.8601 15.7081 19.842C15.4091 19.8239 15.246 19.5928 15.2052 19.3889C15.0239 18.4781 14.462 18.2787 14.0406 18.4872C13.6963 18.6594 14.0769 18.9856 13.7642 19.1125C13.4017 19.2575 13.1933 19.1714 13.0211 18.9675C12.8897 18.8134 13.0619 18.5551 12.8036 18.2379C12.3777 17.7078 11.3445 18.0295 11.2403 18.3965C11.1361 18.7636 11.4805 18.7817 11.4941 19.0989C11.5077 19.4161 10.905 19.5883 10.6014 19.4614C9.97611 19.2031 10.6331 19.2303 10.5788 18.827C10.5017 18.2742 9.7133 18.4464 9.53205 18.5551C9.05174 18.8406 9.22845 19.0853 9.11064 19.262C8.8297 19.6698 8.4083 19.4478 8.1908 19.3209C7.9733 19.194 7.92799 18.6548 7.25736 18.8587C6.7997 18.9992 6.99002 19.3254 7.1758 19.5294C7.26189 19.6245 7.23017 19.774 7.11236 19.8284C6.67283 20.0233 6.33299 19.7287 6.09283 19.5928C5.80736 19.4342 5.38595 19.4569 5.18658 19.6698C4.95095 19.9281 5.68502 20.0731 5.39502 20.3314C5.15486 20.5444 4.83314 20.2181 4.7697 20.1275C4.39814 19.629 3.8408 20.5579 4.28033 20.8208C4.83767 21.1561 4.06283 21.1969 4.06283 21.369C4.0583 22.8372 4.71986 23.5622 5.32252 23.97C5.92517 24.3778 17.0539 24.9714 18.5945 24.0379C19.2561 23.6347 19.673 21.7633 19.247 21.3917C18.8256 21.0201 19.3331 20.9794 19.1881 20.5851C19.0341 20.1637 18.9027 20.5126 18.7486 20.354C18.5266 20.1229 18.6127 19.987 18.7214 19.8284C18.8347 19.6608 18.2411 19.1215 17.8469 19.1215C17.4572 19.1215 17.9194 19.5973 17.6702 19.7242C17.421 19.8511 17.2578 19.7378 16.9905 19.4795C16.7277 19.2348 17.1219 18.9947 16.8183 18.7817Z" fill="url(#paint14_linear_3:30)"/>
<path opacity="0.5" d="M19.4736 23.1815L4.5975 23.0954L3.75922 20.3495C3.75922 20.3495 4.11719 20.4265 4.5975 20.6214C5.07781 20.8162 5.07328 21.4778 5.45843 21.6183C5.84359 21.7587 5.45843 19.7197 5.45843 19.7197C5.45843 19.7197 6.70906 22.1847 7.25734 22.239C7.80562 22.2934 7.18937 19.5248 7.18937 19.5248C7.18937 19.5248 8.03219 21.5412 8.50797 21.5729C8.98375 21.6047 8.81156 19.2847 9.20578 18.9403C9.59547 18.5959 10.4247 22.0533 10.9005 22.2798C11.3762 22.5019 11.2131 19.5339 11.6798 19.0581C12.2145 18.5189 11.8294 21.4325 12.6722 21.659C13.4969 21.8856 13.2114 19.3345 14.1448 19.117C14.6478 18.9992 14.0452 21.5458 14.752 21.659C15.9664 21.8539 16.3425 20.0958 16.9995 19.8873C17.4164 19.7559 16.8364 21.4189 17.1173 21.6319C17.4798 21.9083 19.2833 20.1683 19.2833 20.1683L19.4736 23.1815Z" fill="url(#paint15_linear_3:30)"/>
<path d="M9.36679 4.51147C9.77102 4.48062 10.0856 4.28367 10.0694 4.07157C10.0532 3.85947 9.7124 3.71254 9.30817 3.74339C8.90393 3.77424 8.58936 3.9712 8.60554 4.18329C8.62173 4.39539 8.96255 4.54232 9.36679 4.51147Z" fill="#FDD836"/>
<path d="M10.3617 4.9601C10.741 4.93115 11.0361 4.74586 11.0209 4.54623C11.0057 4.34661 10.6858 4.20825 10.3066 4.2372C9.92728 4.26615 9.63216 4.45144 9.6474 4.65106C9.66263 4.85068 9.98245 4.98904 10.3617 4.9601Z" fill="#F9BF2C"/>
<path d="M12.3455 4.14322C12.3509 3.93056 12.0267 3.74983 11.6215 3.73953C11.2162 3.72923 10.8832 3.89327 10.8778 4.10593C10.8724 4.31858 11.1966 4.49931 11.6019 4.50961C12.0072 4.51991 12.3401 4.35587 12.3455 4.14322Z" fill="#FDD836"/>
<path d="M14.4401 4.61586C14.4452 4.41572 14.141 4.24564 13.7607 4.23598C13.3805 4.22632 13.0681 4.38073 13.063 4.58088C13.0579 4.78102 13.362 4.9511 13.7423 4.96076C14.1226 4.97042 14.435 4.81601 14.4401 4.61586Z" fill="#F9BF2C"/>
<path d="M11.9421 5.28746C12.322 5.26829 12.6218 5.09066 12.6117 4.89072C12.6016 4.69077 12.2855 4.54423 11.9056 4.5634C11.5257 4.58257 11.2259 4.7602 11.236 4.96014C11.2461 5.16009 11.5622 5.30663 11.9421 5.28746Z" fill="#FDD836"/>
<path d="M8.65331 5.25475C8.99931 5.0967 9.21236 4.82095 9.12918 4.63885C9.04599 4.45674 8.69807 4.43724 8.35207 4.59529C8.00607 4.75334 7.79302 5.02909 7.8762 5.2112C7.95939 5.3933 8.30731 5.4128 8.65331 5.25475Z" fill="#F9BF2C"/>
<path d="M8.34235 6.15703C8.70281 6.03553 8.94318 5.78325 8.87923 5.59353C8.81529 5.40382 8.47124 5.34852 8.11079 5.47002C7.75034 5.59151 7.50997 5.8438 7.57391 6.03351C7.63786 6.22322 7.9819 6.27852 8.34235 6.15703Z" fill="#F9A823"/>
<path d="M15.49 5.56245C15.5222 5.36485 15.244 5.15501 14.8685 5.09377C14.4931 5.03253 14.1626 5.14307 14.1304 5.34067C14.0982 5.53827 14.3764 5.7481 14.7518 5.80934C15.1273 5.87059 15.4577 5.76005 15.49 5.56245Z" fill="#F9A823"/>
<path d="M16.5621 5.02561C16.6219 4.83456 16.3761 4.58751 16.0131 4.47381C15.6501 4.36011 15.3074 4.42282 15.2475 4.61388C15.1877 4.80493 15.4334 5.05198 15.7964 5.16568C16.1594 5.27937 16.5022 5.21666 16.5621 5.02561Z" fill="#F9A823"/>
<path d="M7.40558 5.23683C7.73298 5.04314 7.91575 4.74643 7.8138 4.57411C7.71186 4.4018 7.36381 4.41913 7.03641 4.61282C6.70901 4.80651 6.52624 5.10322 6.62819 5.27554C6.73013 5.44785 7.07818 5.43052 7.40558 5.23683Z" fill="#F9A823"/>
<path d="M6.95868 6.30256C7.28608 6.10887 7.46885 5.81216 7.3669 5.63985C7.26496 5.46753 6.91691 5.48486 6.58951 5.67855C6.26211 5.87225 6.07935 6.16895 6.18129 6.34127C6.28323 6.51358 6.63128 6.49625 6.95868 6.30256Z" fill="#F9A823"/>
<path d="M10.2762 15.7262C10.6555 15.6973 10.9506 15.512 10.9354 15.3124C10.9202 15.1128 10.6003 14.9744 10.2211 15.0033C9.84177 15.0323 9.54665 15.2176 9.56189 15.4172C9.57712 15.6168 9.89694 15.7552 10.2762 15.7262Z" fill="#FDD836"/>
<path d="M10.3623 16.4331C10.7416 16.4042 11.0367 16.2189 11.0215 16.0193C11.0062 15.8197 10.6864 15.6813 10.3071 15.7103C9.92783 15.7392 9.63271 15.9245 9.64795 16.1241C9.66318 16.3237 9.983 16.4621 10.3623 16.4331Z" fill="#F9BF2C"/>
<path d="M13.0685 15.3808C13.0736 15.1806 12.7695 15.0105 12.3892 15.0009C12.0089 14.9912 11.6965 15.1456 11.6915 15.3458C11.6864 15.5459 11.9905 15.716 12.3708 15.7257C12.7511 15.7353 13.0635 15.5809 13.0685 15.3808Z" fill="#FDD836"/>
<path d="M14.4433 16.086C14.4484 15.8859 14.1442 15.7158 13.764 15.7061C13.3837 15.6965 13.0713 15.8509 13.0662 16.051C13.0611 16.2512 13.3653 16.4213 13.7455 16.4309C14.1258 16.4406 14.4382 16.2862 14.4433 16.086Z" fill="#F9BF2C"/>
<path d="M11.9419 16.7603C12.3218 16.7411 12.6215 16.5635 12.6114 16.3635C12.6014 16.1636 12.2852 16.017 11.9053 16.0362C11.5254 16.0554 11.2256 16.233 11.2357 16.433C11.2458 16.6329 11.562 16.7794 11.9419 16.7603Z" fill="#FDD836"/>
<path d="M14.4968 15.4632C14.5257 15.2651 14.244 15.06 13.8676 15.005C13.4912 14.9501 13.1627 15.0662 13.1338 15.2643C13.1049 15.4624 13.3865 15.6675 13.7629 15.7224C14.1393 15.7773 14.4679 15.6613 14.4968 15.4632Z" fill="#FDD836"/>
<path d="M8.65398 16.728C8.99998 16.5699 9.21303 16.2942 9.12985 16.1121C9.04667 15.9299 8.69874 15.9104 8.35274 16.0685C8.00675 16.2265 7.79369 16.5023 7.87688 16.6844C7.96006 16.8665 8.30798 16.886 8.65398 16.728Z" fill="#F9BF2C"/>
<path d="M8.34321 17.6298C8.70366 17.5083 8.94403 17.256 8.88009 17.0663C8.81614 16.8766 8.4721 16.8213 8.11164 16.9428C7.75119 17.0643 7.51082 17.3166 7.57477 17.5063C7.63871 17.696 7.98275 17.7513 8.34321 17.6298Z" fill="#F9A823"/>
<path d="M15.4935 17.0331C15.5257 16.8355 15.2475 16.6257 14.872 16.5645C14.4966 16.5032 14.1661 16.6138 14.1339 16.8114C14.1016 17.009 14.3799 17.2188 14.7553 17.28C15.1307 17.3413 15.4612 17.2308 15.4935 17.0331Z" fill="#F9A823"/>
<path d="M17.6325 17.7091C17.7056 17.5227 17.4777 17.259 17.1235 17.1202C16.7693 16.9814 16.423 17.02 16.3499 17.2064C16.2769 17.3928 16.5048 17.6565 16.8589 17.7953C17.2131 17.9341 17.5595 17.8955 17.6325 17.7091Z" fill="#F9A823"/>
<path d="M16.5652 16.4965C16.625 16.3054 16.3793 16.0584 16.0162 15.9447C15.6532 15.831 15.3105 15.8937 15.2506 16.0848C15.1908 16.2758 15.4365 16.5229 15.7995 16.6366C16.1625 16.7503 16.5053 16.6875 16.5652 16.4965Z" fill="#F9A823"/>
<path d="M7.40759 16.7099C7.73499 16.5162 7.91776 16.2195 7.81582 16.0471C7.71387 15.8748 7.36582 15.8921 7.03842 16.0858C6.71103 16.2795 6.52826 16.5762 6.6302 16.7486C6.73215 16.9209 7.0802 16.9035 7.40759 16.7099Z" fill="#F9A823"/>
<path d="M6.7851 18.0021C7.1125 17.8085 7.29526 17.5117 7.19332 17.3394C7.09138 17.1671 6.74333 17.1844 6.41593 17.3781C6.08853 17.5718 5.90576 17.8685 6.0077 18.0409C6.10965 18.2132 6.4577 18.1958 6.7851 18.0021Z" fill="#F9A823"/>
<path d="M49.62 29.489C49.4976 28.4695 48.5144 28.5647 48.4464 28.5828C48.2787 28.1931 47.7531 28.1478 47.3045 28.1478C47.0915 28.1478 46.8378 28.2112 46.6067 28.32C46.3575 28.4378 46.0765 28.4378 45.8273 28.32C45.5962 28.2112 45.3425 28.1478 45.1295 28.1478C44.9165 28.1478 44.6628 28.2112 44.4317 28.32C44.1825 28.4378 43.9015 28.4378 43.6523 28.32C43.4212 28.2112 43.1675 28.1478 42.9545 28.1478C42.7415 28.1478 42.4878 28.2112 42.2567 28.32C42.0075 28.4378 41.7265 28.4378 41.4773 28.32C41.2462 28.2112 40.9925 28.1478 40.7795 28.1478C40.5665 28.1478 40.3128 28.2112 40.0817 28.32C39.8325 28.4378 39.5515 28.4378 39.3023 28.32C39.0712 28.2112 38.8175 28.1478 38.6045 28.1478C38.1514 28.1478 37.5351 28.2112 37.3675 28.6055C37.295 28.5873 36.5518 28.7595 36.3162 29.4075C36.0217 29.8017 35.845 30.2911 35.845 30.8258V40.3686C35.845 41.6826 36.9098 42.7475 38.2239 42.7475H47.6398C48.9539 42.7475 50.0187 41.6826 50.0187 40.3686V30.8167C50.0278 30.3273 49.8783 29.8697 49.62 29.489Z" fill="url(#paint16_linear_3:30)"/>
<g opacity="0.2">
<path opacity="0.2" d="M40.1678 32.5884C39.9367 32.6519 39.2299 32.8966 39.0078 32.8648C38.1605 32.738 37.4672 32.1353 37.2135 31.6641C37.0005 31.2653 37.9339 31.2155 38.0064 31.3423C38.3961 32.0492 39.5969 31.5145 40.1135 31.5553C40.9789 31.6233 41.6178 32.1806 40.1678 32.5884Z" fill="#434343"/>
</g>
<path d="M40.7614 32.0084C40.7614 32.0084 40.5892 32.2259 39.5244 32.2169L36.8917 30.0781C36.7014 29.915 37.073 29.625 37.3041 29.4981L37.4491 29.4211C37.5669 29.3577 37.7119 29.3395 37.8433 29.3758L41.2372 30.273C41.4955 30.3409 41.6224 30.5766 41.5091 30.7759L40.911 31.8634C40.8792 31.9223 40.8249 31.9722 40.7614 32.0084Z" fill="#F47C20"/>
<path d="M39.4383 32.2033L37.5261 31.7774C37.4219 31.7547 37.3404 31.6867 37.3086 31.6052L36.7785 30.0781C36.7105 29.8833 36.9461 29.7066 37.1818 29.7745L40.263 30.6763C40.4261 30.7261 40.5077 30.8711 40.4488 31.0025L39.9821 31.9813C39.905 32.158 39.6649 32.2531 39.4383 32.2033Z" fill="#F37021"/>
<g opacity="0.2">
<path opacity="0.2" d="M40.4714 35.8147C40.6889 35.9008 40.6481 36.2724 41.79 36.2134C42.9319 36.1545 43.9695 35.8509 44.2912 35.2574C44.5042 34.8586 43.5708 34.8088 43.4983 34.9356C43.1086 35.6425 41.9078 35.1078 41.3912 35.1486C40.5212 35.2211 40.1497 35.6924 40.4714 35.8147Z" fill="#434343"/>
</g>
<path d="M41.1738 35.783L43.8563 35.1123L44.0375 34.12L43.2672 33.5038C43.1675 33.4222 43.0497 33.3769 42.9228 33.3633L40.8928 33.173C40.6527 33.25 40.2494 33.7711 40.3536 34.0022L40.4895 35.4159L41.1738 35.783Z" fill="#F47C20"/>
<path d="M41.5227 35.7694L43.6433 35.3208C43.7928 35.2891 43.9152 35.1894 43.9786 35.0489L44.1508 34.6592C44.2822 34.3602 44.0828 34.0203 43.7566 33.9931L41.5181 33.7937C41.2508 33.7711 41.0152 33.975 41.0016 34.2423L40.9472 35.28C40.9336 35.5927 41.2191 35.8373 41.5227 35.7694Z" fill="#F37021"/>
<g opacity="0.2">
<path opacity="0.2" d="M45.9769 40.1239C46.1944 40.21 46.1536 40.5816 47.2955 40.5227C48.4374 40.4637 49.475 40.1602 49.7967 39.5666C50.0097 39.1678 49.0763 39.118 49.0038 39.2448C48.6141 39.9517 47.4133 39.417 46.8968 39.4578C46.0268 39.5258 45.6597 39.997 45.9769 40.1239Z" fill="#434343"/>
</g>
<path d="M46.6792 40.0922L49.3617 39.4216L49.543 38.4292L48.7727 37.813C48.673 37.7314 48.5552 37.6861 48.4283 37.6725L46.1355 38.0214C45.8953 38.0985 45.4921 38.6195 45.5963 38.8506L45.9905 39.7252L46.6792 40.0922Z" fill="#F47C20"/>
<path d="M47.0327 40.0786L49.1533 39.63C49.3028 39.5983 49.4252 39.4986 49.4886 39.3581L49.6608 38.9684C49.7922 38.6694 49.5928 38.3295 49.2666 38.3023L46.711 38.47C46.4436 38.4473 46.208 38.6512 46.1944 38.9186L46.4527 39.5892C46.4436 39.9019 46.7246 40.1466 47.0327 40.0786Z" fill="#F37021"/>
<g opacity="0.2">
<path opacity="0.2" d="M41.4728 41.9138C41.2553 41.9999 41.2961 42.3714 40.1542 42.3125C39.0124 42.2536 37.9747 41.95 37.653 41.3564C37.44 40.9577 38.3734 40.9078 38.4459 41.0347C38.8356 41.7416 40.0364 41.2069 40.553 41.2477C41.423 41.3156 41.79 41.7869 41.4728 41.9138Z" fill="#434343"/>
</g>
<path d="M40.7705 41.8775L38.088 41.2069L37.9067 40.2145L38.677 39.5983C38.7767 39.5167 38.8946 39.4714 39.0214 39.4578L41.3142 39.8067C41.5544 39.8837 41.9577 40.4048 41.8535 40.6359L41.4592 41.5105L40.7705 41.8775Z" fill="#F47C20"/>
<path d="M40.417 41.8684L38.2964 41.4199C38.1469 41.3881 38.0245 41.2884 37.9611 41.148L37.7889 40.7583C37.6575 40.4592 37.8569 40.1194 38.1831 40.0922L40.7388 40.2599C41.0061 40.2372 41.2417 40.4411 41.2553 40.7084L40.997 41.3791C41.0061 41.6917 40.7252 41.9319 40.417 41.8684Z" fill="#F37021"/>
<path d="M38.2919 32.3619C38.3961 32.5658 38.6997 32.7108 38.6997 32.7108L39.8552 32.4842C39.8552 32.4842 39.982 32.38 40.0364 32.3166C40.2313 32.0855 39.7374 30.9028 39.1075 31.1883C38.4777 31.4737 38.1061 31.9948 38.2919 32.3619Z" fill="#FCB316"/>
<path d="M38.8165 32.371C39.0426 32.3059 39.2056 32.1829 39.1806 32.0963C39.1557 32.0098 38.9522 31.9924 38.7262 32.0575C38.5001 32.1227 38.3371 32.2457 38.3621 32.3322C38.387 32.4188 38.5905 32.4362 38.8165 32.371Z" fill="#F78F1E"/>
<path d="M44.5541 35.4658C44.1916 35.1396 43.8426 35.3117 43.4756 35.5202C43.2581 35.6425 43.0406 35.8555 42.9455 36.141C42.8503 36.4264 43.7339 37.3553 44.2187 36.8569C44.7036 36.3585 44.8622 35.7377 44.5541 35.4658Z" fill="#FCB316"/>
<path d="M44.2551 35.9035C44.4424 35.7611 44.55 35.5876 44.4955 35.5159C44.441 35.4441 44.245 35.5014 44.0577 35.6437C43.8704 35.7861 43.7628 35.9596 43.8173 36.0313C43.8718 36.103 44.0679 36.0458 44.2551 35.9035Z" fill="#F78F1E"/>
<path d="M46.3711 41.9319C46.5343 42.3895 46.9194 42.4122 47.3408 42.4077C47.59 42.4031 47.8846 42.3261 48.1066 42.1222C48.3286 41.9183 48.0024 40.6812 47.3408 40.8806C46.6747 41.08 46.2352 41.5422 46.3711 41.9319Z" fill="#FCB316"/>
<path d="M46.8887 42.0162C47.1215 41.9822 47.2996 41.8823 47.2866 41.7932C47.2735 41.704 47.0743 41.6594 46.8415 41.6934C46.6087 41.7275 46.4306 41.8274 46.4437 41.9165C46.4567 42.0057 46.656 42.0503 46.8887 42.0162Z" fill="#F78F1E"/>
<path d="M35.9175 39.4986C36.0806 39.9562 36.4658 39.9789 36.8872 39.9744C37.1364 39.9698 37.431 39.8928 37.653 39.6889C37.875 39.485 37.5488 38.2479 36.8872 38.4473C36.2211 38.6422 35.7816 39.1089 35.9175 39.4986Z" fill="#FCB316"/>
<path d="M36.4352 39.5823C36.668 39.5483 36.8461 39.4484 36.833 39.3592C36.82 39.2701 36.6207 39.2254 36.388 39.2595C36.1552 39.2936 35.9771 39.3934 35.9901 39.4826C36.0032 39.5717 36.2024 39.6164 36.4352 39.5823Z" fill="#F78F1E"/>
<path opacity="0.2" d="M47.8528 31.4737C48.2507 31.4737 48.5733 31.3013 48.5733 31.0886C48.5733 30.8759 48.2507 30.7034 47.8528 30.7034C47.4549 30.7034 47.1323 30.8759 47.1323 31.0886C47.1323 31.3013 47.4549 31.4737 47.8528 31.4737Z" fill="#434343"/>
<path d="M47.8438 31.0659C48.2417 31.0659 48.5642 30.7434 48.5642 30.3455C48.5642 29.9476 48.2417 29.625 47.8438 29.625C47.4459 29.625 47.1233 29.9476 47.1233 30.3455C47.1233 30.7434 47.4459 31.0659 47.8438 31.0659Z" fill="url(#paint17_radial_3:30)"/>
<path opacity="0.2" d="M38.4504 36.0911C38.8483 36.0911 39.1709 35.9187 39.1709 35.706C39.1709 35.4932 38.8483 35.3208 38.4504 35.3208C38.0525 35.3208 37.73 35.4932 37.73 35.706C37.73 35.9187 38.0525 36.0911 38.4504 36.0911Z" fill="#434343"/>
<path d="M38.4414 35.6788C38.8393 35.6788 39.1619 35.3562 39.1619 34.9583C39.1619 34.5604 38.8393 34.2378 38.4414 34.2378C38.0435 34.2378 37.7209 34.5604 37.7209 34.9583C37.7209 35.3562 38.0435 35.6788 38.4414 35.6788Z" fill="url(#paint18_radial_3:30)"/>
<path opacity="0.2" d="M46.4345 37.1469C46.8324 37.1469 47.155 36.9744 47.155 36.7617C47.155 36.549 46.8324 36.3766 46.4345 36.3766C46.0366 36.3766 45.7141 36.549 45.7141 36.7617C45.7141 36.9744 46.0366 37.1469 46.4345 37.1469Z" fill="#434343"/>
<path d="M46.4254 36.7391C46.8233 36.7391 47.1459 36.4165 47.1459 36.0186C47.1459 35.6207 46.8233 35.2981 46.4254 35.2981C46.0275 35.2981 45.705 35.6207 45.705 36.0186C45.705 36.4165 46.0275 36.7391 46.4254 36.7391Z" fill="url(#paint19_radial_3:30)"/>
<path opacity="0.2" d="M43.7792 42.0406C44.1771 42.0406 44.4997 41.8682 44.4997 41.6555C44.4997 41.4427 44.1771 41.2703 43.7792 41.2703C43.3813 41.2703 43.0588 41.4427 43.0588 41.6555C43.0588 41.8682 43.3813 42.0406 43.7792 42.0406Z" fill="#434343"/>
<path d="M43.7702 41.6328C44.1681 41.6328 44.4906 41.3102 44.4906 40.9123C44.4906 40.5144 44.1681 40.1919 43.7702 40.1919C43.3723 40.1919 43.0497 40.5144 43.0497 40.9123C43.0497 41.3102 43.3723 41.6328 43.7702 41.6328Z" fill="url(#paint20_radial_3:30)"/>
<path opacity="0.2" d="M47.948 33.7303C47.948 34.0339 47.59 34.1698 46.6701 34.0701C46.0176 34.0022 45.7865 34.0883 45.7865 33.7847C45.7865 33.4811 45.7639 32.7198 46.6973 32.5975C47.6308 32.4797 47.948 33.2772 47.948 33.7303Z" fill="#434343"/>
<path d="M46.7517 33.2681C47.2818 33.2862 47.8346 33.83 47.8573 33.7937C47.9117 33.7122 47.8165 32.9056 47.6761 32.8195L46.7607 32.2758C46.652 32.2123 46.5115 32.2441 46.439 32.3528L45.8907 33.0914L45.9134 33.8527C46.1989 33.9252 46.2215 33.25 46.7517 33.2681Z" fill="#AF5C2B"/>
<path d="M46.5931 33.8617C46.6611 33.8844 46.9375 33.975 47.1097 33.9614C47.3634 33.9387 47.3951 33.8526 47.6806 33.8753C47.9479 33.898 47.8754 33.685 47.6897 33.5762L46.7744 33.0325C46.6656 32.969 46.5251 33.0008 46.4526 33.1095L45.9044 33.8481C46.2986 33.9931 46.3756 33.7847 46.5931 33.8617Z" fill="#8B4A22"/>
<path d="M46.6384 32.96H46.6294C46.5614 32.96 46.5115 32.9056 46.5115 32.8422V32.3981C46.5115 32.3301 46.5659 32.2803 46.6294 32.2803H46.6384C46.7064 32.2803 46.7562 32.3347 46.7562 32.3981V32.8422C46.7608 32.9056 46.7064 32.96 46.6384 32.96Z" fill="#C56E39"/>
<path opacity="0.2" d="M44.5767 31.9994C44.5767 32.303 44.2188 32.4389 43.2989 32.3392C42.6464 32.2712 42.4153 32.3573 42.4153 32.0537C42.4153 31.7502 42.3927 30.9889 43.3261 30.8666C44.2595 30.7487 44.5767 31.5462 44.5767 31.9994Z" fill="#434343"/>
<path d="M43.3805 31.5372C43.9106 31.5553 44.4634 32.0991 44.4861 32.0628C44.5405 31.9812 44.4453 31.1747 44.3048 31.0886L43.3895 30.5448C43.2808 30.4814 43.1403 30.5131 43.0678 30.6219L42.5195 31.3605L42.5422 32.1217C42.8277 32.1942 42.8503 31.5191 43.3805 31.5372Z" fill="#AF5C2B"/>
<path d="M43.2219 32.1308C43.2899 32.1534 43.5663 32.2441 43.7385 32.2305C43.9922 32.2078 44.0239 32.1217 44.3094 32.1444C44.5767 32.167 44.5042 31.9541 44.3185 31.8453L43.4031 31.3016C43.2944 31.2381 43.1539 31.2698 43.0814 31.3786L42.5331 32.1172C42.9319 32.2622 43.0044 32.0537 43.2219 32.1308Z" fill="#8B4A22"/>
<path d="M43.2717 31.2291H43.2626C43.1947 31.2291 43.1448 31.1747 43.1448 31.1113V30.6672C43.1448 30.5992 43.1992 30.5494 43.2626 30.5494H43.2717C43.3397 30.5494 43.3895 30.6038 43.3895 30.6672V31.1113C43.3895 31.1792 43.3351 31.2291 43.2717 31.2291Z" fill="#C56E39"/>
<path opacity="0.2" d="M40.9653 37.9262C40.9653 38.2298 40.6073 38.3658 39.6875 38.2661C39.035 38.1981 38.8039 38.2842 38.8039 37.9806C38.8039 37.677 38.7812 36.9158 39.7147 36.7934C40.6481 36.6801 40.9653 37.4776 40.9653 37.9262Z" fill="#434343"/>
<path d="M39.7645 37.4641C40.2947 37.4822 40.8475 38.0259 40.8701 37.9897C40.9245 37.9081 40.8293 37.1016 40.6889 37.0155L39.7736 36.4717C39.6648 36.4083 39.5243 36.44 39.4518 36.5488L38.9036 37.2874L38.9262 38.0486C39.2162 38.1211 39.2343 37.4459 39.7645 37.4641Z" fill="#AF5C2B"/>
<path d="M39.6104 38.0577C39.6784 38.0803 39.9548 38.1709 40.127 38.1573C40.3808 38.1347 40.4125 38.0486 40.6979 38.0713C40.9653 38.0939 40.8928 37.8809 40.707 37.7722L39.7917 37.2284C39.6829 37.165 39.5425 37.1967 39.47 37.3055L38.9217 38.0441C39.3159 38.1891 39.3929 37.9806 39.6104 38.0577Z" fill="#8B4A22"/>
<path d="M39.6557 37.1605H39.6467C39.5787 37.1605 39.5289 37.1061 39.5289 37.0427V36.5986C39.5289 36.5306 39.5832 36.4808 39.6467 36.4808H39.6557C39.7237 36.4808 39.7736 36.5351 39.7736 36.5986V37.0427C39.7736 37.1061 39.7237 37.1605 39.6557 37.1605Z" fill="#C56E39"/>
<path opacity="0.2" d="M46.8741 13.752C46.8741 11.6586 44.0647 9.9639 40.5938 9.9639C37.1274 9.9639 34.3135 11.6586 34.3135 13.752C34.3135 14.5087 34.685 15.2111 35.3194 15.8047C34.2591 16.7381 33.6021 17.9978 33.6021 19.3844C33.6021 22.2662 36.4114 24.6044 39.8824 24.6044C43.3488 24.6044 46.1627 22.2662 46.1627 19.3844C46.1627 18.2833 45.7503 17.2637 45.0525 16.4209C46.1763 15.7367 46.8741 14.7942 46.8741 13.752Z" fill="#212121"/>
<path d="M40.1361 24.695C43.1116 24.695 45.5237 22.6075 45.5237 20.0323C45.5237 17.4572 43.1116 15.3697 40.1361 15.3697C37.1605 15.3697 34.7484 17.4572 34.7484 20.0323C34.7484 22.6075 37.1605 24.695 40.1361 24.695Z" fill="#1E5F30"/>
<path d="M40.1361 24.1966C43.1116 24.1966 45.5237 22.109 45.5237 19.5339C45.5237 16.9588 43.1116 14.8712 40.1361 14.8712C37.1605 14.8712 34.7484 16.9588 34.7484 19.5339C34.7484 22.109 37.1605 24.1966 40.1361 24.1966Z" fill="#4D803B"/>
<path d="M40.136 23.2586C42.586 23.2586 44.5721 21.5403 44.5721 19.4206C44.5721 17.301 42.586 15.5826 40.136 15.5826C37.6861 15.5826 35.7 17.301 35.7 19.4206C35.7 21.5403 37.6861 23.2586 40.136 23.2586Z" fill="#B7CE7A"/>
<path d="M40.1361 22.162C41.8854 22.162 43.3034 20.9347 43.3034 19.4206C43.3034 17.9066 41.8854 16.6792 40.1361 16.6792C38.3868 16.6792 36.9688 17.9066 36.9688 19.4206C36.9688 20.9347 38.3868 22.162 40.1361 22.162Z" fill="#B3CA62"/>
<path d="M45.7775 3.15344C46.6611 4.58985 45.9497 6.64704 44.187 7.74813C42.4244 8.84922 40.2766 8.58188 39.3884 7.14547C38.5048 5.70907 39.2162 3.65188 40.9789 2.55079C42.7416 1.44969 44.8939 1.71704 45.7775 3.15344Z" fill="#568B3E"/>
<path opacity="0.2" d="M46.362 18.46C45.8681 19.9145 43.1765 20.3133 40.3536 19.3436C37.5261 18.3739 35.6365 16.4074 36.1305 14.9528C36.6244 13.4983 39.3159 13.0995 42.1389 14.0692C44.9619 15.0389 46.8559 17.0055 46.362 18.46Z" fill="#212121"/>
<path d="M42.3609 7.71641C41.5997 4.84359 39.2027 2.99484 37.005 3.58391C34.8074 4.17297 33.6428 6.98234 34.4086 9.85063C35.1699 12.7234 37.5669 14.5722 39.7645 13.9831C41.9622 13.3941 43.1222 10.5892 42.3609 7.71641Z" fill="#1E5F30"/>
<path d="M40.1905 13.8698C37.9928 14.4589 35.5958 12.6102 34.8345 9.73734C34.0733 6.86453 35.2378 4.05969 37.4309 3.47062C39.6241 2.88156 42.0256 4.73031 42.7869 7.60312C43.5526 10.4759 42.3881 13.2808 40.1905 13.8698Z" fill="#568B3E"/>
<path d="M40.041 12.9273C38.233 13.4122 36.2574 11.8897 35.6321 9.52437C35.0067 7.15906 35.9628 4.85265 37.7708 4.36328C39.5788 3.8739 41.5544 5.40093 42.1797 7.76625C42.805 10.1316 41.8489 12.4425 40.041 12.9273Z" fill="#CEE298"/>
<path d="M39.7147 11.7039C38.4233 12.0528 37.0141 10.9653 36.5655 9.27515C36.1169 7.58499 36.8011 5.93562 38.0925 5.59124C39.3839 5.24687 40.7931 6.32983 41.2417 8.01999C41.6903 9.70562 41.0061 11.355 39.7147 11.7039Z" fill="#C4DC72"/>
<path d="M45.347 3.0764C42.8231 2.01609 40.0772 2.84078 39.2162 4.91609C38.3553 6.9914 39.7056 9.53343 42.2295 10.5937C44.7534 11.6541 47.4994 10.8294 48.3603 8.75406C49.2212 6.67875 47.8755 4.13671 45.347 3.0764Z" fill="#1E5F30"/>
<path d="M48.5325 8.35077C47.6715 10.4261 44.9301 11.2508 42.4017 10.1905C39.8778 9.13014 38.5275 6.58811 39.3884 4.5128C40.2494 2.43749 42.9908 1.6128 45.5192 2.67311C48.0431 3.73342 49.3934 6.27545 48.5325 8.35077Z" fill="#568B3E"/>
<path d="M47.7576 7.92484C47.0507 9.63312 44.7896 10.3128 42.7098 9.43828C40.63 8.56828 39.5198 6.47484 40.2267 4.76656C40.9336 3.05828 43.1947 2.37859 45.2745 3.25312C47.3543 4.12765 48.469 6.21656 47.7576 7.92484Z" fill="#CEE298"/>
<path d="M46.9148 7.57139C46.3666 8.89905 44.613 9.42468 42.9998 8.74499C41.3867 8.06983 40.5258 6.44311 41.0741 5.11999C41.6223 3.79686 43.3759 3.26671 44.9891 3.94639C46.6022 4.62155 47.4631 6.24374 46.9148 7.57139Z" fill="#C4DC72"/>
<path d="M45.8228 9.15281C43.1312 9.66031 41.287 11.8625 41.6994 14.0737C42.1117 16.285 44.6265 17.667 47.3136 17.1595C50.0051 16.652 51.8494 14.4498 51.437 12.2386C51.0247 10.0273 48.5144 8.64531 45.8228 9.15281Z" fill="#1E5F30"/>
<path d="M51.36 11.5544C51.7724 13.7656 49.9236 15.9678 47.2366 16.4753C44.545 16.9828 42.0347 15.6008 41.6223 13.3895C41.21 11.1783 43.0588 8.9761 45.7458 8.4686C48.4328 7.9611 50.9477 9.34313 51.36 11.5544Z" fill="#4D803B"/>
<path d="M50.4809 11.6224C50.8208 13.4439 49.2983 15.2564 47.087 15.6733C44.8713 16.0902 42.805 14.9528 42.4652 13.1358C42.1253 11.3142 43.6478 9.50174 45.8591 9.08487C48.0703 8.66346 50.1411 9.80081 50.4809 11.6224Z" fill="#B7CE7A"/>
<path d="M49.7741 11.7538C50.055 13.2536 48.7999 14.7489 46.9783 15.0888C45.1567 15.4331 43.4485 14.4952 43.1721 12.9953C42.8911 11.4955 44.1463 10.0002 45.9678 9.66032C47.7894 9.31595 49.4932 10.2539 49.7741 11.7538Z" fill="#B3CA62"/>
<path opacity="0.2" d="M29.2521 15.2927C32.7206 15.2927 35.5324 13.7265 35.5324 11.7945C35.5324 9.86258 32.7206 8.29642 29.2521 8.29642C25.7835 8.29642 22.9717 9.86258 22.9717 11.7945C22.9717 13.7265 25.7835 15.2927 29.2521 15.2927Z" fill="#212121"/>
<path d="M41.6088 10.63C38.8583 9.48359 36.0308 10.0092 35.2922 11.8036C34.5536 13.598 36.1849 15.9814 38.9308 17.1278C41.6813 18.2742 44.5088 17.7486 45.2474 15.9542C45.986 14.1598 44.3547 11.7764 41.6088 10.63Z" fill="#1E5F30"/>
<path d="M45.4195 15.1023C44.681 16.8967 41.8535 17.4223 39.103 16.2759C36.3525 15.1295 34.7258 12.7461 35.4644 10.9517C36.203 9.15735 39.0305 8.63172 41.781 9.77813C44.5314 10.9245 46.1581 13.308 45.4195 15.1023Z" fill="#568B3E"/>
<path d="M44.5722 14.6583C43.965 16.1355 41.636 16.5659 39.3749 15.6234C37.1138 14.6809 35.7725 12.7189 36.3797 11.2417C36.9869 9.76454 39.316 9.33407 41.5771 10.2766C43.8381 11.2236 45.1794 13.1856 44.5722 14.6583Z" fill="#F9EBBB"/>
<path d="M43.7883 14.332C43.2944 15.5283 41.4139 15.8772 39.5833 15.1114C37.7526 14.3501 36.6697 12.7597 37.1591 11.568C37.653 10.3717 39.5334 10.0228 41.3641 10.7886C43.1947 11.5544 44.2822 13.1403 43.7883 14.332Z" fill="#DEE67C"/>
<path d="M45.7775 16.2759C43.2491 16.5523 41.3414 18.1156 41.5227 19.765C41.6994 21.4144 43.897 22.5291 46.4255 22.2526C48.9539 21.9762 50.8616 20.413 50.6803 18.7636C50.5036 17.1142 48.3059 15.9995 45.7775 16.2759Z" fill="#1E5F30"/>
<path opacity="0.2" d="M50.7845 19.3119C50.9612 20.9613 49.0581 22.5246 46.5297 22.801C44.0012 23.0774 41.8036 21.9672 41.6269 20.3133C41.4501 18.6639 43.3533 17.1006 45.8817 16.8242C48.4101 16.5478 50.6033 17.6625 50.7845 19.3119Z" fill="#212121"/>
<path d="M50.5897 18.2606C50.7664 19.91 48.8633 21.4733 46.3348 21.7497C43.8064 22.0261 41.6087 20.9159 41.432 19.262C41.2553 17.6127 43.1584 16.0494 45.6869 15.773C48.2153 15.4966 50.413 16.6112 50.5897 18.2606Z" fill="#568B3E"/>
<path d="M49.7741 18.2788C49.9191 19.6381 48.3513 20.925 46.2714 21.1516C44.1916 21.3781 42.3836 20.4628 42.2341 19.1034C42.0891 17.7441 43.6569 16.4572 45.7367 16.2306C47.8166 16.0041 49.6246 16.9194 49.7741 18.2788Z" fill="#F9EBBB"/>
<path d="M49.0536 18.3603C49.1714 19.4614 47.9027 20.4991 46.2216 20.6848C44.5359 20.8706 43.0769 20.1275 42.9545 19.0309C42.8367 17.9298 44.1055 16.8922 45.7866 16.7064C47.4722 16.5206 48.9313 17.2592 49.0536 18.3603Z" fill="#DEE67C"/>
<path d="M24.5169 11.7356C22.8901 9.87783 22.9219 7.80705 22.8856 7.21346C22.7587 5.10189 23.9187 4.95689 26.3475 3.97814C29.4605 2.72299 36.0806 2.15658 36.2755 5.06111C36.5428 9.05767 34.8481 11.858 31.1234 13.3125C28.3503 14.391 25.9895 13.4122 24.5169 11.7356Z" fill="#CCB795"/>
<path d="M23.307 9.11657C21.9658 6.53376 23.2391 3.50235 26.352 2.24719C29.465 0.992038 34.9569 1.49954 36.0353 4.20469C37.1138 6.90985 33.5567 11.1556 30.3078 11.9803C26.8414 12.8549 24.5169 11.4456 23.307 9.11657Z" fill="url(#paint21_radial_3:30)"/>
<path d="M25.2237 8.05174C24.5622 6.3933 25.1829 4.60799 27.0906 3.83768C28.9983 3.06736 31.1415 3.55674 31.8031 5.21517C32.4647 6.87361 31.427 9.03502 29.5148 9.80533C27.6072 10.5756 25.8808 9.71017 25.2237 8.05174Z" fill="url(#paint22_radial_3:30)"/>
<path opacity="0.2" d="M29.2521 25.4245C32.7206 25.4245 35.5324 23.8584 35.5324 21.9264C35.5324 19.9944 32.7206 18.4283 29.2521 18.4283C25.7835 18.4283 22.9717 19.9944 22.9717 21.9264C22.9717 23.8584 25.7835 25.4245 29.2521 25.4245Z" fill="#212121"/>
<path d="M24.5169 22.2119C22.8901 20.3541 22.9219 18.2833 22.8856 17.6897C22.7587 15.5781 23.9187 15.4331 26.3475 14.4544C29.4605 13.1992 36.0806 12.6328 36.2755 15.5374C36.5428 19.5339 34.8481 22.3342 31.1234 23.7888C28.3503 24.8672 25.9895 23.8885 24.5169 22.2119Z" fill="#CCB795"/>
<path d="M23.307 19.5928C21.9658 17.01 23.2391 13.9786 26.352 12.7235C29.465 11.4683 34.9569 11.9758 36.0353 14.681C37.1138 17.3861 33.5567 21.6319 30.3078 22.4566C26.8414 23.3311 24.5169 21.9264 23.307 19.5928Z" fill="url(#paint23_radial_3:30)"/>
<path d="M25.2237 18.528C24.5622 16.8696 25.1829 15.0842 27.0906 14.3139C28.9983 13.5436 31.1415 14.033 31.8031 15.6914C32.4647 17.3499 31.427 19.5113 29.5148 20.2816C27.6072 21.0519 25.8808 20.1864 25.2237 18.528Z" fill="url(#paint24_radial_3:30)"/>
<defs>
<linearGradient id="paint0_linear_3:30" x1="3.63704" y1="-0.216727" x2="50.9127" y2="47.0589" gradientUnits="userSpaceOnUse">
<stop offset="0.2239" stop-color="#434343"/>
<stop offset="0.5619" stop-color="#323535"/>
<stop offset="0.8997" stop-color="#404141"/>
</linearGradient>
<radialGradient id="paint1_radial_3:30" cx="0" cy="0" r="1" gradientUnits="userSpaceOnUse" gradientTransform="translate(17.3815 26.2235) scale(19.2064)">
<stop offset="0.4088" stop-color="white"/>
<stop offset="0.724" stop-color="#ECEFF0"/>
<stop offset="0.9654" stop-color="#D0D8DC"/>
</radialGradient>
<radialGradient id="paint2_radial_3:30" cx="0" cy="0" r="1" gradientUnits="userSpaceOnUse" gradientTransform="translate(16.8986 29.1459) scale(17.7642)">
<stop offset="0.2277" stop-color="white"/>
<stop offset="0.6304" stop-color="#ECEFF0"/>
<stop offset="0.9654" stop-color="#D0D8DC"/>
</radialGradient>
<radialGradient id="paint3_radial_3:30" cx="0" cy="0" r="1" gradientUnits="userSpaceOnUse" gradientTransform="translate(17.3815 26.2235) scale(19.2064)">
<stop offset="0.4088" stop-color="white"/>
<stop offset="0.724" stop-color="#ECEFF0"/>
<stop offset="0.9654" stop-color="#D0D8DC"/>
</radialGradient>
<radialGradient id="paint4_radial_3:30" cx="0" cy="0" r="1" gradientUnits="userSpaceOnUse" gradientTransform="translate(16.9668 29.4989) scale(2.04183 2.33605)">
<stop offset="0.1384" stop-color="#F47C20"/>
<stop offset="0.8823" stop-color="#E45325"/>
</radialGradient>
<radialGradient id="paint5_radial_3:30" cx="0" cy="0" r="1" gradientUnits="userSpaceOnUse" gradientTransform="translate(11.7996 4.41497) scale(7.31172 5.9469)">
<stop offset="0.0529" stop-color="#FFCB28"/>
<stop offset="1" stop-color="#F9A01B"/>
</radialGradient>
<linearGradient id="paint6_linear_3:30" x1="11.8065" y1="13.7076" x2="11.8065" y2="5.98854" gradientUnits="userSpaceOnUse">
<stop offset="0.0303" stop-color="#F37021"/>
<stop offset="1" stop-color="#F9A01B"/>
</linearGradient>
<linearGradient id="paint7_linear_3:30" x1="11.9592" y1="5.03323" x2="11.9592" y2="13.1545" gradientUnits="userSpaceOnUse">
<stop stop-color="#BFCA33"/>
<stop offset="0.8669" stop-color="#679F42"/>
</linearGradient>
<radialGradient id="paint8_radial_3:30" cx="0" cy="0" r="1" gradientUnits="userSpaceOnUse" gradientTransform="translate(11.7996 9.86222) scale(7.31172 5.9469)">
<stop offset="0.0574" stop-color="#FFCB28"/>
<stop offset="1" stop-color="#F9A01B"/>
</radialGradient>
<linearGradient id="paint9_linear_3:30" x1="11.8065" y1="19.1548" x2="11.8065" y2="11.4358" gradientUnits="userSpaceOnUse">
<stop offset="0.0303" stop-color="#F37021"/>
<stop offset="1" stop-color="#F9A01B"/>
</linearGradient>
<linearGradient id="paint10_linear_3:30" x1="11.7506" y1="10.6317" x2="11.7506" y2="18.7531" gradientUnits="userSpaceOnUse">
<stop stop-color="#BFCA33"/>
<stop offset="0.8669" stop-color="#679F42"/>
</linearGradient>
<linearGradient id="paint11_linear_3:30" x1="11.7477" y1="17.9227" x2="11.7477" y2="12.534" gradientUnits="userSpaceOnUse">
<stop stop-color="#346A34" stop-opacity="0.6"/>
<stop offset="0.9267" stop-color="#679F42" stop-opacity="0"/>
</linearGradient>
<radialGradient id="paint12_radial_3:30" cx="0" cy="0" r="1" gradientUnits="userSpaceOnUse" gradientTransform="translate(11.7996 15.8102) scale(7.31172 5.9469)">
<stop offset="0.0603" stop-color="#FFCB28"/>
<stop offset="1" stop-color="#F9A01B"/>
</radialGradient>
<linearGradient id="paint13_linear_3:30" x1="11.8065" y1="22.932" x2="11.8065" y2="17.3838" gradientUnits="userSpaceOnUse">
<stop offset="0.0303" stop-color="#F37021"/>
<stop offset="1" stop-color="#F9A01B"/>
</linearGradient>
<linearGradient id="paint14_linear_3:30" x1="11.7491" y1="16.4353" x2="11.7491" y2="24.5566" gradientUnits="userSpaceOnUse">
<stop stop-color="#BFCA33"/>
<stop offset="0.8669" stop-color="#679F42"/>
</linearGradient>
<linearGradient id="paint15_linear_3:30" x1="11.6176" y1="22.5053" x2="11.6176" y2="18.2437" gradientUnits="userSpaceOnUse">
<stop stop-color="#346A34" stop-opacity="0.6"/>
<stop offset="0.9267" stop-color="#679F42" stop-opacity="0"/>
</linearGradient>
<linearGradient id="paint16_linear_3:30" x1="42.9386" y1="41.0233" x2="42.9386" y2="26.4277" gradientUnits="userSpaceOnUse">
<stop stop-color="#8D401E"/>
<stop offset="0.6486" stop-color="#BB5B27"/>
</linearGradient>
<radialGradient id="paint17_radial_3:30" cx="0" cy="0" r="1" gradientUnits="userSpaceOnUse" gradientTransform="translate(47.728 30.2007) scale(0.720693)">
<stop offset="0.2043" stop-color="#8BC249"/>
<stop offset="1" stop-color="#679F42"/>
</radialGradient>
<radialGradient id="paint18_radial_3:30" cx="0" cy="0" r="1" gradientUnits="userSpaceOnUse" gradientTransform="translate(38.3254 34.815) scale(0.720691)">
<stop offset="0.2043" stop-color="#8BC249"/>
<stop offset="1" stop-color="#679F42"/>
</radialGradient>
<radialGradient id="paint19_radial_3:30" cx="0" cy="0" r="1" gradientUnits="userSpaceOnUse" gradientTransform="translate(46.3119 35.8738) scale(0.720695)">
<stop offset="0.2043" stop-color="#8BC249"/>
<stop offset="1" stop-color="#679F42"/>
</radialGradient>
<radialGradient id="paint20_radial_3:30" cx="0" cy="0" r="1" gradientUnits="userSpaceOnUse" gradientTransform="translate(43.6537 40.7675) scale(0.720699)">
<stop offset="0.2043" stop-color="#8BC249"/>
<stop offset="1" stop-color="#679F42"/>
</radialGradient>
<radialGradient id="paint21_radial_3:30" cx="0" cy="0" r="1" gradientUnits="userSpaceOnUse" gradientTransform="translate(26.6261 4.26595) scale(11.9479 12.0231)">
<stop offset="0.4485" stop-color="#FFF3E1"/>
<stop offset="1" stop-color="#FFE0B2"/>
</radialGradient>
<radialGradient id="paint22_radial_3:30" cx="0" cy="0" r="1" gradientUnits="userSpaceOnUse" gradientTransform="translate(28.5459 7.06591) scale(3.40261 3.42404)">
<stop stop-color="#F36E21"/>
<stop offset="1" stop-color="#FAAA43"/>
</radialGradient>
<radialGradient id="paint23_radial_3:30" cx="0" cy="0" r="1" gradientUnits="userSpaceOnUse" gradientTransform="translate(26.6261 14.7426) scale(11.9479 12.0231)">
<stop offset="0.4485" stop-color="#FFF3E1"/>
<stop offset="1" stop-color="#FFE0B2"/>
</radialGradient>
<radialGradient id="paint24_radial_3:30" cx="0" cy="0" r="1" gradientUnits="userSpaceOnUse" gradientTransform="translate(28.5459 17.5426) scale(3.40261 3.42404)">
<stop stop-color="#F36E21"/>
<stop offset="1" stop-color="#FAAA43"/>
</radialGradient>
</defs>
</svg>
